<?xml version="1.0" standalone="no"?>
<!DOCTYPE svg PUBLIC "-//W3C//DTD SVG 1.1//EN" "http://www.w3.org/Graphics/SVG/1.1/DTD/svg11.dtd" >
<svg xmlns="http://www.w3.org/2000/svg" xmlns:xlink="http://www.w3.org/1999/xlink" version="1.1">
<metadata>
Created by FontForge 20170731 at Wed Jun 23 02:25:52 2021
 By Aleksey,,,
</metadata>
<defs>
<font id="TeleTextType2-Regular" horiz-adv-x="1000" >
  <font-face 
    font-family="TeleText Type 2"
    font-weight="400"
    font-stretch="normal"
    units-per-em="2048"
    panose-1="0 0 0 0 0 0 0 0 0 0"
    ascent="1638"
    descent="-410"
    x-height="1000"
    cap-height="1600"
    bbox="100 -400 901 1800"
    underline-thickness="50"
    underline-position="-175"
    unicode-range="U+000D-20AC"
  />
<missing-glyph horiz-adv-x="250" 
 />
    <glyph glyph-name=".notdef" horiz-adv-x="250" 
 />
    <glyph glyph-name=".null" horiz-adv-x="0" 
 />
    <glyph glyph-name=".null" horiz-adv-x="0" 
 />
    <glyph glyph-name="uni000D" unicode="&#xd;" horiz-adv-x="512" 
 />
    <glyph glyph-name="space" unicode=" " 
 />
    <glyph glyph-name="exclam" unicode="!" 
d="M600 1600v-1000h-200v1000h200zM600 400v-400h-200v400h200z" />
    <glyph glyph-name="quotedbl" unicode="&#x22;" 
d="M400 1600v-400h-200v400h200zM800 1600v-400h-200v400h200z" />
    <glyph glyph-name="numbersign" unicode="#" 
d="M201 0v400h-100v200h100v400h-100v200h100v400h200v-400h200v400h200v-400h100v-200h-100v-400h100v-200h-100v-400h-200v400h-200v-400h-200zM601 600v400h-200v-400h200z" />
    <glyph glyph-name="dollar" unicode="$" 
d="M600 1200v200h-100v-400h200v-200h100v-600h-100v-200h-200v-200h-100v200h-200v200h-100v200h200v-200h100v600h-200v200h-100v400h100v200h200v200h100v-200h200v-200h100v-200h-200zM300 1000h100v400h-100v-400zM500 200h100v600h-100v-600z" />
    <glyph glyph-name="percent" unicode="%" horiz-adv-x="1001" 
d="M600 800v-200h-100v-200h-99v-200h-100v-200h-200v200h100v200h100v200h100v200h-200v200h200v-200h99v200h-99v200h99v-200h100v200h100v200h200v-200h-100v-200h-100v-200h-100zM401 1200h-200v200h200v-200zM201 1200v-200h-100v200h100zM600 400v200h200v-200h-200z
M800 200v200h100v-200h-100zM600 400v-200h-100v200h100zM600 0v200h200v-200h-200z" />
    <glyph glyph-name="ampersand" unicode="&#x26;" 
d="M200 0v200h-100v400h100v200h100v200h-100v400h100v200h400v-200h100v-400h-100v-200h-100v-200h200v-400h100v-200h-200v200h-100v200h-100v200h-200v-400h300v-200h-400zM400 1000h200v400h-200v-400zM900 600h-100v200h100v-200z" />
    <glyph glyph-name="quotesingle" unicode="'" 
d="M600 1600v-400h-100v-200h-200v200h100v400h200z" />
    <glyph glyph-name="parenleft" unicode="(" 
d="M800 1600h-100v-200h-100v-1200h100v-200h100v-200h-200v200h-100v200h-100v1200h100v200h100v200h200v-200z" />
    <glyph glyph-name="parenright" unicode=")" 
d="M400 1800v-200h100v-200h100v-1200h-100v-200h-100v-200h-200v200h100v200h100v1200h-100v200h-100v200h200z" />
    <glyph glyph-name="asterisk" unicode="*" 
d="M700 600v-200h100v-200h-200v200h-200v-200h-200v200h100v200h-200v200h200v200h-100v200h200v-200h200v200h200v-200h-100v-200h200v-200h-200z" />
    <glyph glyph-name="plus" unicode="+" 
d="M400 300v300h-200v200h200v300h200v-300h200v-200h-200v-300h-200z" />
    <glyph glyph-name="comma" unicode="," 
d="M601 400v-400h-100v-200h-200v200h100v400h200z" />
    <glyph glyph-name="hyphen" unicode="-" 
d="M100 800h800v-200h-800v200z" />
    <glyph glyph-name="period" unicode="." 
d="M600 400v-400h-200v400h200z" />
    <glyph glyph-name="slash" unicode="/" horiz-adv-x="1001" 
d="M901 1400v-200h-100v-200h-100v-200h-100v-200h-100v-200h-100v-200h-100v-200h-200v200h100v200h100v200h100v200h100v200h100v200h100v200h200z" />
    <glyph glyph-name="zero" unicode="0" horiz-adv-x="1001" 
d="M900 1200v-800h-100v-200h-100v-200h-400v200h-100v200h-100v800h100v200h100v200h400v-200h100v-200h100zM700 400v800h-100v200h-200v-200h-100v-800h100v-200h200v200h100z" />
    <glyph glyph-name="one" unicode="1" 
d="M800 200v-200h-600v200h200v1000h-200v200h200v200h200v-1400h200z" />
    <glyph glyph-name="two" unicode="2" horiz-adv-x="1001" 
d="M401 399v-200h400v-200h-701v200h100v200h100v200h101v201h100v200h100v400h-301v-200h-200v200h100v200h501v-200h100v-400h-100v-200h-100v-201h-100v-200h-100z" />
    <glyph glyph-name="three" unicode="3" horiz-adv-x="1001" 
d="M700 1200v-200h100v-200h100v-600h-100v-200h-600v200h-100v200h200v-200h400v600h-300v200h100v200h100v200h-500v200h800v-200h-100v-200h-100z" />
    <glyph glyph-name="four" unicode="4" 
d="M900 400h-200v-400h-200v400h-400v400h100v200h100v200h100v200h100v200h200v-200h-100v-200h-100v-200h-100v-200h-100v-200h200v200h200v-200h200v-200z" />
    <glyph glyph-name="five" unicode="5" 
d="M300 1400v-400h500v-200h100v-600h-100v-200h-600v200h-100v200h200v-200h400v600h-600v800h800v-200h-600z" />
    <glyph glyph-name="six" unicode="6" 
d="M100 200v1000h100v200h100v200h500v-200h-400v-200h-100v-200h500v-200h100v-600h-100v-200h-600v200h-100zM300 800v-600h400v600h-400z" />
    <glyph glyph-name="seven" unicode="7" 
d="M900 1600v-600h-100v-200h-100v-200h-100v-200h-100v-200h-100v-200h-200v200h100v200h100v200h100v200h100v200h100v400h-600v200h800z" />
    <glyph glyph-name="eight" unicode="8" horiz-adv-x="1001" 
d="M800 1000v-200h100v-600h-100v-200h-600v200h-100v600h100v200h-100v400h100v200h600v-200h100v-400h-100zM700 1000v400h-400v-400h400zM700 800h-400v-600h400v600z" />
    <glyph glyph-name="nine" unicode="9" 
d="M900 1400v-1000h-100v-200h-100v-200h-500v200h400v200h100v200h-500v200h-100v600h100v200h600v-200h100zM700 800v600h-400v-600h400z" />
    <glyph glyph-name="colon" unicode=":" 
d="M600 1000v-400h-200v400h200zM600 400v-400h-200v400h200z" />
    <glyph glyph-name="semicolon" unicode=";" horiz-adv-x="1001" 
d="M600 1000v-400h-200v400h200zM601 400v-400h-100v-200h-200v200h100v400h200z" />
    <glyph glyph-name="less" unicode="&#x3c;" horiz-adv-x="1001" 
d="M801 1000h-200v200h200v-200zM601 800h-200v200h200v-200zM401 600h-200v200h200v-200zM601 400h-200v200h200v-200zM801 200h-200v200h200v-200z" />
    <glyph glyph-name="greater" unicode="&#x3e;" horiz-adv-x="1001" 
d="M401 1200v-200h-200v200h200zM601 1000v-200h-200v200h200zM601 600v200h200v-200h-200zM401 400v200h200v-200h-200zM201 200v200h200v-200h-200z" />
    <glyph glyph-name="question" unicode="?" 
d="M900 1400v-200h-100v-200h-100v-200h-100v-200h-200v200h100v200h100v200h100v200h-400v-200h-200v200h100v200h600v-200h100zM400 400h200v-400h-200v400z" />
    <glyph glyph-name="at" unicode="@" horiz-adv-x="1001" 
d="M401 600v400h100v200h200v200h-400v-1200h-200v1200h100v200h600v-200h100v-1000h-400v200h-100zM601 1000v-400h100v400h-100zM201 200h700v-200h-700v200z" />
    <glyph glyph-name="A" unicode="A" 
d="M901 1000v-1000h-200v400h-400v-400h-200v1000h100v200h100v200h100v200h200v-200h100v-200h100v-200h100zM701 1000h-100v200h-200v-200h-100v-400h400v400z" />
    <glyph glyph-name="B" unicode="B" horiz-adv-x="1001" 
d="M800 1000v-200h100v-600h-100v-200h-700v1600h700v-200h100v-400h-100zM700 1000v400h-400v-400h400zM700 800h-400v-600h400v600z" />
    <glyph glyph-name="C" unicode="C" 
d="M700 1200v200h-400v-1200h400v200h200v-200h-100v-200h-600v200h-100v1200h100v200h600v-200h100v-200h-200z" />
    <glyph glyph-name="D" unicode="D" horiz-adv-x="1001" 
d="M900 1200v-800h-100v-200h-100v-200h-599v1600h599v-200h100v-200h100zM700 400v800h-100v200h-300v-1200h300v200h100z" />
    <glyph glyph-name="E" unicode="E" 
d="M900 200v-200h-800v1600h800v-200h-600v-400h400v-200h-400v-600h600z" />
    <glyph glyph-name="F" unicode="F" 
d="M100 0v1600h800v-200h-600v-500h400v-200h-400v-700h-200z" />
    <glyph glyph-name="G" unicode="G" 
d="M700 1200v200h-400v-1200h400v400h-200v200h400v-800h-700v200h-100v1200h100v200h600v-200h100v-200h-200z" />
    <glyph glyph-name="H" unicode="H" 
d="M900 0h-200v800h-400v-800h-200v1600h200v-600h400v600h200v-1600z" />
    <glyph glyph-name="I" unicode="I" 
d="M800 200v-200h-600v200h200v1200h-200v200h600v-200h-200v-1200h200z" />
    <glyph glyph-name="J" unicode="J" horiz-adv-x="1001" 
d="M400 1600h500v-1400h-100v-200h-600v200h-100v200h200v-200h400v1200h-300v200z" />
    <glyph glyph-name="K" unicode="K" horiz-adv-x="1001" 
d="M601 900v-200h100v-200h100v-200h100v-300h-200v300h-100v200h-100v200h-200v-700h-200v1600h200v-700h200v200h100v200h100v300h200v-300h-100v-200h-100v-200h-100z" />
    <glyph glyph-name="L" unicode="L" 
d="M900 200v-200h-800v1600h200v-1400h600z" />
    <glyph glyph-name="M" unicode="M" 
d="M900 1600v-1600h-200v1000h-100v-200h-200v200h-100v-1000h-200v1600h200v-200h100v-200h200v200h100v200h200z" />
    <glyph glyph-name="N" unicode="N" 
d="M900 1600v-1600h-200v400h-100v200h-100v200h-100v200h-100v-1000h-200v1600h200v-200h100v-200h100v-200h100v-200h100v800h200z" />
    <glyph glyph-name="O" unicode="O" 
d="M200 200h-100v1200h100v200h600v-200h100v-1200h-100v-200h-600v200zM700 200v1200h-400v-1200h400z" />
    <glyph glyph-name="P" unicode="P" 
d="M300 600v-600h-200v1600h700v-200h100v-600h-100v-200h-500zM700 800v600h-400v-600h400z" />
    <glyph glyph-name="Q" unicode="Q" 
d="M200 200h-100v1200h100v200h600v-200h100v-1200h-100v-200h-600v200zM500 300h200v1100h-400v-1200h200v100zM700 0h200v-200h-200v200zM600 0h100v-200h-100v200z" />
    <glyph glyph-name="R" unicode="R" 
d="M700 600v-200h100v-200h100v-200h-200v200h-100v200h-100v200h-200v-600h-200v1600h700v-200h100v-600h-100v-200h-100zM700 800v600h-400v-600h400z" />
    <glyph glyph-name="S" unicode="S" 
d="M700 1200v200h-400v-400h500v-200h100v-600h-100v-200h-600v200h-100v200h200v-200h400v600h-500v200h-100v400h100v200h600v-200h100v-200h-200z" />
    <glyph glyph-name="T" unicode="T" 
d="M400 1400h-300v200h800v-200h-300v-1400h-200v1400z" />
    <glyph glyph-name="U" unicode="U" horiz-adv-x="1001" 
d="M901 1600v-1400h-100v-200h-600v200h-100v1400h200v-1400h400v1400h200z" />
    <glyph glyph-name="V" unicode="V" horiz-adv-x="1001" 
d="M901 1600v-600h-100v-400h-100v-400h-100v-200h-200v200h-100v400h-100v400h-100v600h200v-600h100v-400h200v400h100v600h200z" />
    <glyph glyph-name="W" unicode="W" horiz-adv-x="1001" 
d="M900 200h-99v-200h-200v200h-200v-200h-200v200h-100v1400h200v-1200h100v600h200v-600h100v1200h199v-1400z" />
    <glyph glyph-name="X" unicode="X" horiz-adv-x="1001" 
d="M600 900v-200h100v-200h100v-200h100v-300h-200v300h-100v200h-200v-200h-100v-300h-200v300h100v200h100v200h100v200h-100v200h-100v200h-100v300h200v-300h100v-200h200v200h100v300h200v-300h-100v-200h-100v-200h-100z" />
    <glyph glyph-name="Y" unicode="Y" horiz-adv-x="1001" 
d="M901 1600v-400h-100v-300h-100v-200h-100v-700h-200v700h-100v200h-100v300h-100v400h200v-400h100v-300h200v300h100v400h200z" />
    <glyph glyph-name="Z" unicode="Z" 
d="M300 400v-200h600v-200h-800v400h100v200h100v200h100v200h100v200h100v200h-500v200h800v-200h-100v-200h-100v-200h-100v-200h-100v-200h-100v-200h-100z" />
    <glyph glyph-name="bracketleft" unicode="[" 
d="M800 1600h-200v-1600h200v-200h-400v2000h400v-200z" />
    <glyph glyph-name="backslash" unicode="\" horiz-adv-x="1001" 
d="M301 1200h100v-200h100v-200h100v-200h100v-200h100v-200h100v-200h-200v200h-100v200h-100v200h-100v200h-100v200h-100v200h-100v200h200v-200z" />
    <glyph glyph-name="bracketright" unicode="]" horiz-adv-x="1001" 
d="M600 1800v-2000h-400v200h200v1600h-200v200h400z" />
    <glyph glyph-name="asciicircum" unicode="^" 
d="M300 1600h400v-200h100v-200h100v-200h-200v200h-100v200h-200v-200h-100v-200h-200v200h100v200h100v200z" />
    <glyph glyph-name="a" unicode="a" horiz-adv-x="1001" 
d="M101 200v200h100v200h500v200h-500v200h600v-200h100v-800h-700v200h-100zM301 400v-200h400v200h-400z" />
    <glyph glyph-name="b" unicode="b" horiz-adv-x="1001" 
d="M800 1h-700v1599h200v-600h500v-201h100v-600h-100v-198zM301 200h399v600h-399v-600z" />
    <glyph glyph-name="c" unicode="c" 
d="M900 400v-200h-100v-200h-599v200h-100v600h100v200h599v-200h100v-200h-200v200h-399v-600h399v200h200z" />
    <glyph glyph-name="d" unicode="d" horiz-adv-x="1001" 
d="M200 199h-100v600h100v201h501v600h199v-1599h-700v198zM700 800h-400v-600h400v600z" />
    <glyph glyph-name="e" unicode="e" horiz-adv-x="1001" 
d="M901 800v-200h-100v-200h-500v-200h500v-200h-600v200h-100v600h100v200h600v-200h100zM701 600v200h-400v-200h400z" />
    <glyph glyph-name="f" unicode="f" 
d="M500 1300v-300h300v-200h-300v-800h-200v800h-200v200h200v300h100v200h500v-200h-400z" />
    <glyph glyph-name="g" unicode="g" horiz-adv-x="1001" 
d="M201 1000h700v-1300h-101v-100h-600v200h501v200h-500v200h-100v600h100v200zM701 800h-400v-600h400v600z" />
    <glyph glyph-name="h" unicode="h" horiz-adv-x="1001" 
d="M900 800v-800h-200v800h-399v-800h-200v1600h200v-600h499v-200h100z" />
    <glyph glyph-name="i" unicode="i" horiz-adv-x="801" 
d="M301 1600h200v-400h-200v400zM701 200v-200h-600v200h200v600h-200v200h400v-800h200z" />
    <glyph glyph-name="j" unicode="j" horiz-adv-x="1001" 
d="M900 1600v-400h-200v400h200zM400 1000h500v-1200h-100v-200h-600v200h-100v200h200v-200h400v1000h-300v200z" />
    <glyph glyph-name="k" unicode="k" horiz-adv-x="1001" 
d="M301 0h-200v1600h200v-1000h300v200h100v200h199v-200h-100v-200h-99v-200h99v-200h100v-200h-199v200h-100v200h-300v-400z" />
    <glyph glyph-name="l" unicode="l" 
d="M800 200v-200h-600v200h200v1200h-100v200h300v-1400h200z" />
    <glyph glyph-name="m" unicode="m" horiz-adv-x="1001" 
d="M600 0h-199v800h-100v-800h-200v1000h699v-200h100v-800h-200v800h-100v-800z" />
    <glyph glyph-name="n" unicode="n" horiz-adv-x="1001" 
d="M900 800v-800h-200v800h-399v-800h-200v1000h699v-200h100z" />
    <glyph glyph-name="o" unicode="o" horiz-adv-x="1001" 
d="M900 800v-600h-100v-200h-600v200h-99v600h99v200h600v-200h100zM700 200v600h-400v-600h400z" />
    <glyph glyph-name="p" unicode="p" horiz-adv-x="1001" 
d="M900 800v-600h-100v-200h-500v-400h-200v1400h700v-200h100zM700 200v600h-399v-600h399z" />
    <glyph glyph-name="q" unicode="q" horiz-adv-x="1001" 
d="M200 800v200h700v-1400h-199v400h-501v200h-99v600h99zM700 200v600h-400v-600h400z" />
    <glyph glyph-name="r" unicode="r" 
d="M800 800h-300v200h300v-200zM400 0h-200v1000h200v-200h100v-200h-100v-600z" />
    <glyph glyph-name="s" unicode="s" 
d="M900 400v-200h-100v-200h-600v200h500v200h-500v200h-100v200h100v200h600v-200h-500v-200h500v-200h100z" />
    <glyph glyph-name="t" unicode="t" 
d="M500 200h300v-200h-400v200h-100v600h-200v200h200v500h200v-500h200v-200h-200v-600z" />
    <glyph glyph-name="u" unicode="u" horiz-adv-x="1001" 
d="M101 200v800h200v-800h398v800h201v-1000h-699v200h-100z" />
    <glyph glyph-name="v" unicode="v" 
d="M900 1000v-400h-100v-200h-100v-200h-100v-200h-200v200h-100v200h-100v200h-100v400h200v-400h100v-200h200v200h100v400h200z" />
    <glyph glyph-name="w" unicode="w" 
d="M900 1000v-800h-100v-200h-200v100h-200v-100h-200v200h-100v800h200v-800h100v400h200v-400h100v800h200z" />
    <glyph glyph-name="x" unicode="x" 
d="M600 600v-200h100v-200h200v-200h-300v200h-200v-200h-300v200h200v200h100v200h-100v200h-200v200h300v-200h200v200h300v-200h-200v-200h-100z" />
    <glyph glyph-name="y" unicode="y" horiz-adv-x="1001" 
d="M701 1000h200v-1300h-101v-100h-600v200h501v200h-500v200h-100v800h200v-800h400v800z" />
    <glyph glyph-name="z" unicode="z" horiz-adv-x="1001" 
d="M401 400v-200h399v-200h-699v200h100v200h100v200h100v200h-300v200h699v-200h-199v-200h-100v-200h-100z" />
    <glyph glyph-name="braceleft" unicode="{" 
d="M800 1600h-100v-200h-100v-1200h100v-200h100v-200h-200v200h-100v200h-100v1200h100v200h100v200h200v-200zM300 900h100v-200h-100v200zM600 700v200h-100v-200h100z" />
    <glyph glyph-name="bar" unicode="|" 
d="M600 -200h-200v2000h200v-2000z" />
    <glyph glyph-name="braceright" unicode="}" 
d="M400 1800v-200h100v-200h100v-1200h-100v-200h-100v-200h-200v200h100v200h100v500h100v200h-100v500h-100v200h-100v200h200zM600 700v200h100v-200h-100z" />
    <glyph glyph-name="dieresis" unicode="&#xa8;" 
d="M200 1600h200v-200h-200v200zM600 1600h200v-200h-200v200z" />
    <glyph glyph-name="germandbls" unicode="&#xdf;" 
d="M800 1000v-200h100v-600h-200v600h-200v200h200v400h-300v-200h-100v-1400h-200v1400h100v200h100v200h500v-200h100v-400h-100zM400 200h300v-200h-300v200z" />
    <glyph glyph-name="adieresis" unicode="&#xe4;" horiz-adv-x="1001" 
d="M101 200v200h100v200h500v200h-500v200h600v-200h100v-800h-700v200h-100zM301 400v-200h400v200h-400zM201 1399h200v-200h-200v200zM601 1399h200v-200h-200v200z" />
    <glyph glyph-name="Euro" unicode="&#x20ac;" 
d="M700 1200v200h-300v-300h200v-200h-200v-200h200v-200h-200v-300h300v200h200v-200h-100v-200h-500v200h-100v300h-100v200h100v200h-100v200h100v300h100v200h500v-200h100v-200h-200z" />
  </font>
</defs>
</svg>
