<svg xmlns="http://www.w3.org/2000/svg" viewBox="0 0 92 10"><defs><style>.cls-1{fill:#fff;}.cls-2{fill:red;}.cls-3{fill:#f0f;}</style></defs><g id="Layer_2" data-name="Layer 2"><g id="Layer_1-2" data-name="Layer 1"><path class="cls-1" d="M6,1V8H5V1H3V8H4V9H7V8H8V1Z"/><path class="cls-1" d="M9,1V2h1V9h2V2h1V1Z"/><path class="cls-1" d="M14,1V9h2V6h1V5H16V2h1V1Z"/><path class="cls-1" d="M28,1H24V9h2V6h2V5h1V2H28ZM27,5H26V2h1Z"/><path class="cls-1" d="M34,1H30V9h2V6h1V9h2V6H34V5h1V2H34ZM33,5H32V2h1Z"/><path class="cls-1" d="M40,1H37V2H36V8h1V9h3V8h1V2H40ZM39,8H38V2h1Z"/><path class="cls-1" d="M45,1V8H44V6H42V8h1V9h3V8h1V1Z"/><path class="cls-1" d="M48,1V9h3V8H50V5h1V4H50V2h1V1Z"/><path class="cls-1" d="M56,1H53V2H52V8h1V9h3V8h1V6H55V8H54V2h1V4h2V2H56Z"/><path class="cls-1" d="M58,1V2h1V9h2V2h1V1Z"/><path class="cls-1" d="M67,1H64V2H63V5h1V6h2V8H65V7H63V8h1V9h3V8h1V5H67V4H65V2h1V3h2V2H67Z"/><path class="cls-1" d="M79,1H76V2H75V9h2V2h1V9h2V2H79Z"/><path class="cls-1" d="M88,5h1V4H88V1H86V9h3V8H88Z"/><path class="cls-1" d="M84,1H82V8H81V9h4V8H84Z"/><path class="cls-2" d="M20,0V2h2V8H20v2H72V8H70V2h2V0Zm4,9V1h4V2h1V5H28V6H26V9Zm9,0V6H32V9H30V1h4V2h1V5H34V6h1V9Zm4,0V8H36V2h1V1h3V2h1V8H40V9Zm6,0V8H42V6h2V8h1V1h2V8H46V9Zm5,0V1h3V2H50V4h1V5H50V8h1V9Zm5,0V8H52V2h1V1h3V2h1V4H55V2H54V8h1V6h2V8H56V9Zm7,0H59V2H58V1h4V2H61V9Zm4,0V8H63V7h2V8h1V6H64V5H63V2h1V1h3V2h1V3H66V2H65V4h2V5h1V8H67V9Z"/><path class="cls-2" d="M32,5h1V2H32Z"/><path class="cls-2" d="M38,8h1V2H38Z"/><path class="cls-2" d="M27,2H26V5h1Z"/><path class="cls-3" d="M74,0V2H72V8h2v2H92V0Zm5,9H78V2H77V9H75V2h1V1h3V2h1V9Zm5,0H81V8h1V1h2V8h1V9Zm4,0H86V1h2V4h1V5H88V8h1V9Z"/><path class="cls-3" d="M18,2V0H0V10H18V8h2V2ZM6,9H4V8H3V1H5V8H6V1H8V8H7V9Zm5,0H10V2H9V1h4V2H12V9Zm4,0H14V1h3V2H16V5h1V6H16V9Z"/></g></g></svg>