<svg xmlns="http://www.w3.org/2000/svg" viewBox="0 0 107 13"><defs><style>.cls-1{fill:#fff;}</style></defs><g id="Layer_2" data-name="Layer 2"><g id="Layer_1-2" data-name="Layer 1"><path class="cls-1" d="M86,0V1h4V11h17V0Zm6,7h3V8h1V6H92V2h7V4H96V3H95V5h4V9H92ZM15,2H0V13H17V2Zm0,3V9H11v2H8V4h7ZM39,2H30V12H26v1H41V2Zm0,3v6H32V4h7ZM54,2V12H50v1H65V2Zm9,3H59V7h2V8H59v2h4v1H56V4h7ZM78,2V12H74v1H89V2Zm9,3H85v6H82V5H80V4h7ZM23,3h1V6H23V3ZM11,5h1V8H11V5ZM35,5h1v5H35V5Zm-6,6V0H14V1h4V11ZM24,8V7H23V9H20V2h7V6H26V7h1V9H24Zm29,3V0H38V1h4V11ZM44,6h3V8h1V2h3V9H44Zm31,5h2V0H62V1h4V11ZM68,2h7V3H71V8h4V9H68Z"/></g></g></svg>