<svg xmlns="http://www.w3.org/2000/svg" viewBox="0 0 92 14"><defs><style>.cls-1{fill:#fff;}</style></defs><g id="Layer_2" data-name="Layer 2"><g id="Layer_1-2" data-name="Layer 1"><path class="cls-1" d="M0,0V1H1V9H0v1H4V9H3V5H5V4H3V1H5V2H6V0Z"/><path class="cls-1" d="M19,0V1h1V6H19V2H18V1H17V0H14V1h1V9H14v1h4V9H17V4h1V8h1V9h1v1h3V9H22V1h1V0Z"/><path class="cls-1" d="M41,0H35V1h1V9H35v1h4V9H38V6h3V5h1V1H41ZM40,5H38V1h2Z"/><path class="cls-1" d="M75,0H71V1H70V9h1v1h4V9h1V7H74V9H72V1h2V3h2V1H75Z"/><path class="cls-1" d="M58,1V2h1V12H58v1H57v1h3V13h1V2h1V1Z"/><path class="cls-1" d="M12,2H8V3H7v8H8v1h4V11h1V3H12ZM11,4v7H9V3h2Z"/><path class="cls-1" d="M24,2V4h1V3h2v8H26v1h4V11H29V3h2V4h1V2Z"/><path class="cls-1" d="M63,2V3h1v8H63v1h6V10H68v1H66V7h2V6H66V3h2V4h1V2Z"/><path class="cls-1" d="M77,2V4h1V3h2v8H79v1h4V11H82V3h2V4h1V2Z"/><path class="cls-1" d="M91,2V1H87V2H86V5h1V6h3v4H88V7H86v3h1v1h4V10h1V6H91V5H88V2h2V4h2V2Z"/><path class="cls-1" d="M57,8V1H56V0H52V1H51V9h1v1h4V9h1ZM54,9H53V1h2V9Z"/><path class="cls-1" d="M50,10V8H49V7h1V3H49V2H43V3h1v8H43v1h4V11H46V8h2v3h1v1h2V11H50ZM46,7V3h2V7Z"/></g></g></svg>