<svg xmlns="http://www.w3.org/2000/svg" viewBox="0 0 73 7"><defs><style>.cls-1{fill:#fff;}</style></defs><g id="Layer_2" data-name="Layer 2"><g id="Layer_1-2" data-name="Layer 1"><path class="cls-1" d="M5,1V6h5V1ZM8,5H7V2H8Z"/><path class="cls-1" d="M33,1V6h2V2h1V1Z"/><path class="cls-1" d="M21,0H19V6h3V5H21V2h1V1H21Z"/><path class="cls-1" d="M0,0V6H2V4H3V3H2V1H3V0Z"/><path class="cls-1" d="M12,1V6h2V2h1V6h2V1Z"/><path class="cls-1" d="M26,0V6h2V5h3V0Zm3,4H28V1h1Z"/><path class="cls-1" d="M65,0H63V6h3V5H65V2h1V1H65Z"/><path class="cls-1" d="M38,1V6h5V1Zm3,4H40V2h1Z"/><path class="cls-1" d="M56,1V6h5V4H59V5H58V2h1V3h2V1Z"/><path class="cls-1" d="M49,1V6h5V5H51V4h3V1Zm3,2H51V2h1Z"/><path class="cls-1" d="M73,2V1H68V4h3V5H68V6h5V3H70V2Z"/><path class="cls-1" d="M45,6H44V7h3V2H45Z"/><rect class="cls-1" x="45" width="2" height="1"/></g></g></svg>