<svg xmlns="http://www.w3.org/2000/svg" viewBox="0 0 62 13"><defs><style>.cls-1{fill:#fff;}.cls-2{fill:#ff0;}</style></defs><g id="Layer_2" data-name="Layer 2"><g id="Layer_1-2" data-name="Layer 1"><path class="cls-1" d="M14,0V2H13V3H2V2H1V0H0V3H1V4H14V3h1V0Z"/><path class="cls-1" d="M0,5V6H7V8H8V6h7V5Z"/><path class="cls-1" d="M0,9v4H1V12H11V11H1V10H15V9Z"/><path class="cls-2" d="M35,6h2V1h1V0H34V1h1Z"/><path class="cls-2" d="M19,6V4h1V3H19V1h2V0H17V6Z"/><path class="cls-2" d="M23,6h3V5h1V1H26V0H23V1H22V5h1Zm1-5h1V5H24Z"/><path class="cls-2" d="M29,3h1V4h1V5h1V6h1V0H32V2H31V1H30V0H28V6h1Z"/><path class="cls-2" d="M21,7H17v6h2V11h2V10h1V8H21Zm-1,3H19V8h1Z"/><path class="cls-2" d="M27,7H23v6h2V11h1v2h2V11H27V10h1V8H27Zm-1,3H25V8h1Z"/><path class="cls-2" d="M33,7H30V8H29v4h1v1h3V12h1V8H33Zm-1,5H31V8h1Z"/><path class="cls-2" d="M36,7V8h2v4H37V11H35v1h1v1h3V12h1V7Z"/><path class="cls-2" d="M41,7v6h4V12H43V10h1V9H43V8h2V7Z"/><path class="cls-2" d="M50,7H47V8H46v4h1v1h3V12h1V11H49v1H48V8h1V9h2V8H50Z"/><path class="cls-2" d="M52,7V8h1v5h2V8h1V7Z"/><path class="cls-2" d="M62,9V8H61V7H58V8H57v2h1v1h2v1H57v1h4V12h1V10H59V8h1V9Z"/></g></g></svg>