<svg xmlns="http://www.w3.org/2000/svg" viewBox="0 0 110 19"><defs><style>.cls-1{fill:aqua;}.cls-2{fill:blue;}</style></defs><g id="Layer_2" data-name="Layer 2"><g id="Layer_1-2" data-name="Layer 1"><path class="cls-1" d="M5,0H2V1H1V2H0V6H4V5H5V4H7V0Z"/><path class="cls-1" d="M32,2V0H28V6h7V2Z"/><path class="cls-1" d="M55,2H52V3H51V6h6V2Z"/><path class="cls-1" d="M68,2V6h4V2Z"/><path class="cls-1" d="M91,2H85V3H84V4H83V6h9V3H91Z"/><path class="cls-1" d="M98,2H97V0H93V6h7V2Z"/><path class="cls-1" d="M16,3H15V2H10V3H9V4H8V6h9V4H16Z"/><path class="cls-1" d="M26,3H25V2H20V3H19V4H18V6h9V4H26Z"/><path class="cls-1" d="M49,3H48V2H41V6h9V4H49Z"/><path class="cls-1" d="M66,3H65V2H60V3H59V4H58V6h9V4H66Z"/><path class="cls-1" d="M81,3H80V2H75V3H74V4H73V6h9V4H81Z"/><path class="cls-1" d="M109,3V2h-7V3h-1V6h9V3Z"/><path class="cls-2" d="M0,7v7H4V11H6V7Z"/><path class="cls-2" d="M13,7v3H12V7H8v5H9v1h1v1h5V13h1V12h1V7Z"/><path class="cls-2" d="M18,7v7h4V7Z"/><path class="cls-2" d="M23,7v7h4V7Z"/><path class="cls-2" d="M46,7v3H45V7H41V17h4V14h3V13h1V12h1V7Z"/><path class="cls-2" d="M51,7v7h4V7Z"/><path class="cls-2" d="M68,7v8H67v4h4V18h1V7Z"/><path class="cls-2" d="M73,7v5h1v1h1v1h5V13h1V12h1V9H78v1H77V8h5V7Z"/><path class="cls-2" d="M109,8V7h-8V8h1V9h4v1h-5v3h1v1h7V13h1V8Z"/><path class="cls-2" d="M32,10V7H28v6h1v1h6V10Z"/><path class="cls-2" d="M87,10V7H83v5h1v1h1v1h6V13h1V10Z"/><path class="cls-2" d="M97,10V7H93v6h1v1h6V10Z"/><path class="cls-2" d="M67,11V7H63v3H62V7H58v5h1v1h1v1h5V13h1V12h1Z"/></g></g></svg>