<svg xmlns="http://www.w3.org/2000/svg" viewBox="0 0 82 9"><defs><style>.cls-1{fill:#fff;}</style></defs><g id="Layer_2" data-name="Layer 2"><g id="Layer_1-2" data-name="Layer 1"><path class="cls-1" d="M3,1H6V0H0V7H3V4H5V3H3Z"/><path class="cls-1" d="M82,3V2H76V5h5V6H76V7h6V4H79V3Z"/><path class="cls-1" d="M29,0V7h3V5h3V0Zm5,4H32V1h2Z"/><path class="cls-1" d="M6,2V7h6V2Zm5,4H9V3h2Z"/><path class="cls-1" d="M49,2H43V7h6ZM48,6H46V3h2Z"/><path class="cls-1" d="M62,2V7h6V6H65V3h3V2Z"/><path class="cls-1" d="M55,2V7h6V6H58V5h3V2Zm5,2H58V3h2Z"/><path class="cls-1" d="M24,1H21V2H20V3h1V7h5V6H24V3h2V2H24Z"/><path class="cls-1" d="M73,1H70V2H69V3h1V7h5V6H73V3h2V2H73Z"/><path class="cls-1" d="M50,2V3h1V8H49V9h5V2Z"/><rect class="cls-1" x="51" width="3" height="1"/><path class="cls-1" d="M13,2V7h3V3h2V7h1V2Z"/><path class="cls-1" d="M36,2V7h3V3h2V4h1V2Z"/></g></g></svg>