<svg xmlns="http://www.w3.org/2000/svg" viewBox="0 0 136 16"><defs><style>.cls-1{fill:red;}.cls-2{fill:#fff;}</style></defs><g id="Layer_2" data-name="Layer 2"><g id="Layer_1-2" data-name="Layer 1"><path class="cls-1" d="M8,0V10H7v1H6V10H5V0H3V11H4v1H5v1H8V12H9V11h1V2H40V0Z"/><path class="cls-1" d="M11,3v9H10v1H9v1H4V13H3V12H2V0H0V13H1v1H2v1H3v1h7V15h1V14h1V13h1V5h4V16h2V3Z"/><path class="cls-1" d="M20,3V16h2V5h4V16h2V3Z"/><path class="cls-1" d="M29,3V9h7V7H31V5h9V3Z"/><path class="cls-1" d="M34,10H29v6h2V12h5V10Z"/><path class="cls-2" d="M86,0H80V4h4v8H82V10H78v4h2v2h6V14h2V0Z"/><path class="cls-2" d="M96,0H90V16h8V12H94V10h2V6H94V4h4V0Z"/><path class="cls-2" d="M112,0V4h4V16h4V4h4V0Z"/><path class="cls-2" d="M128,0V2h-2V8h2v2h4v2h-6v4h8V14h2V8h-2V6h-4V4h6V0Z"/><path class="cls-2" d="M50,2V0H42V16h4V12h4V10h2V2ZM48,8H46V4h2Z"/><path class="cls-2" d="M62,2V0H54V16h4V12h2v4h4V10H62V8h2V2ZM60,8H58V4h2Z"/><path class="cls-2" d="M74,2V0H68V2H66V14h2v2h6V14h2V2ZM72,12H70V4h2Z"/><path class="cls-2" d="M108,2V0h-6V2h-2V14h2v2h6V14h2V10h-4v2h-2V4h2V6h4V2Z"/></g></g></svg>