<?xml version="1.0" encoding="utf-8"?>
<!-- Generator: Adobe Illustrator 25.4.1, SVG Export Plug-In . SVG Version: 6.00 Build 0)  -->
<svg version="1.1" id="Layer_1" xmlns="http://www.w3.org/2000/svg" xmlns:xlink="http://www.w3.org/1999/xlink" x="0px" y="0px"
	 viewBox="0 0 74 8" style="enable-background:new 0 0 74 8;" xml:space="preserve">
<style type="text/css">
	.st0{fill:#00FFFF;}
	.st1{fill:#FF0000;}
</style>
<g id="Layer_2_00000041256092065650800720000000885097871085190052_">
	<g id="Layer_1-2">
		<path class="st0" d="M15,0h-3v8h2V6h2V5h1V1h-1V0H15z M15,3v1h-1V2h1V3z"/>
		<path class="st0" d="M31,0h-2v1h-1v7h2V6h1v2h2V1h-1V0H31z M31,3v1h-1V2h1V3z"/>
		<path class="st0" d="M37,0h-2v1h-1v6h1v1h3V7h1V5h-2v1h-1V2h1v1h2V1h-1V0H37z"/>
		<path class="st1" d="M52,0h-1v8h2V4h1v1h1v3h2V0h-2v2h-1V1h-1V0H52z"/>
		<path class="st1" d="M61,0h-3v8h4V7h1V1h-1V0H61z M61,3v3h-1V2h1V3z"/>
		<path class="st1" d="M72,0v3h-1V0h-2v4h1v1h-1v3h2V5h1v3h2V5h-1V4h1V0H72z"/>
		<path class="st0" d="M7,1V0H5v4h1v1h1v3h2V5h1V4h1V0H9v3H7V1z"/>
		<path class="st0" d="M21,2h1V0h-4v8h4V6h-2V5h2V3h-2V2H21z"/>
		<path class="st0" d="M26,2h1V0h-4v8h2V5h2V3h-2V2H26z"/>
		<path class="st0" d="M43,2h1V0h-4v8h4V6h-2V5h1V3h-1V2H43z"/>
		<path class="st1" d="M67,2h1V0h-4v8h4V6h-2V5h2V3h-2V2H67z"/>
		<path class="st0" d="M1,3v5h2V2h1V0H0v2h1V3z"/>
		<path class="st1" d="M50,8V0h-2v8H50z"/>
	</g>
</g>
</svg>
