<svg xmlns="http://www.w3.org/2000/svg" viewBox="0 0 74 12"><defs><style>.cls-1{fill:#fff;}.cls-2{fill:aqua;}.cls-3{fill:red;}</style></defs><g id="Layer_2" data-name="Layer 2"><g id="Layer_1-2" data-name="Layer 1"><path class="cls-1" d="M73,0H0V1H74V0Z"/><path class="cls-2" d="M15,2H12v8h2V8h2V7h1V3H16V2Zm0,3V6H14V4h1Z"/><path class="cls-2" d="M31,2H29V3H28v7h2V8h1v2h2V3H32V2Zm0,3V6H30V4h1Z"/><path class="cls-2" d="M37,2H35V3H34V9h1v1h3V9h1V7H37V8H36V4h1V5h2V3H38V2Z"/><path class="cls-3" d="M52,2H51v8h2V6h1V7h1v3h2V2H55V4H54V3H53V2Z"/><path class="cls-3" d="M61,2H58v8h4V9h1V3H62V2Zm0,3V8H60V4h1Z"/><path class="cls-3" d="M72,2V5H71V2H69V6h1V7H69v3h2V7h1v3h2V7H73V6h1V2Z"/><path class="cls-2" d="M7,3V2H5V6H6V7H7v3H9V7h1V6h1V2H9V5H7Z"/><path class="cls-2" d="M21,4h1V2H18v8h4V8H20V7h2V5H20V4Z"/><path class="cls-2" d="M26,4h1V2H23v8h2V7h2V5H25V4Z"/><path class="cls-2" d="M43,4h1V2H40v8h4V8H42V7h1V5H42V4Z"/><path class="cls-3" d="M67,4h1V2H64v8h4V8H66V7h2V5H66V4Z"/><path class="cls-2" d="M1,5v5H3V4H4V2H0V4H1Z"/><path class="cls-3" d="M50,10V2H48v8Z"/><path class="cls-1" d="M72,11H0v1H74V11Z"/></g></g></svg>