<svg xmlns="http://www.w3.org/2000/svg" viewBox="0 0 104 9"><defs><style>.cls-1{fill:#fff;}.cls-2{fill:aqua;}.cls-3{fill:blue;}</style></defs><g id="Layer_2" data-name="Layer 2"><g id="Layer_1-2" data-name="Layer 1"><path class="cls-1" d="M6,0H0V2H1V1H8V0Z"/><path class="cls-1" d="M11,0H9V2h1V1h1Z"/><path class="cls-1" d="M15,0V1h2V0Z"/><path class="cls-1" d="M23,0H18V2h1V1h5V0Z"/><path class="cls-1" d="M31,0H27V1h5V0Z"/><path class="cls-1" d="M38,0H34V2h1V1h5V0Z"/><path class="cls-1" d="M46,0H42V1h5V0Z"/><path class="cls-1" d="M54,0H50V1h5V0Z"/><path class="cls-1" d="M62,0H58V1h5V0Z"/><path class="cls-1" d="M69,0V1h2V0Z"/><path class="cls-1" d="M73,0H72V2h1V1h1V0Z"/><path class="cls-1" d="M76,0V2h1V1h1V0Z"/><path class="cls-1" d="M84,0H79V2h1V1h5V0Z"/><path class="cls-1" d="M92,0H88V1h5V0Z"/><path class="cls-1" d="M96,0H95V1h2V0Z"/><path class="cls-1" d="M102,0h-1V1h2V0Z"/><rect class="cls-1" x="24" y="1" width="1" height="1"/><rect class="cls-1" x="26" y="1" width="1" height="1"/><rect class="cls-1" x="32" y="1" width="1" height="1"/><rect class="cls-1" x="41" y="1" width="1" height="1"/><rect class="cls-1" x="47" y="1" width="1" height="1"/><rect class="cls-1" x="49" y="1" width="1" height="1"/><rect class="cls-1" x="55" y="1" width="1" height="1"/><rect class="cls-1" x="57" y="1" width="1" height="1"/><rect class="cls-1" x="63" y="1" width="1" height="1"/><rect class="cls-1" x="74" y="1" width="1" height="1"/><rect class="cls-1" x="85" y="1" width="1" height="1"/><rect class="cls-1" x="87" y="1" width="1" height="1"/><rect class="cls-1" x="93" y="1" width="1" height="1"/><rect class="cls-1" x="97" y="1" width="1" height="1"/><rect class="cls-1" x="100" y="1" width="1" height="1"/><rect class="cls-1" x="75" y="2" width="1" height="1"/><path class="cls-1" d="M98,2V3h2V2Z"/><rect class="cls-1" x="11" y="3" width="1" height="1"/><rect class="cls-1" x="14" y="3" width="1" height="1"/><path class="cls-1" d="M30,4V3H28V4Z"/><path class="cls-1" d="M61,4V3H59V4Z"/><path class="cls-1" d="M91,4V3H89V4Z"/><path class="cls-1" d="M12,4V5h2V4Z"/><path class="cls-1" d="M21,4H20V5h3V4Z"/><path class="cls-1" d="M37,4H36V5h3V4Z"/><path class="cls-1" d="M31,5V6h2V5Z"/><path class="cls-1" d="M44,5H43V6h3V5Z"/><path class="cls-1" d="M54,5V6h2V5Z"/><path class="cls-1" d="M62,5V6h2V5Z"/><path class="cls-1" d="M92,5V6h2V5Z"/><rect class="cls-1" x="96" y="5" width="1" height="1"/><rect class="cls-1" x="101" y="5" width="1" height="1"/><path class="cls-1" d="M29,6H28V7h3V6Z"/><path class="cls-1" d="M52,6H51V7h3V6Z"/><path class="cls-1" d="M60,6H59V7h3V6Z"/><path class="cls-1" d="M82,6H81V7h3V6Z"/><path class="cls-1" d="M90,6H89V7h3V6Z"/><rect class="cls-1" x="95" y="6" width="1" height="1"/><rect class="cls-1" x="102" y="6" width="1" height="1"/><path class="cls-2" d="M6,1H1V2H3V8H5V2H8V1Z"/><path class="cls-2" d="M15,1V4H14V5H12V4H11V1H10V2H9V4h1V5h1V6h1V8h2V6h1V5h1V4h1V1Z"/><path class="cls-2" d="M24,1H19V2H18V8h2V6h4V5h1V2H24ZM23,3V5H20V2h3Z"/><path class="cls-2" d="M32,1H27V2H26V7h1V8h5V7h1V6H31V7H28V5h2V4H28V2h3V3h2V2H32Z"/><path class="cls-2" d="M38,1H35V2H34V8h2V2h4V1Z"/><path class="cls-2" d="M47,1H42V2H41V8h2V2h3V8h2V2H47Z"/><path class="cls-2" d="M55,1H50V2H49V7h1V8h5V7h1V6H54V7H51V2h3V3h2V2H55Z"/><path class="cls-2" d="M63,1H58V2H57V7h1V8h5V7h1V6H62V7H59V5h2V4H59V2h3V3h2V2H63Z"/><path class="cls-2" d="M69,1V8h2V1Z"/><path class="cls-2" d="M77,2H76V3H75V2H74V1H73V2H72V8h2V4h1V5h1V8h2V1H77Z"/><path class="cls-2" d="M85,1H80V2H79V8h6V7h1V2H85ZM84,3V7H81V2h3Z"/><path class="cls-2" d="M93,1H88V2H87V7h1V8h5V7h1V6H92V7H89V5h2V4H89V2h3V3h2V2H93Z"/><path class="cls-2" d="M101,4V3h1V2h1V1h-2V2h-1V3H98V2H97V1H95V2h1V3h1V6H96V7H95V8h2V7h1V6h2V7h1V8h2V7h-1V6h-1Z"/><path class="cls-3" d="M8,2H5V8H4V9H6V3H9V1H8Z"/><path class="cls-3" d="M11,2V3h1V1H11Z"/><path class="cls-3" d="M17,2V4H16V5H15V6H14V8H13V9h2V7h1V6h1V5h1V1H17Z"/><path class="cls-3" d="M40,2H36V4h1V3h4V1H40Z"/><path class="cls-3" d="M71,2V8H70V9h2V1H71Z"/><path class="cls-3" d="M78,2V8H77V9h2V1H78Z"/><path class="cls-3" d="M103,1V2h-1V3h-1V5h1V4h1V3h1V1Z"/><path class="cls-3" d="M1,2V3H3V2Z"/><path class="cls-3" d="M25,3V5H24V6H20V8H19V9h2V7h4V6h1V2H25Z"/><path class="cls-3" d="M30,3h1V2H28V3Z"/><path class="cls-3" d="M33,3H32V4h2V2H33Z"/><path class="cls-3" d="M44,2H43V5h1V3h2V2Z"/><path class="cls-3" d="M48,3V8H47V9h2V2H48Z"/><path class="cls-3" d="M56,3H55V4h2V2H56Z"/><path class="cls-3" d="M61,3h1V2H59V3Z"/><path class="cls-3" d="M64,3H63V4h2V2H64Z"/><path class="cls-3" d="M86,3V7H85V8H80V9h6V8h1V2H86Z"/><path class="cls-3" d="M91,3h1V2H89V3Z"/><path class="cls-3" d="M94,3H93V4h2V2H94Z"/><path class="cls-3" d="M21,3h2V2H20V4h1Z"/><path class="cls-3" d="M74,5V8H73V9h2V4H74Z"/><path class="cls-3" d="M30,6h1V4H30V5H28V6Z"/><path class="cls-3" d="M38,5H36V8H35V9h2V6h3V5Z"/><path class="cls-3" d="M52,5V3h2V2H51V6h1Z"/><path class="cls-3" d="M61,6h1V4H61V5H59V6Z"/><path class="cls-3" d="M82,5V3h2V2H81V6h1Z"/><path class="cls-3" d="M91,6h1V4H91V5H89V6Z"/><path class="cls-3" d="M33,7H32V8H28V9h5V8h1V6H33Z"/><path class="cls-3" d="M44,6H43V8H42V9h2V7h2V6Z"/><path class="cls-3" d="M56,7H55V8H51V9h5V8h1V6H56Z"/><path class="cls-3" d="M64,7H63V8H59V9h5V8h1V6H64Z"/><path class="cls-3" d="M94,7H93V8H89V9h5V8h1V6H94Z"/><path class="cls-3" d="M98,6V7H97V8H96V9h2V8h1V7h1V6Z"/><path class="cls-3" d="M103,8h-1V9h2V7h-1Z"/></g></g></svg>