<svg xmlns="http://www.w3.org/2000/svg" viewBox="0 0 32 30"><defs><style>.cls-1{fill:blue;}</style></defs><g id="Layer_2" data-name="Layer 2"><g id="Layer_1-2" data-name="Layer 1"><rect class="cls-1" x="22" y="2" width="6" height="2"/><polygon class="cls-1" points="2 24 2 6 4 6 4 4 0 4 0 26 4 26 4 24 2 24"/><rect class="cls-1" x="10" width="12" height="2"/><rect class="cls-1" x="4" y="26" width="6" height="2"/><rect class="cls-1" x="10" y="28" width="12" height="2"/><rect class="cls-1" x="4" y="2" width="6" height="2"/><rect class="cls-1" x="7" y="20" width="18" height="2"/><polygon class="cls-1" points="28 4 28 6 30 6 30 24 28 24 28 26 32 26 32 4 28 4"/><rect class="cls-1" x="7" y="8" width="18" height="2"/><rect class="cls-1" x="7" y="14" width="18" height="2"/><rect class="cls-1" x="22" y="26" width="6" height="2"/></g></g></svg>