<svg xmlns="http://www.w3.org/2000/svg" viewBox="0 0 86 23"><defs><style>.cls-1{fill:blue;}.cls-2{fill:#ff0;}</style></defs><g id="Layer_2" data-name="Layer 2"><g id="Layer_1-2" data-name="Layer 1"><polygon class="cls-1" points="85 3 85 2 84 2 83 2 82 2 81 2 80 2 80 3 79 3 79 4 78 4 78 5 77 5 77 4 77 3 76 3 76 2 76 1 75 1 74 1 73 1 72 1 72 2 71 2 71 3 71 4 70 4 69 4 68 4 67 4 66 4 66 5 65 5 65 6 64 6 64 5 63 5 62 5 61 5 60 5 59 5 59 6 58 6 58 5 58 4 58 3 58 2 58 1 57 1 56 1 55 1 55 2 54 2 54 3 53 3 53 4 53 5 53 6 53 7 52 7 51 7 50 7 49 7 48 7 47 7 47 8 46 8 46 9 45 9 44 9 43 9 42 9 41 9 41 8 41 7 41 6 41 5 41 4 41 3 41 2 40 2 40 1 39 1 39 0 38 0 37 0 36 0 35 0 35 1 34 1 33 1 33 2 32 2 32 3 31 3 31 4 30 4 30 5 30 6 30 7 30 8 31 8 31 9 31 10 31 11 31 12 31 13 31 14 31 15 31 16 31 17 31 18 31 19 31 20 31 21 31 22 32 22 33 22 34 22 35 22 35 21 36 21 36 20 36 19 36 18 36 17 36 16 36 15 36 14 37 14 37 13 38 13 38 14 38 15 38 16 38 17 38 18 38 19 38 20 38 21 39 21 40 21 41 21 42 21 42 20 43 20 43 19 43 18 43 17 43 16 43 15 43 14 44 14 44 15 44 16 44 17 44 18 44 19 45 19 45 20 46 20 47 20 48 20 49 20 50 20 50 19 51 19 51 20 51 21 51 22 52 22 53 22 54 22 55 22 55 21 56 21 56 20 57 20 57 19 58 19 58 18 59 18 60 18 61 18 62 18 63 18 63 17 64 17 65 17 66 17 67 17 68 17 69 17 69 16 70 16 70 15 71 15 72 15 72 16 73 16 74 16 75 16 76 16 77 16 77 15 78 15 79 15 80 15 81 15 82 15 83 15 83 14 84 14 84 13 85 13 85 12 86 12 86 11 86 10 86 9 86 8 86 7 86 6 86 5 86 4 86 3 85 3"/><polygon class="cls-1" points="28 10 27 10 27 9 27 8 28 8 28 7 28 6 28 5 28 4 27 4 27 3 27 2 26 2 25 2 24 2 23 2 23 3 22 3 22 4 22 5 22 6 21 6 20 6 19 6 19 7 18 7 17 7 16 7 15 7 14 7 13 7 12 7 11 7 11 6 11 5 11 4 11 3 11 2 10 2 9 2 8 2 7 2 7 3 6 3 5 3 5 4 4 4 3 4 3 5 2 5 1 5 1 6 0 6 0 7 0 8 0 9 0 10 0 11 1 11 1 12 0 12 0 13 0 14 0 15 0 16 0 17 1 17 1 18 1 19 1 20 1 21 1 22 1 23 2 23 3 23 4 23 5 23 5 22 6 22 6 21 6 20 6 19 6 18 6 17 6 16 6 15 7 15 7 16 7 17 7 18 7 19 8 19 8 20 9 20 10 20 11 20 12 20 13 20 13 19 14 19 15 19 16 19 17 19 18 19 18 18 19 18 20 18 21 18 22 18 22 17 23 17 24 17 25 17 26 17 27 17 28 17 28 16 29 16 29 15 29 14 30 14 30 13 30 12 30 11 30 10 29 10 28 10"/><polygon class="cls-2" points="56 3 55 3 55 4 55 5 56 5 57 5 57 4 57 3 57 2 56 2 56 3"/><polygon class="cls-2" points="84 3 83 3 82 3 81 3 81 4 80 4 80 5 79 5 79 6 79 7 79 8 80 8 80 9 81 9 82 9 83 9 83 10 82 10 82 11 81 11 81 10 80 10 79 10 79 11 79 12 80 12 80 13 81 13 82 13 83 13 83 12 84 12 84 11 85 11 85 10 85 9 85 8 84 8 84 7 83 7 82 7 81 7 81 6 82 6 82 5 83 5 83 6 84 6 85 6 85 5 85 4 84 4 84 3"/><polygon class="cls-2" points="10 6 10 5 10 4 10 3 9 3 8 3 8 4 7 4 6 4 6 5 5 5 4 5 4 6 3 6 2 6 2 7 2 8 2 9 3 9 3 10 3 11 3 12 2 12 2 13 2 14 2 15 3 15 3 16 3 17 3 18 3 19 3 20 3 21 4 21 5 21 5 20 5 19 5 18 5 17 5 16 5 15 5 14 6 14 6 13 7 13 7 12 8 12 8 11 8 10 7 10 6 10 6 11 5 11 5 10 5 9 5 8 6 8 6 7 7 7 8 7 8 6 9 6 10 6"/><polygon class="cls-2" points="70 5 69 5 68 5 67 5 67 6 66 6 66 7 65 7 65 8 65 9 65 10 65 11 65 12 65 13 65 14 66 14 66 15 67 15 68 15 69 15 69 14 70 14 70 13 71 13 71 12 71 11 70 11 69 11 69 12 68 12 68 13 67 13 67 12 67 11 67 10 67 9 67 8 68 8 68 7 69 7 69 8 70 8 71 8 71 7 71 6 70 6 70 5"/><path class="cls-2" d="M63,6H60V7H59V8H58v7h1v1h4V15h1V13H62v1H60V13h1V12h2V11h1V7H63Zm-3,5V9h1V8h1v2H61v1Z"/><polygon class="cls-2" points="20 7 20 8 19 8 19 9 18 9 18 8 17 8 16 8 16 9 16 10 16 11 16 12 16 13 16 14 16 15 16 16 16 17 17 17 18 17 18 16 18 15 18 14 18 13 18 12 18 11 19 11 19 10 20 10 20 11 20 12 20 13 20 14 20 15 20 16 21 16 22 16 22 15 22 14 22 13 22 12 22 11 22 10 22 9 22 8 22 7 21 7 20 7"/><polygon class="cls-2" points="55 7 54 7 54 8 53 8 53 9 53 10 54 10 55 10 55 11 55 12 55 13 55 14 55 15 55 16 55 17 54 17 54 18 53 18 53 19 53 20 54 20 55 20 55 19 56 19 56 18 57 18 57 17 57 16 57 15 57 14 57 13 57 12 57 11 57 10 57 9 57 8 57 7 56 7 55 7"/><path class="cls-2" d="M14,8H11V9H10v1H9v7h1v1h3V17h1V16h1V9H14Zm-1,3v4H12v1H11V11h1V10h1Z"/><path class="cls-2" d="M40,8V3H39V2H38V1H36V2H34V3H33V4H32V6h1V20h2V12h2V11h1V10h1V9h1ZM38,8H37V9H36v1H35V5h1V4h2V8Z"/><path class="cls-2" d="M51,8H48V9H47v1H46v7h1v1h3V17h1V16h1V9H51Zm-1,3v4H49v1H48V11h1V10h1Z"/><polygon class="cls-2" points="43 10 43 11 42 11 42 10 41 10 40 10 40 11 40 12 40 13 40 14 40 15 40 16 40 17 40 18 40 19 41 19 42 19 42 18 42 17 42 16 42 15 42 14 42 13 43 13 43 12 44 12 45 12 45 11 45 10 44 10 43 10"/><polygon class="cls-2" points="28 12 27 12 27 13 26 13 26 12 26 11 26 10 26 9 26 8 26 7 27 7 27 6 27 5 26 5 26 4 26 3 25 3 24 3 24 4 24 5 24 6 23 6 23 7 23 8 24 8 24 9 24 10 24 11 24 12 24 13 24 14 25 14 25 15 26 15 27 15 28 15 28 14 28 13 29 13 29 12 29 11 28 11 28 12"/><polygon class="cls-2" points="76 11 76 12 75 12 75 11 75 10 75 9 75 8 75 7 75 6 76 6 76 5 76 4 75 4 75 3 75 2 74 2 73 2 73 3 73 4 73 5 72 5 72 6 72 7 73 7 73 8 73 9 73 10 73 11 73 12 73 13 74 13 74 14 75 14 76 14 77 14 77 13 78 13 78 12 78 11 77 11 76 11"/></g></g></svg>