<svg xmlns="http://www.w3.org/2000/svg" viewBox="0 0 600.38 130.22"><defs><style>.cls-1{fill:#fff;}</style></defs><g id="Layer_2" data-name="Layer 2"><g id="Layer_7" data-name="Layer 7"><path class="cls-1" d="M24.48,22.22V54H38.72V76.22H24.48v54H0V0H42.89V22.22Z"/><path class="cls-1" d="M105,83.17h-1l11.81,47.05H91.33l-11.81-47H77.78v47.05H53.3V0h49.14c9.37,0,15.62,6.25,15.62,15.63V70.15C118.06,78,112.86,83.17,105,83.17ZM93.58,59V24.13a1.74,1.74,0,0,0-1.91-1.91H77.78V60.94H91.67A1.73,1.73,0,0,0,93.58,59Z"/><path class="cls-1" d="M192.55,0V130.22H168.07V106.78H153v23.44H128.48V15.63C128.48,6.25,134.73,0,144.11,0ZM153,84.56h15.11V22.22H155A2,2,0,0,0,153,24.31Z"/><path class="cls-1" d="M262.17,0V22.22H229.53a2,2,0,0,0-2.09,2.09v81.6a2,2,0,0,0,2.09,2.09h32.64v22.22H218.59c-9.38,0-15.63-6.25-15.63-15.62v-99C203,6.25,209.21,0,218.59,0Z"/><path class="cls-1" d="M322.41,22.22H309.74v108H285.26v-108H272.58V0h49.83Z"/><path class="cls-1" d="M372.41,108V0h24.48V130.22H348.45c-9.37,0-15.62-6.25-15.62-15.62V0h24.48V106.09a1.74,1.74,0,0,0,1.91,1.91Z"/><path class="cls-1" d="M459.05,83.17h-1l11.8,47.05H445.33l-11.81-47h-1.73v47.05H407.31V0h49.13c9.38,0,15.63,6.25,15.63,15.63V70.15C472.07,78,466.86,83.17,459.05,83.17ZM447.59,59V24.13a1.74,1.74,0,0,0-1.91-1.91H431.79V60.94h13.89A1.74,1.74,0,0,0,447.59,59Z"/><path class="cls-1" d="M507,22.22V54H521V76.22H507V108H525.2v22.22H482.48V0H525.2V22.22Z"/><path class="cls-1" d="M535.61,130.22V0h49.14c9.38,0,15.63,6.25,15.63,15.63v99c0,9.37-6.25,15.62-15.63,15.62Zm24.49-108V108h13.71a2,2,0,0,0,2.09-2.09V24.31a2,2,0,0,0-2.09-2.09Z"/></g></g></svg>