<svg xmlns="http://www.w3.org/2000/svg" viewBox="0 0 1002.07 86.23"><defs><style>.cls-1{fill:#fff;}</style></defs><g id="Layer_2" data-name="Layer 2"><g id="Layer_7" data-name="Layer 7"><path class="cls-1" d="M57.84,0,52.19,22.67H15.85L21.5,0ZM36.34,86.23H0L14.16,29.44H50.5Z"/><path class="cls-1" d="M192.73,0l-5.65,22.67H64.51L70.16,0ZM62.82,29.44H99.16L85,86.23H48.66Zm86.23,0h36.34L171.23,86.23H134.89Z"/><path class="cls-1" d="M235.74,22.67H180.92L186.57,0h54.82Zm84.54,6.77L306.12,86.23H183.55l14.16-56.79h36.34l-8.51,34.12h49.89l8.51-34.12ZM322,22.67H285.63L291.28,0h36.34Z"/><path class="cls-1" d="M339.94,0H462.51l-5.65,22.67H334.29ZM455.17,29.44l-5.68,22.79H363.25l-2.82,11.33h86.23L441,86.23H318.44L332.6,29.44Z"/><path class="cls-1" d="M597.4,0l-5.65,22.67H469.17L474.83,0Zm-101,86.23L510.6,29.44h36.34L532.78,86.23Z"/><path class="cls-1" d="M609.72,0H732.29l-5.65,22.67H604.06ZM725,29.44l-5.68,22.79H633l-2.82,11.33h86.23l-5.65,22.67H588.22l14.16-56.79Z"/><path class="cls-1" d="M726.13,0h141l-5.65,22.67h-141Zm128,52.23H808.82l36.86,34H804.9l-37-34-8.47,34H723.1l14.16-56.79H859.84Z"/><path class="cls-1" d="M879.49,0h122.58l-5.65,22.67H873.84Zm78.9,29.44h36.34L980.57,86.23H858l14.16-56.79h36.34L900,63.56h49.89Z"/></g></g></svg>