<?xml version="1.0" encoding="utf-8"?>
<!-- Generator: Adobe Illustrator 25.4.1, SVG Export Plug-In . SVG Version: 6.00 Build 0)  -->
<svg version="1.1" id="Layer_1" shape-rendering="crispEdges"
	 xmlns="http://www.w3.org/2000/svg" xmlns:xlink="http://www.w3.org/1999/xlink" x="0px" y="0px" viewBox="0 0 48 48"
	 style="enable-background:new 0 0 48 48;" xml:space="preserve">
<style type="text/css">
	.st0{fill:#FF0000;}
	.st1{fill:#FFF300;}
	.st2{fill:#FFFFFF;}
</style>
<g>
	<rect x="5" y="5" class="st0" width="1" height="1"/>
	<rect x="33" y="5" class="st0" width="1" height="1"/>
	<rect x="5" y="10" class="st0" width="1" height="1"/>
	<rect x="9" y="10" class="st0" width="1" height="1"/>
	<rect x="16" y="10" class="st0" width="1" height="1"/>
	<rect x="27" y="10" class="st0" width="1" height="1"/>
	<rect x="27" y="15" class="st0" width="1" height="1"/>
	<rect x="33" y="15" class="st0" width="1" height="1"/>
	<rect x="16" y="20" class="st0" width="1" height="1"/>
	<rect x="24" y="20" class="st0" width="1" height="1"/>
	<rect x="16" y="25" class="st0" width="1" height="1"/>
	<rect x="24" y="25" class="st0" width="1" height="1"/>
	<rect x="5" y="34" class="st0" width="1" height="1"/>
	<rect x="9" y="34" class="st0" width="1" height="1"/>
	<rect x="16" y="34" class="st0" width="1" height="1"/>
	<rect x="22" y="34" class="st0" width="1" height="1"/>
	<rect x="5" y="39" class="st0" width="1" height="1"/>
	<rect x="22" y="39" class="st0" width="1" height="1"/>
	<polygon class="st1" points="4,4 4,7 5,7 5,5 7,5 7,4 	"/>
	<polygon class="st1" points="32,4 32,5 34,5 34,7 35,7 35,4 	"/>
	<rect x="6" y="6" class="st1" width="1" height="1"/>
	<rect x="32" y="6" class="st1" width="1" height="1"/>
	<rect x="6" y="9" class="st1" width="1" height="1"/>
	<polygon class="st1" points="8,9 8,10 10,10 10,12 11,12 11,9 	"/>
	<polygon class="st1" points="15,9 15,12 16,12 16,10 18,10 18,9 	"/>
	<polygon class="st1" points="26,9 26,10 28,10 28,12 29,12 29,9 	"/>
	<polygon class="st1" points="5,11 5,9 4,9 4,12 7,12 7,11 	"/>
	<rect x="8" y="11" class="st1" width="1" height="1"/>
	<rect x="17" y="11" class="st1" width="1" height="1"/>
	<rect x="26" y="11" class="st1" width="1" height="1"/>
	<rect x="28" y="14" class="st1" width="1" height="1"/>
	<rect x="32" y="14" class="st1" width="1" height="1"/>
	<polygon class="st1" points="34,16 32,16 32,17 35,17 35,14 34,14 	"/>
	<polygon class="st1" points="27,16 27,14 26,14 26,17 29,17 29,16 	"/>
	<rect x="17" y="19" class="st1" width="1" height="1"/>
	<polygon class="st1" points="23,19 23,20 25,20 25,22 26,22 26,19 	"/>
	<polygon class="st1" points="16,21 16,19 15,19 15,22 18,22 18,21 	"/>
	<rect x="23" y="21" class="st1" width="1" height="1"/>
	<polygon class="st1" points="15,24 15,27 16,27 16,25 18,25 18,24 	"/>
	<rect x="23" y="24" class="st1" width="1" height="1"/>
	<polygon class="st1" points="25,26 23,26 23,27 26,27 26,24 25,24 	"/>
	<rect x="17" y="26" class="st1" width="1" height="1"/>
	<polygon class="st1" points="4,33 4,36 5,36 5,34 7,34 7,33 	"/>
	<rect x="8" y="33" class="st1" width="1" height="1"/>
	<polygon class="st1" points="10,35 8,35 8,36 11,36 11,33 10,33 	"/>
	<rect x="17" y="33" class="st1" width="1" height="1"/>
	<polygon class="st1" points="21,33 21,34 23,34 23,36 24,36 24,33 	"/>
	<rect x="6" y="35" class="st1" width="1" height="1"/>
	<polygon class="st1" points="16,35 16,33 15,33 15,36 18,36 18,35 	"/>
	<rect x="21" y="35" class="st1" width="1" height="1"/>
	<rect x="6" y="38" class="st1" width="1" height="1"/>
	<rect x="21" y="38" class="st1" width="1" height="1"/>
	<polygon class="st1" points="23,40 21,40 21,41 24,41 24,38 23,38 	"/>
	<polygon class="st1" points="5,40 5,38 4,38 4,41 7,41 7,40 	"/>
	<rect x="6" y="5" class="st2" width="27" height="1"/>
	<rect x="33" y="6" class="st2" width="1" height="9"/>
	<rect x="5" y="6" class="st2" width="1" height="4"/>
	<rect x="6" y="10" class="st2" width="3" height="1"/>
	<rect x="17" y="10" class="st2" width="10" height="1"/>
	<rect x="16" y="11" class="st2" width="1" height="9"/>
	<rect x="27" y="11" class="st2" width="1" height="4"/>
	<rect x="28" y="15" class="st2" width="5" height="1"/>
	<rect x="17" y="20" class="st2" width="7" height="1"/>
	<rect x="24" y="21" class="st2" width="1" height="4"/>
	<rect x="17" y="25" class="st2" width="7" height="1"/>
	<rect x="16" y="26" class="st2" width="1" height="8"/>
	<rect x="33" y="26" class="st2" width="1" height="1"/>
	<rect x="34" y="27" class="st2" width="1" height="1"/>
	<rect x="35" y="28" class="st2" width="1" height="1"/>
	<rect x="36" y="29" class="st2" width="1" height="1"/>
	<rect x="37" y="30" class="st2" width="1" height="1"/>
	<rect x="38" y="31" class="st2" width="1" height="1"/>
	<rect x="39" y="32" class="st2" width="1" height="1"/>
	<rect x="9" y="11" class="st2" width="1" height="23"/>
	<rect x="40" y="33" class="st2" width="1" height="1"/>
	<rect x="6" y="34" class="st2" width="3" height="1"/>
	<rect x="17" y="34" class="st2" width="5" height="1"/>
	<rect x="41" y="34" class="st2" width="1" height="1"/>
	<rect x="42" y="35" class="st2" width="1" height="1"/>
	<rect x="22" y="35" class="st2" width="1" height="4"/>
	<polygon class="st2" points="43,36 43,37 38,37 38,39 39,39 39,38 44,38 44,36 	"/>
	<rect x="5" y="35" class="st2" width="1" height="4"/>
	<rect x="35" y="38" class="st2" width="1" height="1"/>
	<rect x="6" y="39" class="st2" width="16" height="1"/>
	<rect x="34" y="39" class="st2" width="1" height="1"/>
	<rect x="36" y="39" class="st2" width="1" height="2"/>
	<polygon class="st2" points="32,26 33,26 33,25 32,25 32,24 31,24 31,42 33,42 33,41 32,41 	"/>
	<rect x="33" y="40" class="st2" width="1" height="1"/>
	<rect x="39" y="39" class="st2" width="1" height="2"/>
	<rect x="37" y="41" class="st2" width="1" height="2"/>
	<rect x="40" y="41" class="st2" width="1" height="2"/>
	<rect x="38" y="43" class="st2" width="2" height="1"/>
</g>
</svg>
