<?xml version="1.0" encoding="UTF-8" ?>
<svg version="1.1" width="48" height="48" xmlns="http://www.w3.org/2000/svg" shape-rendering="crispEdges">
<rect x="6" y="5" width="1" height="1" fill="#FFF300" />
<rect x="7" y="5" width="1" height="1" fill="#FFF300" />
<rect x="8" y="5" width="1" height="1" fill="#FFF300" />
<rect x="34" y="5" width="1" height="1" fill="#FFF300" />
<rect x="35" y="5" width="1" height="1" fill="#FFF300" />
<rect x="36" y="5" width="1" height="1" fill="#FFF300" />
<rect x="6" y="6" width="1" height="1" fill="#FFF300" />
<rect x="7" y="6" width="1" height="1" fill="#FF0000" />
<rect x="8" y="6" width="1" height="1" fill="#FFFFFF" />
<rect x="9" y="6" width="1" height="1" fill="#FFFFFF" />
<rect x="10" y="6" width="1" height="1" fill="#FFFFFF" />
<rect x="11" y="6" width="1" height="1" fill="#FFFFFF" />
<rect x="12" y="6" width="1" height="1" fill="#FFFFFF" />
<rect x="13" y="6" width="1" height="1" fill="#FFFFFF" />
<rect x="14" y="6" width="1" height="1" fill="#FFFFFF" />
<rect x="15" y="6" width="1" height="1" fill="#FFFFFF" />
<rect x="16" y="6" width="1" height="1" fill="#FFFFFF" />
<rect x="17" y="6" width="1" height="1" fill="#FFFFFF" />
<rect x="18" y="6" width="1" height="1" fill="#FFFFFF" />
<rect x="19" y="6" width="1" height="1" fill="#FFFFFF" />
<rect x="20" y="6" width="1" height="1" fill="#FFFFFF" />
<rect x="21" y="6" width="1" height="1" fill="#FFFFFF" />
<rect x="22" y="6" width="1" height="1" fill="#FFFFFF" />
<rect x="23" y="6" width="1" height="1" fill="#FFFFFF" />
<rect x="24" y="6" width="1" height="1" fill="#FFFFFF" />
<rect x="25" y="6" width="1" height="1" fill="#FFFFFF" />
<rect x="26" y="6" width="1" height="1" fill="#FFFFFF" />
<rect x="27" y="6" width="1" height="1" fill="#FFFFFF" />
<rect x="28" y="6" width="1" height="1" fill="#FFFFFF" />
<rect x="29" y="6" width="1" height="1" fill="#FFFFFF" />
<rect x="30" y="6" width="1" height="1" fill="#FFFFFF" />
<rect x="31" y="6" width="1" height="1" fill="#FFFFFF" />
<rect x="32" y="6" width="1" height="1" fill="#FFFFFF" />
<rect x="33" y="6" width="1" height="1" fill="#FFFFFF" />
<rect x="34" y="6" width="1" height="1" fill="#FFFFFF" />
<rect x="35" y="6" width="1" height="1" fill="#FF0000" />
<rect x="36" y="6" width="1" height="1" fill="#FFF300" />
<rect x="6" y="7" width="1" height="1" fill="#FFF300" />
<rect x="7" y="7" width="1" height="1" fill="#FFFFFF" />
<rect x="8" y="7" width="1" height="1" fill="#FFF300" />
<rect x="34" y="7" width="1" height="1" fill="#FFF300" />
<rect x="35" y="7" width="1" height="1" fill="#FFFFFF" />
<rect x="36" y="7" width="1" height="1" fill="#FFF300" />
<rect x="7" y="8" width="1" height="1" fill="#FFFFFF" />
<rect x="35" y="8" width="1" height="1" fill="#FFFFFF" />
<rect x="7" y="9" width="1" height="1" fill="#FFFFFF" />
<rect x="35" y="9" width="1" height="1" fill="#FFFFFF" />
<rect x="6" y="10" width="1" height="1" fill="#FFF300" />
<rect x="7" y="10" width="1" height="1" fill="#FFFFFF" />
<rect x="8" y="10" width="1" height="1" fill="#FFF300" />
<rect x="10" y="10" width="1" height="1" fill="#FFF300" />
<rect x="11" y="10" width="1" height="1" fill="#FFF300" />
<rect x="12" y="10" width="1" height="1" fill="#FFF300" />
<rect x="17" y="10" width="1" height="1" fill="#FFF300" />
<rect x="18" y="10" width="1" height="1" fill="#FFF300" />
<rect x="19" y="10" width="1" height="1" fill="#FFF300" />
<rect x="28" y="10" width="1" height="1" fill="#FFF300" />
<rect x="29" y="10" width="1" height="1" fill="#FFF300" />
<rect x="30" y="10" width="1" height="1" fill="#FFF300" />
<rect x="35" y="10" width="1" height="1" fill="#FFFFFF" />
<rect x="6" y="11" width="1" height="1" fill="#FFF300" />
<rect x="7" y="11" width="1" height="1" fill="#FF0000" />
<rect x="8" y="11" width="1" height="1" fill="#FFFFFF" />
<rect x="9" y="11" width="1" height="1" fill="#FFFFFF" />
<rect x="10" y="11" width="1" height="1" fill="#FFFFFF" />
<rect x="11" y="11" width="1" height="1" fill="#FF0000" />
<rect x="12" y="11" width="1" height="1" fill="#FFF300" />
<rect x="17" y="11" width="1" height="1" fill="#FFF300" />
<rect x="18" y="11" width="1" height="1" fill="#FF0000" />
<rect x="19" y="11" width="1" height="1" fill="#FFFFFF" />
<rect x="20" y="11" width="1" height="1" fill="#FFFFFF" />
<rect x="21" y="11" width="1" height="1" fill="#FFFFFF" />
<rect x="22" y="11" width="1" height="1" fill="#FFFFFF" />
<rect x="23" y="11" width="1" height="1" fill="#FFFFFF" />
<rect x="24" y="11" width="1" height="1" fill="#FFFFFF" />
<rect x="25" y="11" width="1" height="1" fill="#FFFFFF" />
<rect x="26" y="11" width="1" height="1" fill="#FFFFFF" />
<rect x="27" y="11" width="1" height="1" fill="#FFFFFF" />
<rect x="28" y="11" width="1" height="1" fill="#FFFFFF" />
<rect x="29" y="11" width="1" height="1" fill="#FF0000" />
<rect x="30" y="11" width="1" height="1" fill="#FFF300" />
<rect x="35" y="11" width="1" height="1" fill="#FFFFFF" />
<rect x="6" y="12" width="1" height="1" fill="#FFF300" />
<rect x="7" y="12" width="1" height="1" fill="#FFF300" />
<rect x="8" y="12" width="1" height="1" fill="#FFF300" />
<rect x="10" y="12" width="1" height="1" fill="#FFF300" />
<rect x="11" y="12" width="1" height="1" fill="#FFFFFF" />
<rect x="12" y="12" width="1" height="1" fill="#FFF300" />
<rect x="17" y="12" width="1" height="1" fill="#FFF300" />
<rect x="18" y="12" width="1" height="1" fill="#FFFFFF" />
<rect x="19" y="12" width="1" height="1" fill="#FFF300" />
<rect x="28" y="12" width="1" height="1" fill="#FFF300" />
<rect x="29" y="12" width="1" height="1" fill="#FFFFFF" />
<rect x="30" y="12" width="1" height="1" fill="#FFF300" />
<rect x="35" y="12" width="1" height="1" fill="#FFFFFF" />
<rect x="11" y="13" width="1" height="1" fill="#FFFFFF" />
<rect x="18" y="13" width="1" height="1" fill="#FFFFFF" />
<rect x="29" y="13" width="1" height="1" fill="#FFFFFF" />
<rect x="35" y="13" width="1" height="1" fill="#FFFFFF" />
<rect x="11" y="14" width="1" height="1" fill="#FFFFFF" />
<rect x="18" y="14" width="1" height="1" fill="#FFFFFF" />
<rect x="29" y="14" width="1" height="1" fill="#FFFFFF" />
<rect x="35" y="14" width="1" height="1" fill="#FFFFFF" />
<rect x="11" y="15" width="1" height="1" fill="#FFFFFF" />
<rect x="18" y="15" width="1" height="1" fill="#FFFFFF" />
<rect x="28" y="15" width="1" height="1" fill="#FFF300" />
<rect x="29" y="15" width="1" height="1" fill="#FFFFFF" />
<rect x="30" y="15" width="1" height="1" fill="#FFF300" />
<rect x="34" y="15" width="1" height="1" fill="#FFF300" />
<rect x="35" y="15" width="1" height="1" fill="#FFFFFF" />
<rect x="36" y="15" width="1" height="1" fill="#FFF300" />
<rect x="11" y="16" width="1" height="1" fill="#FFFFFF" />
<rect x="18" y="16" width="1" height="1" fill="#FFFFFF" />
<rect x="28" y="16" width="1" height="1" fill="#FFF300" />
<rect x="29" y="16" width="1" height="1" fill="#FF0000" />
<rect x="30" y="16" width="1" height="1" fill="#FFFFFF" />
<rect x="31" y="16" width="1" height="1" fill="#FFFFFF" />
<rect x="32" y="16" width="1" height="1" fill="#FFFFFF" />
<rect x="33" y="16" width="1" height="1" fill="#FFFFFF" />
<rect x="34" y="16" width="1" height="1" fill="#FFFFFF" />
<rect x="35" y="16" width="1" height="1" fill="#FF0000" />
<rect x="36" y="16" width="1" height="1" fill="#FFF300" />
<rect x="11" y="17" width="1" height="1" fill="#FFFFFF" />
<rect x="18" y="17" width="1" height="1" fill="#FFFFFF" />
<rect x="28" y="17" width="1" height="1" fill="#FFF300" />
<rect x="29" y="17" width="1" height="1" fill="#FFF300" />
<rect x="30" y="17" width="1" height="1" fill="#FFF300" />
<rect x="34" y="17" width="1" height="1" fill="#FFF300" />
<rect x="35" y="17" width="1" height="1" fill="#FFF300" />
<rect x="36" y="17" width="1" height="1" fill="#FFF300" />
<rect x="11" y="18" width="1" height="1" fill="#FFFFFF" />
<rect x="18" y="18" width="1" height="1" fill="#FFFFFF" />
<rect x="11" y="19" width="1" height="1" fill="#FFFFFF" />
<rect x="18" y="19" width="1" height="1" fill="#FFFFFF" />
<rect x="11" y="20" width="1" height="1" fill="#FFFFFF" />
<rect x="17" y="20" width="1" height="1" fill="#FFF300" />
<rect x="18" y="20" width="1" height="1" fill="#FFFFFF" />
<rect x="19" y="20" width="1" height="1" fill="#FFF300" />
<rect x="25" y="20" width="1" height="1" fill="#FFF300" />
<rect x="26" y="20" width="1" height="1" fill="#FFF300" />
<rect x="27" y="20" width="1" height="1" fill="#FFF300" />
<rect x="11" y="21" width="1" height="1" fill="#FFFFFF" />
<rect x="17" y="21" width="1" height="1" fill="#FFF300" />
<rect x="18" y="21" width="1" height="1" fill="#FF0000" />
<rect x="19" y="21" width="1" height="1" fill="#FFFFFF" />
<rect x="20" y="21" width="1" height="1" fill="#FFFFFF" />
<rect x="21" y="21" width="1" height="1" fill="#FFFFFF" />
<rect x="22" y="21" width="1" height="1" fill="#FFFFFF" />
<rect x="23" y="21" width="1" height="1" fill="#FFFFFF" />
<rect x="24" y="21" width="1" height="1" fill="#FFFFFF" />
<rect x="25" y="21" width="1" height="1" fill="#FFFFFF" />
<rect x="26" y="21" width="1" height="1" fill="#FF0000" />
<rect x="27" y="21" width="1" height="1" fill="#FFF300" />
<rect x="11" y="22" width="1" height="1" fill="#FFFFFF" />
<rect x="17" y="22" width="1" height="1" fill="#FFF300" />
<rect x="18" y="22" width="1" height="1" fill="#FFF300" />
<rect x="19" y="22" width="1" height="1" fill="#FFF300" />
<rect x="25" y="22" width="1" height="1" fill="#FFF300" />
<rect x="26" y="22" width="1" height="1" fill="#FFFFFF" />
<rect x="27" y="22" width="1" height="1" fill="#FFF300" />
<rect x="11" y="23" width="1" height="1" fill="#FFFFFF" />
<rect x="26" y="23" width="1" height="1" fill="#FFFFFF" />
<rect x="11" y="24" width="1" height="1" fill="#FFFFFF" />
<rect x="26" y="24" width="1" height="1" fill="#FFFFFF" />
<rect x="11" y="25" width="1" height="1" fill="#FFFFFF" />
<rect x="17" y="25" width="1" height="1" fill="#FFF300" />
<rect x="18" y="25" width="1" height="1" fill="#FFF300" />
<rect x="19" y="25" width="1" height="1" fill="#FFF300" />
<rect x="25" y="25" width="1" height="1" fill="#FFF300" />
<rect x="26" y="25" width="1" height="1" fill="#FFFFFF" />
<rect x="27" y="25" width="1" height="1" fill="#FFF300" />
<rect x="33" y="25" width="1" height="1" fill="#FFFFFF" />
<rect x="11" y="26" width="1" height="1" fill="#FFFFFF" />
<rect x="17" y="26" width="1" height="1" fill="#FFF300" />
<rect x="18" y="26" width="1" height="1" fill="#FF0000" />
<rect x="19" y="26" width="1" height="1" fill="#FFFFFF" />
<rect x="20" y="26" width="1" height="1" fill="#FFFFFF" />
<rect x="21" y="26" width="1" height="1" fill="#FFFFFF" />
<rect x="22" y="26" width="1" height="1" fill="#FFFFFF" />
<rect x="23" y="26" width="1" height="1" fill="#FFFFFF" />
<rect x="24" y="26" width="1" height="1" fill="#FFFFFF" />
<rect x="25" y="26" width="1" height="1" fill="#FFFFFF" />
<rect x="26" y="26" width="1" height="1" fill="#FF0000" />
<rect x="27" y="26" width="1" height="1" fill="#FFF300" />
<rect x="33" y="26" width="1" height="1" fill="#FFFFFF" />
<rect x="34" y="26" width="1" height="1" fill="#FFFFFF" />
<rect x="11" y="27" width="1" height="1" fill="#FFFFFF" />
<rect x="17" y="27" width="1" height="1" fill="#FFF300" />
<rect x="18" y="27" width="1" height="1" fill="#FFFFFF" />
<rect x="19" y="27" width="1" height="1" fill="#FFF300" />
<rect x="25" y="27" width="1" height="1" fill="#FFF300" />
<rect x="26" y="27" width="1" height="1" fill="#FFF300" />
<rect x="27" y="27" width="1" height="1" fill="#FFF300" />
<rect x="33" y="27" width="1" height="1" fill="#FFFFFF" />
<rect x="35" y="27" width="1" height="1" fill="#FFFFFF" />
<rect x="11" y="28" width="1" height="1" fill="#FFFFFF" />
<rect x="18" y="28" width="1" height="1" fill="#FFFFFF" />
<rect x="33" y="28" width="1" height="1" fill="#FFFFFF" />
<rect x="36" y="28" width="1" height="1" fill="#FFFFFF" />
<rect x="11" y="29" width="1" height="1" fill="#FFFFFF" />
<rect x="18" y="29" width="1" height="1" fill="#FFFFFF" />
<rect x="33" y="29" width="1" height="1" fill="#FFFFFF" />
<rect x="37" y="29" width="1" height="1" fill="#FFFFFF" />
<rect x="11" y="30" width="1" height="1" fill="#FFFFFF" />
<rect x="18" y="30" width="1" height="1" fill="#FFFFFF" />
<rect x="33" y="30" width="1" height="1" fill="#FFFFFF" />
<rect x="38" y="30" width="1" height="1" fill="#FFFFFF" />
<rect x="11" y="31" width="1" height="1" fill="#FFFFFF" />
<rect x="18" y="31" width="1" height="1" fill="#FFFFFF" />
<rect x="33" y="31" width="1" height="1" fill="#FFFFFF" />
<rect x="39" y="31" width="1" height="1" fill="#FFFFFF" />
<rect x="11" y="32" width="1" height="1" fill="#FFFFFF" />
<rect x="18" y="32" width="1" height="1" fill="#FFFFFF" />
<rect x="33" y="32" width="1" height="1" fill="#FFFFFF" />
<rect x="40" y="32" width="1" height="1" fill="#FFFFFF" />
<rect x="11" y="33" width="1" height="1" fill="#FFFFFF" />
<rect x="18" y="33" width="1" height="1" fill="#FFFFFF" />
<rect x="33" y="33" width="1" height="1" fill="#FFFFFF" />
<rect x="41" y="33" width="1" height="1" fill="#FFFFFF" />
<rect x="6" y="34" width="1" height="1" fill="#FFF300" />
<rect x="7" y="34" width="1" height="1" fill="#FFF300" />
<rect x="8" y="34" width="1" height="1" fill="#FFF300" />
<rect x="10" y="34" width="1" height="1" fill="#FFF300" />
<rect x="11" y="34" width="1" height="1" fill="#FFFFFF" />
<rect x="12" y="34" width="1" height="1" fill="#FFF300" />
<rect x="17" y="34" width="1" height="1" fill="#FFF300" />
<rect x="18" y="34" width="1" height="1" fill="#FFFFFF" />
<rect x="19" y="34" width="1" height="1" fill="#FFF300" />
<rect x="23" y="34" width="1" height="1" fill="#FFF300" />
<rect x="24" y="34" width="1" height="1" fill="#FFF300" />
<rect x="25" y="34" width="1" height="1" fill="#FFF300" />
<rect x="33" y="34" width="1" height="1" fill="#FFFFFF" />
<rect x="42" y="34" width="1" height="1" fill="#FFFFFF" />
<rect x="6" y="35" width="1" height="1" fill="#FFF300" />
<rect x="7" y="35" width="1" height="1" fill="#FF0000" />
<rect x="8" y="35" width="1" height="1" fill="#FFFFFF" />
<rect x="9" y="35" width="1" height="1" fill="#FFFFFF" />
<rect x="10" y="35" width="1" height="1" fill="#FFFFFF" />
<rect x="11" y="35" width="1" height="1" fill="#FF0000" />
<rect x="12" y="35" width="1" height="1" fill="#FFF300" />
<rect x="17" y="35" width="1" height="1" fill="#FFF300" />
<rect x="18" y="35" width="1" height="1" fill="#FF0000" />
<rect x="19" y="35" width="1" height="1" fill="#FFFFFF" />
<rect x="20" y="35" width="1" height="1" fill="#FFFFFF" />
<rect x="21" y="35" width="1" height="1" fill="#FFFFFF" />
<rect x="22" y="35" width="1" height="1" fill="#FFFFFF" />
<rect x="23" y="35" width="1" height="1" fill="#FFFFFF" />
<rect x="24" y="35" width="1" height="1" fill="#FF0000" />
<rect x="25" y="35" width="1" height="1" fill="#FFF300" />
<rect x="33" y="35" width="1" height="1" fill="#FFFFFF" />
<rect x="43" y="35" width="1" height="1" fill="#FFFFFF" />
<rect x="6" y="36" width="1" height="1" fill="#FFF300" />
<rect x="7" y="36" width="1" height="1" fill="#FFFFFF" />
<rect x="8" y="36" width="1" height="1" fill="#FFF300" />
<rect x="10" y="36" width="1" height="1" fill="#FFF300" />
<rect x="11" y="36" width="1" height="1" fill="#FFF300" />
<rect x="12" y="36" width="1" height="1" fill="#FFF300" />
<rect x="17" y="36" width="1" height="1" fill="#FFF300" />
<rect x="18" y="36" width="1" height="1" fill="#FFF300" />
<rect x="19" y="36" width="1" height="1" fill="#FFF300" />
<rect x="23" y="36" width="1" height="1" fill="#FFF300" />
<rect x="24" y="36" width="1" height="1" fill="#FFFFFF" />
<rect x="25" y="36" width="1" height="1" fill="#FFF300" />
<rect x="33" y="36" width="1" height="1" fill="#FFFFFF" />
<rect x="44" y="36" width="1" height="1" fill="#FFFFFF" />
<rect x="7" y="37" width="1" height="1" fill="#FFFFFF" />
<rect x="24" y="37" width="1" height="1" fill="#FFFFFF" />
<rect x="33" y="37" width="1" height="1" fill="#FFFFFF" />
<rect x="45" y="37" width="1" height="1" fill="#FFFFFF" />
<rect x="7" y="38" width="1" height="1" fill="#FFFFFF" />
<rect x="24" y="38" width="1" height="1" fill="#FFFFFF" />
<rect x="33" y="38" width="1" height="1" fill="#FFFFFF" />
<rect x="40" y="38" width="1" height="1" fill="#FFFFFF" />
<rect x="41" y="38" width="1" height="1" fill="#FFFFFF" />
<rect x="42" y="38" width="1" height="1" fill="#FFFFFF" />
<rect x="43" y="38" width="1" height="1" fill="#FFFFFF" />
<rect x="44" y="38" width="1" height="1" fill="#FFFFFF" />
<rect x="45" y="38" width="1" height="1" fill="#FFFFFF" />
<rect x="6" y="39" width="1" height="1" fill="#FFF300" />
<rect x="7" y="39" width="1" height="1" fill="#FFFFFF" />
<rect x="8" y="39" width="1" height="1" fill="#FFF300" />
<rect x="23" y="39" width="1" height="1" fill="#FFF300" />
<rect x="24" y="39" width="1" height="1" fill="#FFFFFF" />
<rect x="25" y="39" width="1" height="1" fill="#FFF300" />
<rect x="33" y="39" width="1" height="1" fill="#FFFFFF" />
<rect x="37" y="39" width="1" height="1" fill="#FFFFFF" />
<rect x="40" y="39" width="1" height="1" fill="#FFFFFF" />
<rect x="6" y="40" width="1" height="1" fill="#FFF300" />
<rect x="7" y="40" width="1" height="1" fill="#FF0000" />
<rect x="8" y="40" width="1" height="1" fill="#FFFFFF" />
<rect x="9" y="40" width="1" height="1" fill="#FFFFFF" />
<rect x="10" y="40" width="1" height="1" fill="#FFFFFF" />
<rect x="11" y="40" width="1" height="1" fill="#FFFFFF" />
<rect x="12" y="40" width="1" height="1" fill="#FFFFFF" />
<rect x="13" y="40" width="1" height="1" fill="#FFFFFF" />
<rect x="14" y="40" width="1" height="1" fill="#FFFFFF" />
<rect x="15" y="40" width="1" height="1" fill="#FFFFFF" />
<rect x="16" y="40" width="1" height="1" fill="#FFFFFF" />
<rect x="17" y="40" width="1" height="1" fill="#FFFFFF" />
<rect x="18" y="40" width="1" height="1" fill="#FFFFFF" />
<rect x="19" y="40" width="1" height="1" fill="#FFFFFF" />
<rect x="20" y="40" width="1" height="1" fill="#FFFFFF" />
<rect x="21" y="40" width="1" height="1" fill="#FFFFFF" />
<rect x="22" y="40" width="1" height="1" fill="#FFFFFF" />
<rect x="23" y="40" width="1" height="1" fill="#FFFFFF" />
<rect x="24" y="40" width="1" height="1" fill="#FF0000" />
<rect x="25" y="40" width="1" height="1" fill="#FFF300" />
<rect x="33" y="40" width="1" height="1" fill="#FFFFFF" />
<rect x="36" y="40" width="1" height="1" fill="#FFFFFF" />
<rect x="38" y="40" width="1" height="1" fill="#FFFFFF" />
<rect x="41" y="40" width="1" height="1" fill="#FFFFFF" />
<rect x="6" y="41" width="1" height="1" fill="#FFF300" />
<rect x="7" y="41" width="1" height="1" fill="#FFF300" />
<rect x="8" y="41" width="1" height="1" fill="#FFF300" />
<rect x="23" y="41" width="1" height="1" fill="#FFF300" />
<rect x="24" y="41" width="1" height="1" fill="#FFF300" />
<rect x="25" y="41" width="1" height="1" fill="#FFF300" />
<rect x="33" y="41" width="1" height="1" fill="#FFFFFF" />
<rect x="35" y="41" width="1" height="1" fill="#FFFFFF" />
<rect x="38" y="41" width="1" height="1" fill="#FFFFFF" />
<rect x="41" y="41" width="1" height="1" fill="#FFFFFF" />
<rect x="33" y="42" width="1" height="1" fill="#FFFFFF" />
<rect x="34" y="42" width="1" height="1" fill="#FFFFFF" />
<rect x="39" y="42" width="1" height="1" fill="#FFFFFF" />
<rect x="42" y="42" width="1" height="1" fill="#FFFFFF" />
<rect x="39" y="43" width="1" height="1" fill="#FFFFFF" />
<rect x="42" y="43" width="1" height="1" fill="#FFFFFF" />
<rect x="40" y="44" width="1" height="1" fill="#FFFFFF" />
<rect x="41" y="44" width="1" height="1" fill="#FFFFFF" />
</svg>