<svg xmlns="http://www.w3.org/2000/svg" viewBox="0 0 843.55 682.41"><defs><style>.cls-1{fill:#fff;}</style></defs><g id="Layer_2" data-name="Layer 2"><g id="Layer_1-2" data-name="Layer 1"><path class="cls-1" d="M116.67,0h0c0,29.27,53.73,53,83,53H401.19q0,8.24.09,16.85c.41,69.81.93,158-5.4,244.41H249.15c0,29.28,53.73,53,83,53H391c-7,62.58-18.42,122-37.17,170.09-33.23,85.28-101.51,92.06-187.31,92.06-84.74,0-134.78-25.82-165.87-65.06C-9.49,653,96.17,682.41,166.55,682.41c105.39,0,193.8-15.74,236.69-125.82,21.16-54.3,33.69-120.5,41.05-189.33h136.1c29.27,0,83-23.72,83-53H449c6.22-87.23,5.71-174.9,5.3-244.72q0-8.46-.09-16.54H760.55c29.27,0,83-23.73,83-53H116.67Z"/></g></g></svg>