<svg xmlns="http://www.w3.org/2000/svg" viewBox="0 0 906.56 745.41"><defs><style>.cls-1{fill:#fff;}</style></defs><g id="Layer_2" data-name="Layer 2"><g id="Layer_1-2" data-name="Layer 1"><path class="cls-1" d="M214.56,745.41c-51.7,0-120-14.6-156.52-55.58-19.6-22-27.76-48.62-24.25-79.19a15,15,0,0,1,10.79-12.72,15.26,15.26,0,0,1,4.11-.57A15,15,0,0,1,60.45,603c31.66,40,82.07,59.38,154.11,59.38,82.67,0,143.49-5.92,173.33-82.51,15.11-38.77,26.62-89,34.27-149.64h-42c-33.65,0-98-26.48-98-68a15,15,0,0,1,15-15H429.89c5.27-81.31,4.79-163,4.41-229.32,0-.65,0-1.29,0-1.94H247.68c-33.65,0-98-26.48-98-68a15,15,0,0,1,15-15H891.56a15,15,0,0,1,15,15c0,41.52-64.35,68-98,68H517.29v1.46c.39,66.12.87,147.42-4.26,229.8H711.4a15,15,0,0,1,15,15c0,41.52-64.35,68-98,68H505.72c-8.57,73-21.85,131.93-40.49,179.78-21.38,54.85-55,91.65-102.9,112.49C316,742.69,261.65,745.41,214.56,745.41Z"/><path class="cls-1" d="M213.56,744.41c-51.7,0-120-14.6-156.52-55.58-19.6-22-27.76-48.62-24.25-79.19a15,15,0,0,1,10.79-12.72,15.26,15.26,0,0,1,4.11-.57A15,15,0,0,1,59.45,602c31.66,40,82.07,59.38,154.11,59.38,82.67,0,143.49-5.92,173.33-82.51,15.11-38.77,26.62-89,34.27-149.64h-42c-33.65,0-98-26.48-98-68a15,15,0,0,1,15-15H428.89c5.27-81.31,4.79-163,4.41-229.32,0-.65,0-1.29,0-1.94H246.68c-33.65,0-98-26.48-98-68a15,15,0,0,1,15-15H890.56a15,15,0,0,1,15,15c0,41.52-64.35,68-98,68H516.29v1.46c.39,66.12.87,147.42-4.26,229.8H710.4a15,15,0,0,1,15,15c0,41.52-64.35,68-98,68H504.72c-8.57,73-21.85,131.93-40.49,179.78-21.38,54.85-55,91.65-102.9,112.49C315,741.69,260.65,744.41,213.56,744.41Z"/><path class="cls-1" d="M212.56,743.41c-51.7,0-120-14.6-156.52-55.58-19.6-22-27.76-48.62-24.25-79.19a15,15,0,0,1,10.79-12.72,15.26,15.26,0,0,1,4.11-.57A15,15,0,0,1,58.45,601c31.66,40,82.07,59.38,154.11,59.38,82.67,0,143.49-5.92,173.33-82.51,15.11-38.77,26.62-89,34.27-149.64h-42c-33.65,0-98-26.48-98-68a15,15,0,0,1,15-15H427.89c5.27-81.31,4.79-163,4.41-229.32,0-.65,0-1.29,0-1.94H245.68c-33.65,0-98-26.48-98-68a15,15,0,0,1,15-15H889.56a15,15,0,0,1,15,15c0,41.52-64.35,68-98,68H515.29v1.46c.39,66.12.87,147.42-4.26,229.8H709.4a15,15,0,0,1,15,15c0,41.52-64.35,68-98,68H503.72c-8.57,73-21.85,131.93-40.49,179.78-21.38,54.85-55,91.65-102.9,112.49C314,740.69,259.65,743.41,212.56,743.41Z"/><path class="cls-1" d="M211.56,742.41c-51.7,0-120-14.6-156.52-55.58-19.6-22-27.76-48.62-24.25-79.19a15,15,0,0,1,10.79-12.72,15.26,15.26,0,0,1,4.11-.57A15,15,0,0,1,57.45,600c31.66,40,82.07,59.38,154.11,59.38,82.67,0,143.49-5.92,173.33-82.51,15.11-38.77,26.62-89,34.27-149.64h-42c-33.65,0-98-26.48-98-68a15,15,0,0,1,15-15H426.89c5.27-81.31,4.79-163,4.41-229.32,0-.65,0-1.29,0-1.94H244.68c-33.65,0-98-26.48-98-68a15,15,0,0,1,15-15H888.56a15,15,0,0,1,15,15c0,41.52-64.35,68-98,68H514.29v1.46c.39,66.12.87,147.42-4.26,229.8H708.4a15,15,0,0,1,15,15c0,41.52-64.35,68-98,68H502.72c-8.57,73-21.85,131.93-40.49,179.78-21.38,54.85-55,91.65-102.9,112.49C313,739.69,258.65,742.41,211.56,742.41Z"/><path class="cls-1" d="M210.56,741.41c-51.7,0-120-14.6-156.52-55.58-19.6-22-27.76-48.62-24.25-79.19a15,15,0,0,1,10.79-12.72,15.26,15.26,0,0,1,4.11-.57A15,15,0,0,1,56.45,599c31.66,40,82.07,59.38,154.11,59.38,82.67,0,143.49-5.92,173.33-82.51,15.11-38.77,26.62-89,34.27-149.64h-42c-33.65,0-98-26.48-98-68a15,15,0,0,1,15-15H425.89c5.27-81.31,4.79-163,4.41-229.32,0-.65,0-1.29,0-1.94H243.68c-33.65,0-98-26.48-98-68a15,15,0,0,1,15-15H887.56a15,15,0,0,1,15,15c0,41.52-64.35,68-98,68H513.29v1.46c.39,66.12.87,147.42-4.26,229.8H707.4a15,15,0,0,1,15,15c0,41.52-64.35,68-98,68H501.72c-8.57,73-21.85,131.93-40.49,179.78-21.38,54.85-55,91.65-102.9,112.49C312,738.69,257.65,741.41,210.56,741.41Z"/><path class="cls-1" d="M209.56,740.41c-51.7,0-120-14.6-156.52-55.58-19.6-22-27.76-48.62-24.25-79.19a15,15,0,0,1,10.79-12.72,15.26,15.26,0,0,1,4.11-.57A15,15,0,0,1,55.45,598c31.66,40,82.07,59.38,154.11,59.38,82.67,0,143.49-5.92,173.33-82.51,15.11-38.77,26.62-89,34.27-149.64h-42c-33.65,0-98-26.48-98-68a15,15,0,0,1,15-15H424.89c5.27-81.31,4.79-163,4.41-229.32,0-.65,0-1.29,0-1.94H242.68c-33.65,0-98-26.48-98-68a15,15,0,0,1,15-15H886.56a15,15,0,0,1,15,15c0,41.52-64.35,68-98,68H512.29v1.46c.39,66.12.87,147.42-4.26,229.8H706.4a15,15,0,0,1,15,15c0,41.52-64.35,68-98,68H500.72c-8.57,73-21.85,131.93-40.49,179.78-21.38,54.85-55,91.65-102.9,112.49C311,737.69,256.65,740.41,209.56,740.41Z"/><path class="cls-1" d="M208.56,739.41c-51.7,0-120-14.6-156.52-55.58-19.6-22-27.76-48.62-24.25-79.19a15,15,0,0,1,10.79-12.72,15.26,15.26,0,0,1,4.11-.57A15,15,0,0,1,54.45,597c31.66,40,82.07,59.38,154.11,59.38,82.67,0,143.49-5.92,173.33-82.51,15.11-38.77,26.62-89,34.27-149.64h-42c-33.65,0-98-26.48-98-68a15,15,0,0,1,15-15H423.89c5.27-81.31,4.79-163,4.41-229.32,0-.65,0-1.29,0-1.94H241.68c-33.65,0-98-26.48-98-68a15,15,0,0,1,15-15H885.56a15,15,0,0,1,15,15c0,41.52-64.35,68-98,68H511.29v1.46c.39,66.12.87,147.42-4.26,229.8H705.4a15,15,0,0,1,15,15c0,41.52-64.35,68-98,68H499.72c-8.57,73-21.85,131.93-40.49,179.78-21.38,54.85-55,91.65-102.9,112.49C310,736.69,255.65,739.41,208.56,739.41Z"/><path class="cls-1" d="M207.56,738.41c-51.7,0-120-14.6-156.52-55.58-19.6-22-27.76-48.62-24.25-79.19a15,15,0,0,1,10.79-12.72,15.26,15.26,0,0,1,4.11-.57A15,15,0,0,1,53.45,596c31.66,40,82.07,59.38,154.11,59.38,82.67,0,143.49-5.92,173.33-82.51,15.11-38.77,26.62-89,34.27-149.64h-42c-33.65,0-98-26.48-98-68a15,15,0,0,1,15-15H422.89c5.27-81.31,4.79-163,4.41-229.32,0-.65,0-1.29,0-1.94H240.68c-33.65,0-98-26.48-98-68a15,15,0,0,1,15-15H884.56a15,15,0,0,1,15,15c0,41.52-64.35,68-98,68H510.29v1.46c.39,66.12.87,147.42-4.26,229.8H704.4a15,15,0,0,1,15,15c0,41.52-64.35,68-98,68H498.72c-8.57,73-21.85,131.93-40.49,179.78-21.38,54.85-55,91.65-102.9,112.49C309,735.69,254.65,738.41,207.56,738.41Z"/><path class="cls-1" d="M206.56,737.41c-51.7,0-120-14.6-156.52-55.58-19.6-22-27.76-48.62-24.25-79.19a15,15,0,0,1,10.79-12.72,15.26,15.26,0,0,1,4.11-.57A15,15,0,0,1,52.45,595c31.66,40,82.07,59.38,154.11,59.38,82.67,0,143.49-5.92,173.33-82.51,15.11-38.77,26.62-89,34.27-149.64h-42c-33.65,0-98-26.48-98-68a15,15,0,0,1,15-15H421.89c5.27-81.31,4.79-163,4.41-229.32,0-.65,0-1.29,0-1.94H239.68c-33.65,0-98-26.48-98-68a15,15,0,0,1,15-15H883.56a15,15,0,0,1,15,15c0,41.52-64.35,68-98,68H509.29v1.46c.39,66.12.87,147.42-4.26,229.8H703.4a15,15,0,0,1,15,15c0,41.52-64.35,68-98,68H497.72c-8.57,73-21.85,131.93-40.49,179.78-21.38,54.85-55,91.65-102.9,112.49C308,734.69,253.65,737.41,206.56,737.41Z"/><path class="cls-1" d="M205.56,736.41c-51.7,0-120-14.6-156.52-55.58-19.6-22-27.76-48.62-24.25-79.19a15,15,0,0,1,10.79-12.72,15.26,15.26,0,0,1,4.11-.57A15,15,0,0,1,51.45,594c31.66,40,82.07,59.38,154.11,59.38,82.67,0,143.49-5.92,173.33-82.51,15.11-38.77,26.62-89,34.27-149.64h-42c-33.65,0-98-26.48-98-68a15,15,0,0,1,15-15H420.89c5.27-81.31,4.79-163,4.41-229.32,0-.65,0-1.29,0-1.94H238.68c-33.65,0-98-26.48-98-68a15,15,0,0,1,15-15H882.56a15,15,0,0,1,15,15c0,41.52-64.35,68-98,68H508.29v1.46c.39,66.12.87,147.42-4.26,229.8H702.4a15,15,0,0,1,15,15c0,41.52-64.35,68-98,68H496.72c-8.57,73-21.85,131.93-40.49,179.78-21.38,54.85-55,91.65-102.9,112.49C307,733.69,252.65,736.41,205.56,736.41Z"/><path class="cls-1" d="M204.56,735.41c-51.7,0-120-14.6-156.52-55.58-19.6-22-27.76-48.62-24.25-79.19a15,15,0,0,1,10.79-12.72,15.26,15.26,0,0,1,4.11-.57A15,15,0,0,1,50.45,593c31.66,40,82.07,59.38,154.11,59.38,82.67,0,143.49-5.92,173.33-82.51,15.11-38.77,26.62-89,34.27-149.64h-42c-33.65,0-98-26.48-98-68a15,15,0,0,1,15-15H419.89c5.27-81.31,4.79-163,4.41-229.32,0-.65,0-1.29,0-1.94H237.68c-33.65,0-98-26.48-98-68a15,15,0,0,1,15-15H881.56a15,15,0,0,1,15,15c0,41.52-64.35,68-98,68H507.29v1.46c.39,66.12.87,147.42-4.26,229.8H701.4a15,15,0,0,1,15,15c0,41.52-64.35,68-98,68H495.72c-8.57,73-21.85,131.93-40.49,179.78-21.38,54.85-55,91.65-102.9,112.49C306,732.69,251.65,735.41,204.56,735.41Z"/><path class="cls-1" d="M203.56,734.41c-51.7,0-120-14.6-156.52-55.58-19.6-22-27.76-48.62-24.25-79.19a15,15,0,0,1,10.79-12.72,15.26,15.26,0,0,1,4.11-.57A15,15,0,0,1,49.45,592c31.66,40,82.07,59.38,154.11,59.38,82.67,0,143.49-5.92,173.33-82.51,15.11-38.77,26.62-89,34.27-149.64h-42c-33.65,0-98-26.48-98-68a15,15,0,0,1,15-15H418.89c5.27-81.31,4.79-163,4.41-229.32,0-.65,0-1.29,0-1.94H236.68c-33.65,0-98-26.48-98-68a15,15,0,0,1,15-15H880.56a15,15,0,0,1,15,15c0,41.52-64.35,68-98,68H506.29v1.46c.39,66.12.87,147.42-4.26,229.8H700.4a15,15,0,0,1,15,15c0,41.52-64.35,68-98,68H494.72c-8.57,73-21.85,131.93-40.49,179.78-21.38,54.85-55,91.65-102.9,112.49C305,731.69,250.65,734.41,203.56,734.41Z"/><path class="cls-1" d="M202.56,733.41c-51.7,0-120-14.6-156.52-55.58-19.6-22-27.76-48.62-24.25-79.19a15,15,0,0,1,10.79-12.72,15.26,15.26,0,0,1,4.11-.57A15,15,0,0,1,48.45,591c31.66,40,82.07,59.38,154.11,59.38,82.67,0,143.49-5.92,173.33-82.51,15.11-38.77,26.62-89,34.27-149.64h-42c-33.65,0-98-26.48-98-68a15,15,0,0,1,15-15H417.89c5.27-81.31,4.79-163,4.41-229.32,0-.65,0-1.29,0-1.94H235.68c-33.65,0-98-26.48-98-68a15,15,0,0,1,15-15H879.56a15,15,0,0,1,15,15c0,41.52-64.35,68-98,68H505.29v1.46c.39,66.12.87,147.42-4.26,229.8H699.4a15,15,0,0,1,15,15c0,41.52-64.35,68-98,68H493.72c-8.57,73-21.85,131.93-40.49,179.78-21.38,54.85-55,91.65-102.9,112.49C304,730.69,249.65,733.41,202.56,733.41Z"/><path class="cls-1" d="M201.56,732.41c-51.7,0-120-14.6-156.52-55.58-19.6-22-27.76-48.62-24.25-79.19a15,15,0,0,1,10.79-12.72,15.26,15.26,0,0,1,4.11-.57A15,15,0,0,1,47.45,590c31.66,40,82.07,59.38,154.11,59.38,82.67,0,143.49-5.92,173.33-82.51,15.11-38.77,26.62-89,34.27-149.64h-42c-33.65,0-98-26.48-98-68a15,15,0,0,1,15-15H416.89c5.27-81.31,4.79-163,4.41-229.32,0-.65,0-1.29,0-1.94H234.68c-33.65,0-98-26.48-98-68a15,15,0,0,1,15-15H878.56a15,15,0,0,1,15,15c0,41.52-64.35,68-98,68H504.29v1.46c.39,66.12.87,147.42-4.26,229.8H698.4a15,15,0,0,1,15,15c0,41.52-64.35,68-98,68H492.72c-8.57,73-21.85,131.93-40.49,179.78-21.38,54.85-55,91.65-102.9,112.49C303,729.69,248.65,732.41,201.56,732.41Z"/><path class="cls-1" d="M200.56,731.41c-51.7,0-120-14.6-156.52-55.58-19.6-22-27.76-48.62-24.25-79.19a15,15,0,0,1,10.79-12.72,15.26,15.26,0,0,1,4.11-.57A15,15,0,0,1,46.45,589c31.66,40,82.07,59.38,154.11,59.38,82.67,0,143.49-5.92,173.33-82.51,15.11-38.77,26.62-89,34.27-149.64h-42c-33.65,0-98-26.48-98-68a15,15,0,0,1,15-15H415.89c5.27-81.31,4.79-163,4.41-229.32,0-.65,0-1.29,0-1.94H233.68c-33.65,0-98-26.48-98-68a15,15,0,0,1,15-15H877.56a15,15,0,0,1,15,15c0,41.52-64.35,68-98,68H503.29v1.46c.39,66.12.87,147.42-4.26,229.8H697.4a15,15,0,0,1,15,15c0,41.52-64.35,68-98,68H491.72c-8.57,73-21.85,131.93-40.49,179.78-21.38,54.85-55,91.65-102.9,112.49C302,728.69,247.65,731.41,200.56,731.41Z"/><path class="cls-1" d="M199.56,730.41c-51.7,0-120-14.6-156.52-55.58-19.6-22-27.76-48.62-24.25-79.19a15,15,0,0,1,10.79-12.72,15.26,15.26,0,0,1,4.11-.57A15,15,0,0,1,45.45,588c31.66,40,82.07,59.38,154.11,59.38,82.67,0,143.49-5.92,173.33-82.51,15.11-38.77,26.62-89,34.27-149.64h-42c-33.65,0-98-26.48-98-68a15,15,0,0,1,15-15H414.89c5.27-81.31,4.79-163,4.41-229.32,0-.65,0-1.29,0-1.94H232.68c-33.65,0-98-26.48-98-68a15,15,0,0,1,15-15H876.56a15,15,0,0,1,15,15c0,41.52-64.35,68-98,68H502.29v1.46c.39,66.12.87,147.42-4.26,229.8H696.4a15,15,0,0,1,15,15c0,41.52-64.35,68-98,68H490.72c-8.57,73-21.85,131.93-40.49,179.78-21.38,54.85-55,91.65-102.9,112.49C301,727.69,246.65,730.41,199.56,730.41Z"/><path class="cls-1" d="M198.56,729.41c-51.7,0-120-14.6-156.52-55.58-19.6-22-27.76-48.62-24.25-79.19a15,15,0,0,1,10.79-12.72,15.26,15.26,0,0,1,4.11-.57A15,15,0,0,1,44.45,587c31.66,40,82.07,59.38,154.11,59.38,82.67,0,143.49-5.92,173.33-82.51,15.11-38.77,26.62-89,34.27-149.64h-42c-33.65,0-98-26.48-98-68a15,15,0,0,1,15-15H413.89c5.27-81.31,4.79-163,4.41-229.32,0-.65,0-1.29,0-1.94H231.68c-33.65,0-98-26.48-98-68a15,15,0,0,1,15-15H875.56a15,15,0,0,1,15,15c0,41.52-64.35,68-98,68H501.29v1.46c.39,66.12.87,147.42-4.26,229.8H695.4a15,15,0,0,1,15,15c0,41.52-64.35,68-98,68H489.72c-8.57,73-21.85,131.93-40.49,179.78-21.38,54.85-55,91.65-102.9,112.49C300,726.69,245.65,729.41,198.56,729.41Z"/><path class="cls-1" d="M197.56,728.41c-51.7,0-120-14.6-156.52-55.58-19.6-22-27.76-48.62-24.25-79.19a15,15,0,0,1,10.79-12.72,15.26,15.26,0,0,1,4.11-.57A15,15,0,0,1,43.45,586c31.66,40,82.07,59.38,154.11,59.38,82.67,0,143.49-5.92,173.33-82.51,15.11-38.77,26.62-89,34.27-149.64h-42c-33.65,0-98-26.48-98-68a15,15,0,0,1,15-15H412.89c5.27-81.31,4.79-163,4.41-229.32,0-.65,0-1.29,0-1.94H230.68c-33.65,0-98-26.48-98-68a15,15,0,0,1,15-15H874.56a15,15,0,0,1,15,15c0,41.52-64.35,68-98,68H500.29v1.46c.39,66.12.87,147.42-4.26,229.8H694.4a15,15,0,0,1,15,15c0,41.52-64.35,68-98,68H488.72c-8.57,73-21.85,131.93-40.49,179.78-21.38,54.85-55,91.65-102.9,112.49C299,725.69,244.65,728.41,197.56,728.41Z"/><path class="cls-1" d="M196.56,727.41c-51.7,0-120-14.6-156.52-55.58-19.6-22-27.76-48.62-24.25-79.19a15,15,0,0,1,10.79-12.72,15.26,15.26,0,0,1,4.11-.57A15,15,0,0,1,42.45,585c31.66,40,82.07,59.38,154.11,59.38,82.67,0,143.49-5.92,173.33-82.51,15.11-38.77,26.62-89,34.27-149.64h-42c-33.65,0-98-26.48-98-68a15,15,0,0,1,15-15H411.89c5.27-81.31,4.79-163,4.41-229.32,0-.65,0-1.29,0-1.94H229.68c-33.65,0-98-26.48-98-68a15,15,0,0,1,15-15H873.56a15,15,0,0,1,15,15c0,41.52-64.35,68-98,68H499.29v1.46c.39,66.12.87,147.42-4.26,229.8H693.4a15,15,0,0,1,15,15c0,41.52-64.35,68-98,68H487.72c-8.57,73-21.85,131.93-40.49,179.78-21.38,54.85-55,91.65-102.9,112.49C298,724.69,243.65,727.41,196.56,727.41Z"/><path class="cls-1" d="M195.56,726.41c-51.7,0-120-14.6-156.52-55.58-19.6-22-27.76-48.62-24.25-79.19a15,15,0,0,1,10.79-12.72,15.26,15.26,0,0,1,4.11-.57A15,15,0,0,1,41.45,584c31.66,40,82.07,59.38,154.11,59.38,82.67,0,143.49-5.92,173.33-82.51,15.11-38.77,26.62-89,34.27-149.64h-42c-33.65,0-98-26.48-98-68a15,15,0,0,1,15-15H410.89c5.27-81.31,4.79-163,4.41-229.32,0-.65,0-1.29,0-1.94H228.68c-33.65,0-98-26.48-98-68a15,15,0,0,1,15-15H872.56a15,15,0,0,1,15,15c0,41.52-64.35,68-98,68H498.29v1.46c.39,66.12.87,147.42-4.26,229.8H692.4a15,15,0,0,1,15,15c0,41.52-64.35,68-98,68H486.72c-8.57,73-21.85,131.93-40.49,179.78-21.38,54.85-55,91.65-102.9,112.49C297,723.69,242.65,726.41,195.56,726.41Z"/><path class="cls-1" d="M194.56,725.41c-51.7,0-120-14.6-156.52-55.58-19.6-22-27.76-48.62-24.25-79.19a15,15,0,0,1,10.79-12.72,15.26,15.26,0,0,1,4.11-.57A15,15,0,0,1,40.45,583c31.66,40,82.07,59.38,154.11,59.38,82.67,0,143.49-5.92,173.33-82.51,15.11-38.77,26.62-89,34.27-149.64h-42c-33.65,0-98-26.48-98-68a15,15,0,0,1,15-15H409.89c5.27-81.31,4.79-163,4.41-229.32,0-.65,0-1.29,0-1.94H227.68c-33.65,0-98-26.48-98-68a15,15,0,0,1,15-15H871.56a15,15,0,0,1,15,15c0,41.52-64.35,68-98,68H497.29v1.46c.39,66.12.87,147.42-4.26,229.8H691.4a15,15,0,0,1,15,15c0,41.52-64.35,68-98,68H485.72c-8.57,73-21.85,131.93-40.49,179.78-21.38,54.85-55,91.65-102.9,112.49C296,722.69,241.65,725.41,194.56,725.41Z"/><path class="cls-1" d="M193.56,724.41c-51.7,0-120-14.6-156.52-55.58-19.6-22-27.76-48.62-24.25-79.19a15,15,0,0,1,10.79-12.72,15.26,15.26,0,0,1,4.11-.57A15,15,0,0,1,39.45,582c31.66,40,82.07,59.38,154.11,59.38,82.67,0,143.49-5.92,173.33-82.51,15.11-38.77,26.62-89,34.27-149.64h-42c-33.65,0-98-26.48-98-68a15,15,0,0,1,15-15H408.89c5.27-81.31,4.79-163,4.41-229.32,0-.65,0-1.29,0-1.94H226.68c-33.65,0-98-26.48-98-68a15,15,0,0,1,15-15H870.56a15,15,0,0,1,15,15c0,41.52-64.35,68-98,68H496.29v1.46c.39,66.12.87,147.42-4.26,229.8H690.4a15,15,0,0,1,15,15c0,41.52-64.35,68-98,68H484.72c-8.57,73-21.85,131.93-40.49,179.78-21.38,54.85-55,91.65-102.9,112.49C295,721.69,240.65,724.41,193.56,724.41Z"/><path class="cls-1" d="M192.56,723.41c-51.7,0-120-14.6-156.52-55.58-19.6-22-27.76-48.62-24.25-79.19a15,15,0,0,1,10.79-12.72,15.26,15.26,0,0,1,4.11-.57A15,15,0,0,1,38.45,581c31.66,40,82.07,59.38,154.11,59.38,82.67,0,143.49-5.92,173.33-82.51,15.11-38.77,26.62-89,34.27-149.64h-42c-33.65,0-98-26.48-98-68a15,15,0,0,1,15-15H407.89c5.27-81.31,4.79-163,4.41-229.32,0-.65,0-1.29,0-1.94H225.68c-33.65,0-98-26.48-98-68a15,15,0,0,1,15-15H869.56a15,15,0,0,1,15,15c0,41.52-64.35,68-98,68H495.29v1.46c.39,66.12.87,147.42-4.26,229.8H689.4a15,15,0,0,1,15,15c0,41.52-64.35,68-98,68H483.72c-8.57,73-21.85,131.93-40.49,179.78-21.38,54.85-55,91.65-102.9,112.49C294,720.69,239.65,723.41,192.56,723.41Z"/><path class="cls-1" d="M191.56,722.41c-51.7,0-120-14.6-156.52-55.58-19.6-22-27.76-48.62-24.25-79.19a15,15,0,0,1,10.79-12.72,15.26,15.26,0,0,1,4.11-.57A15,15,0,0,1,37.45,580c31.66,40,82.07,59.38,154.11,59.38,82.67,0,143.49-5.92,173.33-82.51,15.11-38.77,26.62-89,34.27-149.64h-42c-33.65,0-98-26.48-98-68a15,15,0,0,1,15-15H406.89c5.27-81.31,4.79-163,4.41-229.32,0-.65,0-1.29,0-1.94H224.68c-33.65,0-98-26.48-98-68a15,15,0,0,1,15-15H868.56a15,15,0,0,1,15,15c0,41.52-64.35,68-98,68H494.29v1.46c.39,66.12.87,147.42-4.26,229.8H688.4a15,15,0,0,1,15,15c0,41.52-64.35,68-98,68H482.72c-8.57,73-21.85,131.93-40.49,179.78-21.38,54.85-55,91.65-102.9,112.49C293,719.69,238.65,722.41,191.56,722.41Z"/><path class="cls-1" d="M190.56,721.41c-51.7,0-120-14.6-156.52-55.58-19.6-22-27.76-48.62-24.25-79.19a15,15,0,0,1,10.79-12.72,15.26,15.26,0,0,1,4.11-.57A15,15,0,0,1,36.45,579c31.66,40,82.07,59.38,154.11,59.38,82.67,0,143.49-5.92,173.33-82.51,15.11-38.77,26.62-89,34.27-149.64h-42c-33.65,0-98-26.48-98-68a15,15,0,0,1,15-15H405.89c5.27-81.31,4.79-163,4.41-229.32,0-.65,0-1.29,0-1.94H223.68c-33.65,0-98-26.48-98-68a15,15,0,0,1,15-15H867.56a15,15,0,0,1,15,15c0,41.52-64.35,68-98,68H493.29v1.46c.39,66.12.87,147.42-4.26,229.8H687.4a15,15,0,0,1,15,15c0,41.52-64.35,68-98,68H481.72c-8.57,73-21.85,131.93-40.49,179.78-21.38,54.85-55,91.65-102.9,112.49C292,718.69,237.65,721.41,190.56,721.41Z"/><path class="cls-1" d="M189.56,720.41c-51.7,0-120-14.6-156.52-55.58-19.6-22-27.76-48.62-24.25-79.19a15,15,0,0,1,10.79-12.72,15.26,15.26,0,0,1,4.11-.57A15,15,0,0,1,35.45,578c31.66,40,82.07,59.38,154.11,59.38,82.67,0,143.49-5.92,173.33-82.51,15.11-38.77,26.62-89,34.27-149.64h-42c-33.65,0-98-26.48-98-68a15,15,0,0,1,15-15H404.89c5.27-81.31,4.79-163,4.41-229.32,0-.65,0-1.29,0-1.94H222.68c-33.65,0-98-26.48-98-68a15,15,0,0,1,15-15H866.56a15,15,0,0,1,15,15c0,41.52-64.35,68-98,68H492.29v1.46c.39,66.12.87,147.42-4.26,229.8H686.4a15,15,0,0,1,15,15c0,41.52-64.35,68-98,68H480.72c-8.57,73-21.85,131.93-40.49,179.78-21.38,54.85-55,91.65-102.9,112.49C291,717.69,236.65,720.41,189.56,720.41Z"/><path class="cls-1" d="M188.56,719.41c-51.7,0-120-14.6-156.52-55.58-19.6-22-27.76-48.62-24.25-79.19a15,15,0,0,1,10.79-12.72,15.26,15.26,0,0,1,4.11-.57A15,15,0,0,1,34.45,577c31.66,40,82.07,59.38,154.11,59.38,82.67,0,143.49-5.92,173.33-82.51,15.11-38.77,26.62-89,34.27-149.64h-42c-33.65,0-98-26.48-98-68a15,15,0,0,1,15-15H403.89c5.27-81.31,4.79-163,4.41-229.32,0-.65,0-1.29,0-1.94H221.68c-33.65,0-98-26.48-98-68a15,15,0,0,1,15-15H865.56a15,15,0,0,1,15,15c0,41.52-64.35,68-98,68H491.29v1.46c.39,66.12.87,147.42-4.26,229.8H685.4a15,15,0,0,1,15,15c0,41.52-64.35,68-98,68H479.72c-8.57,73-21.85,131.93-40.49,179.78-21.38,54.85-55,91.65-102.9,112.49C290,716.69,235.65,719.41,188.56,719.41Z"/><path class="cls-1" d="M187.56,718.41c-51.7,0-120-14.6-156.52-55.58-19.6-22-27.76-48.62-24.25-79.19a15,15,0,0,1,10.79-12.72,15.26,15.26,0,0,1,4.11-.57A15,15,0,0,1,33.45,576c31.66,40,82.07,59.38,154.11,59.38,82.67,0,143.49-5.92,173.33-82.51,15.11-38.77,26.62-89,34.27-149.64h-42c-33.65,0-98-26.48-98-68a15,15,0,0,1,15-15H402.89c5.27-81.31,4.79-163,4.41-229.32,0-.65,0-1.29,0-1.94H220.68c-33.65,0-98-26.48-98-68a15,15,0,0,1,15-15H864.56a15,15,0,0,1,15,15c0,41.52-64.35,68-98,68H490.29v1.46c.39,66.12.87,147.42-4.26,229.8H684.4a15,15,0,0,1,15,15c0,41.52-64.35,68-98,68H478.72c-8.57,73-21.85,131.93-40.49,179.78-21.38,54.85-55,91.65-102.9,112.49C289,715.69,234.65,718.41,187.56,718.41Z"/><path class="cls-1" d="M186.56,717.41c-51.7,0-120-14.6-156.52-55.58-19.6-22-27.76-48.62-24.25-79.19a15,15,0,0,1,10.79-12.72,15.26,15.26,0,0,1,4.11-.57A15,15,0,0,1,32.45,575c31.66,40,82.07,59.38,154.11,59.38,82.67,0,143.49-5.92,173.33-82.51,15.11-38.77,26.62-89,34.27-149.64h-42c-33.65,0-98-26.48-98-68a15,15,0,0,1,15-15H401.89c5.27-81.31,4.79-163,4.41-229.32,0-.65,0-1.29,0-1.94H219.68c-33.65,0-98-26.48-98-68a15,15,0,0,1,15-15H863.56a15,15,0,0,1,15,15c0,41.52-64.35,68-98,68H489.29v1.46c.39,66.12.87,147.42-4.26,229.8H683.4a15,15,0,0,1,15,15c0,41.52-64.35,68-98,68H477.72c-8.57,73-21.85,131.93-40.49,179.78-21.38,54.85-55,91.65-102.9,112.49C288,714.69,233.65,717.41,186.56,717.41Z"/><path class="cls-1" d="M185.56,716.41c-51.7,0-120-14.6-156.52-55.58-19.6-22-27.76-48.62-24.25-79.19a15,15,0,0,1,10.79-12.72,15.26,15.26,0,0,1,4.11-.57A15,15,0,0,1,31.45,574c31.66,40,82.07,59.38,154.11,59.38,82.67,0,143.49-5.92,173.33-82.51,15.11-38.77,26.62-89,34.27-149.64h-42c-33.65,0-98-26.48-98-68a15,15,0,0,1,15-15H400.89c5.27-81.31,4.79-163,4.41-229.32,0-.65,0-1.29,0-1.94H218.68c-33.65,0-98-26.48-98-68a15,15,0,0,1,15-15H862.56a15,15,0,0,1,15,15c0,41.52-64.35,68-98,68H488.29v1.46c.39,66.12.87,147.42-4.26,229.8H682.4a15,15,0,0,1,15,15c0,41.52-64.35,68-98,68H476.72c-8.57,73-21.85,131.93-40.49,179.78-21.38,54.85-55,91.65-102.9,112.49C287,713.69,232.65,716.41,185.56,716.41Z"/><path class="cls-1" d="M184.56,715.41c-51.7,0-120-14.6-156.52-55.58-19.6-22-27.76-48.62-24.25-79.19a15,15,0,0,1,10.79-12.72,15.26,15.26,0,0,1,4.11-.57A15,15,0,0,1,30.45,573c31.66,40,82.07,59.38,154.11,59.38,82.67,0,143.49-5.92,173.33-82.51,15.11-38.77,26.62-89,34.27-149.64h-42c-33.65,0-98-26.48-98-68a15,15,0,0,1,15-15H399.89c5.27-81.31,4.79-163,4.41-229.32,0-.65,0-1.29,0-1.94H217.68c-33.65,0-98-26.48-98-68a15,15,0,0,1,15-15H861.56a15,15,0,0,1,15,15c0,41.52-64.35,68-98,68H487.29v1.46c.39,66.12.87,147.42-4.26,229.8H681.4a15,15,0,0,1,15,15c0,41.52-64.35,68-98,68H475.72c-8.57,73-21.85,131.93-40.49,179.78-21.38,54.85-55,91.65-102.9,112.49C286,712.69,231.65,715.41,184.56,715.41Z"/><path class="cls-1" d="M183.56,714.41c-51.7,0-120-14.6-156.52-55.58-19.6-22-27.76-48.62-24.25-79.19a15,15,0,0,1,10.79-12.72,15.26,15.26,0,0,1,4.11-.57A15,15,0,0,1,29.45,572c31.66,40,82.07,59.38,154.11,59.38,82.67,0,143.49-5.92,173.33-82.51,15.11-38.77,26.62-89,34.27-149.64h-42c-33.65,0-98-26.48-98-68a15,15,0,0,1,15-15H398.89c5.27-81.31,4.79-163,4.41-229.32,0-.65,0-1.29,0-1.94H216.68c-33.65,0-98-26.48-98-68a15,15,0,0,1,15-15H860.56a15,15,0,0,1,15,15c0,41.52-64.35,68-98,68H486.29v1.46c.39,66.12.87,147.42-4.26,229.8H680.4a15,15,0,0,1,15,15c0,41.52-64.35,68-98,68H474.72c-8.57,73-21.85,131.93-40.49,179.78-21.38,54.85-55,91.65-102.9,112.49C285,711.69,230.65,714.41,183.56,714.41Z"/><path class="cls-1" d="M182.56,713.41c-51.7,0-120-14.6-156.52-55.58-19.6-22-27.76-48.62-24.25-79.19a15,15,0,0,1,10.79-12.72,15.26,15.26,0,0,1,4.11-.57A15,15,0,0,1,28.45,571c31.66,40,82.07,59.38,154.11,59.38,82.67,0,143.49-5.92,173.33-82.51,15.11-38.77,26.62-89,34.27-149.64h-42c-33.65,0-98-26.48-98-68a15,15,0,0,1,15-15H397.89c5.27-81.31,4.79-163,4.41-229.32,0-.65,0-1.29,0-1.94H215.68c-33.65,0-98-26.48-98-68a15,15,0,0,1,15-15H859.56a15,15,0,0,1,15,15c0,41.52-64.35,68-98,68H485.29v1.46c.39,66.12.87,147.42-4.26,229.8H679.4a15,15,0,0,1,15,15c0,41.52-64.35,68-98,68H473.72c-8.57,73-21.85,131.93-40.49,179.78-21.38,54.85-55,91.65-102.9,112.49C284,710.69,229.65,713.41,182.56,713.41Z"/><path class="cls-1" d="M181.56,712.41c-51.7,0-120-14.6-156.52-55.58-19.6-22-27.76-48.62-24.25-79.19a15,15,0,0,1,10.79-12.72,15.26,15.26,0,0,1,4.11-.57A15,15,0,0,1,27.45,570c31.66,40,82.07,59.38,154.11,59.38,82.67,0,143.49-5.92,173.33-82.51,15.11-38.77,26.62-89,34.27-149.64h-42c-33.65,0-98-26.48-98-68a15,15,0,0,1,15-15H396.89c5.27-81.31,4.79-163,4.41-229.32,0-.65,0-1.29,0-1.94H214.68c-33.65,0-98-26.48-98-68a15,15,0,0,1,15-15H858.56a15,15,0,0,1,15,15c0,41.52-64.35,68-98,68H484.29v1.46c.39,66.12.87,147.42-4.26,229.8H678.4a15,15,0,0,1,15,15c0,41.52-64.35,68-98,68H472.72c-8.57,73-21.85,131.93-40.49,179.78-21.38,54.85-55,91.65-102.9,112.49C283,709.69,228.65,712.41,181.56,712.41Z"/><path d="M214.56,737.41a282.05,282.05,0,0,1-80.4-11.77C103.6,716.28,80,702.44,64,684.5c-18-20.2-25.51-44.74-22.27-73a7,7,0,0,1,5-5.93,6.69,6.69,0,0,1,1.92-.27A7,7,0,0,1,54.18,608c33.27,42,85.73,62.41,160.38,62.41,85.87,0,149.1-6.28,180.79-87.6,16.09-41.3,28.14-95.28,35.84-160.55h-51c-16.18,0-38.13-6.44-55.9-16.41-22-12.34-34.1-27.82-34.1-43.59a7,7,0,0,1,7-7H437.37c5.82-84.05,5.33-168.87,4.93-237.37q0-5-.06-9.89H247.68c-16.18,0-38.13-6.44-55.9-16.42-22-12.34-34.1-27.82-34.1-43.58a7,7,0,0,1,7-7H891.56a7,7,0,0,1,7,7c0,15.76-12.11,31.24-34.09,43.58-17.78,10-39.72,16.42-55.91,16.42H509.24q0,4.69.05,9.5c.4,68.27.9,152.76-4.79,237.76H711.4a7,7,0,0,1,7,7c0,15.77-12.11,31.25-34.1,43.59-17.77,10-39.72,16.41-55.9,16.41H498.58c-8.45,75.61-21.81,136.13-40.8,184.87C437.21,659.9,405,695.25,359.14,715.2,314.18,734.77,260.83,737.41,214.56,737.41Z"/><path d="M213.56,736.41a282.05,282.05,0,0,1-80.4-11.77C102.6,715.28,79,701.44,63,683.5c-18-20.2-25.51-44.74-22.27-73a7,7,0,0,1,5-5.93,6.69,6.69,0,0,1,1.92-.27A7,7,0,0,1,53.18,607c33.27,42,85.73,62.41,160.38,62.41,85.87,0,149.1-6.28,180.79-87.6,16.09-41.3,28.14-95.28,35.84-160.55h-51c-16.18,0-38.13-6.44-55.9-16.41-22-12.34-34.1-27.82-34.1-43.59a7,7,0,0,1,7-7H436.37c5.82-84.05,5.33-168.87,4.93-237.37q0-5-.06-9.89H246.68c-16.18,0-38.13-6.44-55.9-16.42-22-12.34-34.1-27.82-34.1-43.58a7,7,0,0,1,7-7H890.56a7,7,0,0,1,7,7c0,15.76-12.11,31.24-34.09,43.58-17.78,10-39.72,16.42-55.91,16.42H508.24q0,4.69.05,9.5c.4,68.27.9,152.76-4.79,237.76H710.4a7,7,0,0,1,7,7c0,15.77-12.11,31.25-34.1,43.59-17.77,10-39.72,16.41-55.9,16.41H497.58c-8.45,75.61-21.81,136.13-40.8,184.87C436.21,658.9,404,694.25,358.14,714.2,313.18,733.77,259.83,736.41,213.56,736.41Z"/><path d="M212.56,735.41a282.05,282.05,0,0,1-80.4-11.77C101.6,714.28,78,700.44,62,682.5c-18-20.2-25.51-44.74-22.27-73a7,7,0,0,1,5-5.93,6.69,6.69,0,0,1,1.92-.27A7,7,0,0,1,52.18,606c33.27,42,85.73,62.41,160.38,62.41,85.87,0,149.1-6.28,180.79-87.6,16.09-41.3,28.14-95.28,35.84-160.55h-51c-16.18,0-38.13-6.44-55.9-16.41-22-12.34-34.1-27.82-34.1-43.59a7,7,0,0,1,7-7H435.37c5.82-84.05,5.33-168.87,4.93-237.37q0-5-.06-9.89H245.68c-16.18,0-38.13-6.44-55.9-16.42-22-12.34-34.1-27.82-34.1-43.58a7,7,0,0,1,7-7H889.56a7,7,0,0,1,7,7c0,15.76-12.11,31.24-34.09,43.58-17.78,10-39.72,16.42-55.91,16.42H507.24q0,4.69.05,9.5c.4,68.27.9,152.76-4.79,237.76H709.4a7,7,0,0,1,7,7c0,15.77-12.11,31.25-34.1,43.59-17.77,10-39.72,16.41-55.9,16.41H496.58c-8.45,75.61-21.81,136.13-40.8,184.87C435.21,657.9,403,693.25,357.14,713.2,312.18,732.77,258.83,735.41,212.56,735.41Z"/><path d="M211.56,734.41a282.05,282.05,0,0,1-80.4-11.77C100.6,713.28,77,699.44,61,681.5c-18-20.2-25.51-44.74-22.27-73a7,7,0,0,1,5-5.93,6.69,6.69,0,0,1,1.92-.27A7,7,0,0,1,51.18,605c33.27,42,85.73,62.41,160.38,62.41,85.87,0,149.1-6.28,180.79-87.6,16.09-41.3,28.14-95.28,35.84-160.55h-51c-16.18,0-38.13-6.44-55.9-16.41-22-12.34-34.1-27.82-34.1-43.59a7,7,0,0,1,7-7H434.37c5.82-84.05,5.33-168.87,4.93-237.37q0-5-.06-9.89H244.68c-16.18,0-38.13-6.44-55.9-16.42-22-12.34-34.1-27.82-34.1-43.58a7,7,0,0,1,7-7H888.56a7,7,0,0,1,7,7c0,15.76-12.11,31.24-34.09,43.58-17.78,10-39.72,16.42-55.91,16.42H506.24q0,4.69.05,9.5c.4,68.27.9,152.76-4.79,237.76H708.4a7,7,0,0,1,7,7c0,15.77-12.11,31.25-34.1,43.59-17.77,10-39.72,16.41-55.9,16.41H495.58c-8.45,75.61-21.81,136.13-40.8,184.87C434.21,656.9,402,692.25,356.14,712.2,311.18,731.77,257.83,734.41,211.56,734.41Z"/><path d="M210.56,733.41a282.05,282.05,0,0,1-80.4-11.77C99.6,712.28,76,698.44,60,680.5c-18-20.2-25.51-44.74-22.27-73a7,7,0,0,1,5-5.93,6.69,6.69,0,0,1,1.92-.27A7,7,0,0,1,50.18,604c33.27,42,85.73,62.41,160.38,62.41,85.87,0,149.1-6.28,180.79-87.6,16.09-41.3,28.14-95.28,35.84-160.55h-51c-16.18,0-38.13-6.44-55.9-16.41-22-12.34-34.1-27.82-34.1-43.59a7,7,0,0,1,7-7H433.37c5.82-84.05,5.33-168.87,4.93-237.37q0-5-.06-9.89H243.68c-16.18,0-38.13-6.44-55.9-16.42-22-12.34-34.1-27.82-34.1-43.58a7,7,0,0,1,7-7H887.56a7,7,0,0,1,7,7c0,15.76-12.11,31.24-34.09,43.58-17.78,10-39.72,16.42-55.91,16.42H505.24q0,4.69.05,9.5c.4,68.27.9,152.76-4.79,237.76H707.4a7,7,0,0,1,7,7c0,15.77-12.11,31.25-34.1,43.59-17.77,10-39.72,16.41-55.9,16.41H494.58c-8.45,75.61-21.81,136.13-40.8,184.87C433.21,655.9,401,691.25,355.14,711.2,310.18,730.77,256.83,733.41,210.56,733.41Z"/><path d="M209.56,732.41a282.05,282.05,0,0,1-80.4-11.77C98.6,711.28,75,697.44,59,679.5c-18-20.2-25.51-44.74-22.27-73a7,7,0,0,1,5-5.93,6.69,6.69,0,0,1,1.92-.27A7,7,0,0,1,49.18,603c33.27,42,85.73,62.41,160.38,62.41,85.87,0,149.1-6.28,180.79-87.6,16.09-41.3,28.14-95.28,35.84-160.55h-51c-16.18,0-38.13-6.44-55.9-16.41-22-12.34-34.1-27.82-34.1-43.59a7,7,0,0,1,7-7H432.37c5.82-84.05,5.33-168.87,4.93-237.37q0-5-.06-9.89H242.68c-16.18,0-38.13-6.44-55.9-16.42-22-12.34-34.1-27.82-34.1-43.58a7,7,0,0,1,7-7H886.56a7,7,0,0,1,7,7c0,15.76-12.11,31.24-34.09,43.58-17.78,10-39.72,16.42-55.91,16.42H504.24q0,4.69.05,9.5c.4,68.27.9,152.76-4.79,237.76H706.4a7,7,0,0,1,7,7c0,15.77-12.11,31.25-34.1,43.59-17.77,10-39.72,16.41-55.9,16.41H493.58c-8.45,75.61-21.81,136.13-40.8,184.87C432.21,654.9,400,690.25,354.14,710.2,309.18,729.77,255.83,732.41,209.56,732.41Z"/><path d="M208.56,731.41a282.05,282.05,0,0,1-80.4-11.77C97.6,710.28,74,696.44,58,678.5c-18-20.2-25.51-44.74-22.27-73a7,7,0,0,1,5-5.93,6.69,6.69,0,0,1,1.92-.27A7,7,0,0,1,48.18,602c33.27,42,85.73,62.41,160.38,62.41,85.87,0,149.1-6.28,180.79-87.6,16.09-41.3,28.14-95.28,35.84-160.55h-51c-16.18,0-38.13-6.44-55.9-16.41-22-12.34-34.1-27.82-34.1-43.59a7,7,0,0,1,7-7H431.37c5.82-84.05,5.33-168.87,4.93-237.37q0-5-.06-9.89H241.68c-16.18,0-38.13-6.44-55.9-16.42-22-12.34-34.1-27.82-34.1-43.58a7,7,0,0,1,7-7H885.56a7,7,0,0,1,7,7c0,15.76-12.11,31.24-34.09,43.58-17.78,10-39.72,16.42-55.91,16.42H503.24q0,4.69.05,9.5c.4,68.27.9,152.76-4.79,237.76H705.4a7,7,0,0,1,7,7c0,15.77-12.11,31.25-34.1,43.59-17.77,10-39.72,16.41-55.9,16.41H492.58c-8.45,75.61-21.81,136.13-40.8,184.87C431.21,653.9,399,689.25,353.14,709.2,308.18,728.77,254.83,731.41,208.56,731.41Z"/><path d="M207.56,730.41a282.05,282.05,0,0,1-80.4-11.77C96.6,709.28,73,695.44,57,677.5c-18-20.2-25.51-44.74-22.27-73a7,7,0,0,1,5-5.93,6.69,6.69,0,0,1,1.92-.27A7,7,0,0,1,47.18,601c33.27,42,85.73,62.41,160.38,62.41,85.87,0,149.1-6.28,180.79-87.6,16.09-41.3,28.14-95.28,35.84-160.55h-51c-16.18,0-38.13-6.44-55.9-16.41-22-12.34-34.1-27.82-34.1-43.59a7,7,0,0,1,7-7H430.37c5.82-84.05,5.33-168.87,4.93-237.37q0-5-.06-9.89H240.68c-16.18,0-38.13-6.44-55.9-16.42-22-12.34-34.1-27.82-34.1-43.58a7,7,0,0,1,7-7H884.56a7,7,0,0,1,7,7c0,15.76-12.11,31.24-34.09,43.58-17.78,10-39.72,16.42-55.91,16.42H502.24q0,4.69.05,9.5c.4,68.27.9,152.76-4.79,237.76H704.4a7,7,0,0,1,7,7c0,15.77-12.11,31.25-34.1,43.59-17.77,10-39.72,16.41-55.9,16.41H491.58c-8.45,75.61-21.81,136.13-40.8,184.87C430.21,652.9,398,688.25,352.14,708.2,307.18,727.77,253.83,730.41,207.56,730.41Z"/><path d="M206.56,729.41a282.05,282.05,0,0,1-80.4-11.77C95.6,708.28,72,694.44,56,676.5c-18-20.2-25.51-44.74-22.27-73a7,7,0,0,1,5-5.93,6.69,6.69,0,0,1,1.92-.27A7,7,0,0,1,46.18,600c33.27,42,85.73,62.41,160.38,62.41,85.87,0,149.1-6.28,180.79-87.6,16.09-41.3,28.14-95.28,35.84-160.55h-51c-16.18,0-38.13-6.44-55.9-16.41-22-12.34-34.1-27.82-34.1-43.59a7,7,0,0,1,7-7H429.37c5.82-84.05,5.33-168.87,4.93-237.37q0-5-.06-9.89H239.68c-16.18,0-38.13-6.44-55.9-16.42-22-12.34-34.1-27.82-34.1-43.58a7,7,0,0,1,7-7H883.56a7,7,0,0,1,7,7c0,15.76-12.11,31.24-34.09,43.58-17.78,10-39.72,16.42-55.91,16.42H501.24q0,4.69.05,9.5c.4,68.27.9,152.76-4.79,237.76H703.4a7,7,0,0,1,7,7c0,15.77-12.11,31.25-34.1,43.59-17.77,10-39.72,16.41-55.9,16.41H490.58c-8.45,75.61-21.81,136.13-40.8,184.87C429.21,651.9,397,687.25,351.14,707.2,306.18,726.77,252.83,729.41,206.56,729.41Z"/><path d="M205.56,728.41a282.05,282.05,0,0,1-80.4-11.77C94.6,707.28,71,693.44,55,675.5c-18-20.2-25.51-44.74-22.27-73a7,7,0,0,1,5-5.93,6.69,6.69,0,0,1,1.92-.27A7,7,0,0,1,45.18,599c33.27,42,85.73,62.41,160.38,62.41,85.87,0,149.1-6.28,180.79-87.6,16.09-41.3,28.14-95.28,35.84-160.55h-51c-16.18,0-38.13-6.44-55.9-16.41-22-12.34-34.1-27.82-34.1-43.59a7,7,0,0,1,7-7H428.37c5.82-84.05,5.33-168.87,4.93-237.37q0-5-.06-9.89H238.68c-16.18,0-38.13-6.44-55.9-16.42-22-12.34-34.1-27.82-34.1-43.58a7,7,0,0,1,7-7H882.56a7,7,0,0,1,7,7c0,15.76-12.11,31.24-34.09,43.58C837.69,92.56,815.75,99,799.56,99H500.24q0,4.69.05,9.5c.4,68.27.9,152.76-4.79,237.76H702.4a7,7,0,0,1,7,7c0,15.77-12.11,31.25-34.1,43.59-17.77,10-39.72,16.41-55.9,16.41H489.58c-8.45,75.61-21.81,136.13-40.8,184.87C428.21,650.9,396,686.25,350.14,706.2,305.18,725.77,251.83,728.41,205.56,728.41Z"/><path d="M204.56,727.41a282.05,282.05,0,0,1-80.4-11.77C93.6,706.28,70,692.44,54,674.5c-18-20.2-25.51-44.74-22.27-73a7,7,0,0,1,5-5.93,6.69,6.69,0,0,1,1.92-.27A7,7,0,0,1,44.18,598c33.27,42,85.73,62.41,160.38,62.41,85.87,0,149.1-6.28,180.79-87.6,16.09-41.3,28.14-95.28,35.84-160.55h-51c-16.18,0-38.13-6.44-55.9-16.41-22-12.34-34.1-27.82-34.1-43.59a7,7,0,0,1,7-7H427.37c5.82-84.05,5.33-168.87,4.93-237.37q0-5-.06-9.89H237.68c-16.18,0-38.13-6.44-55.9-16.42-22-12.34-34.1-27.82-34.1-43.58a7,7,0,0,1,7-7H881.56a7,7,0,0,1,7,7c0,15.76-12.11,31.24-34.09,43.58C836.69,91.56,814.75,98,798.56,98H499.24q0,4.69.05,9.5c.4,68.27.9,152.76-4.79,237.76H701.4a7,7,0,0,1,7,7c0,15.77-12.11,31.25-34.1,43.59-17.77,10-39.72,16.41-55.9,16.41H488.58c-8.45,75.61-21.81,136.13-40.8,184.87C427.21,649.9,395,685.25,349.14,705.2,304.18,724.77,250.83,727.41,204.56,727.41Z"/><path d="M203.56,726.41a282.05,282.05,0,0,1-80.4-11.77C92.6,705.28,69,691.44,53,673.5c-18-20.2-25.51-44.74-22.27-73a7,7,0,0,1,5-5.93,6.69,6.69,0,0,1,1.92-.27A7,7,0,0,1,43.18,597c33.27,42,85.73,62.41,160.38,62.41,85.87,0,149.1-6.28,180.79-87.6,16.09-41.3,28.14-95.28,35.84-160.55h-51c-16.18,0-38.13-6.44-55.9-16.41-22-12.34-34.1-27.82-34.1-43.59a7,7,0,0,1,7-7H426.37c5.82-84.05,5.33-168.87,4.93-237.37q0-5-.06-9.89H236.68c-16.18,0-38.13-6.44-55.9-16.42-22-12.34-34.1-27.82-34.1-43.58a7,7,0,0,1,7-7H880.56a7,7,0,0,1,7,7c0,15.76-12.11,31.24-34.09,43.58C835.69,90.56,813.75,97,797.56,97H498.24q0,4.69.05,9.5c.4,68.27.9,152.76-4.79,237.76H700.4a7,7,0,0,1,7,7c0,15.77-12.11,31.25-34.1,43.59-17.77,10-39.72,16.41-55.9,16.41H487.58c-8.45,75.61-21.81,136.13-40.8,184.87C426.21,648.9,394,684.25,348.14,704.2,303.18,723.77,249.83,726.41,203.56,726.41Z"/><path d="M202.56,725.41a282.05,282.05,0,0,1-80.4-11.77C91.6,704.28,68,690.44,52,672.5c-18-20.2-25.51-44.74-22.27-73a7,7,0,0,1,5-5.93,6.69,6.69,0,0,1,1.92-.27A7,7,0,0,1,42.18,596c33.27,42,85.73,62.41,160.38,62.41,85.87,0,149.1-6.28,180.79-87.6,16.09-41.3,28.14-95.28,35.84-160.55h-51c-16.18,0-38.13-6.44-55.9-16.41-22-12.34-34.1-27.82-34.1-43.59a7,7,0,0,1,7-7H425.37c5.82-84.05,5.33-168.87,4.93-237.37q0-5-.06-9.89H235.68c-16.18,0-38.13-6.44-55.9-16.42-22-12.34-34.1-27.82-34.1-43.58a7,7,0,0,1,7-7H879.56a7,7,0,0,1,7,7c0,15.76-12.11,31.24-34.09,43.58C834.69,89.56,812.75,96,796.56,96H497.24q0,4.69.05,9.5c.4,68.27.9,152.76-4.79,237.76H699.4a7,7,0,0,1,7,7c0,15.77-12.11,31.25-34.1,43.59-17.77,10-39.72,16.41-55.9,16.41H486.58c-8.45,75.61-21.81,136.13-40.8,184.87C425.21,647.9,393,683.25,347.14,703.2,302.18,722.77,248.83,725.41,202.56,725.41Z"/><path d="M201.56,724.41a282.05,282.05,0,0,1-80.4-11.77C90.6,703.28,67,689.44,51,671.5c-18-20.2-25.51-44.74-22.27-73a7,7,0,0,1,5-5.93,6.69,6.69,0,0,1,1.92-.27A7,7,0,0,1,41.18,595c33.27,42,85.73,62.41,160.38,62.41,85.87,0,149.1-6.28,180.79-87.6,16.09-41.3,28.14-95.28,35.84-160.55h-51c-16.18,0-38.13-6.44-55.9-16.41-22-12.34-34.1-27.82-34.1-43.59a7,7,0,0,1,7-7H424.37c5.82-84.05,5.33-168.87,4.93-237.37q0-5-.06-9.89H234.68c-16.18,0-38.13-6.44-55.9-16.42-22-12.34-34.1-27.82-34.1-43.58a7,7,0,0,1,7-7H878.56a7,7,0,0,1,7,7c0,15.76-12.11,31.24-34.09,43.58C833.69,88.56,811.75,95,795.56,95H496.24q0,4.69.05,9.5c.4,68.27.9,152.76-4.79,237.76H698.4a7,7,0,0,1,7,7c0,15.77-12.11,31.25-34.1,43.59-17.77,10-39.72,16.41-55.9,16.41H485.58c-8.45,75.61-21.81,136.13-40.8,184.87C424.21,646.9,392,682.25,346.14,702.2,301.18,721.77,247.83,724.41,201.56,724.41Z"/><path d="M200.56,723.41a282.05,282.05,0,0,1-80.4-11.77C89.6,702.28,66,688.44,50,670.5c-18-20.2-25.51-44.74-22.27-73a7,7,0,0,1,5-5.93,6.69,6.69,0,0,1,1.92-.27A7,7,0,0,1,40.18,594c33.27,42,85.73,62.41,160.38,62.41,85.87,0,149.1-6.28,180.79-87.6,16.09-41.3,28.14-95.28,35.84-160.55h-51c-16.18,0-38.13-6.44-55.9-16.41-22-12.34-34.1-27.82-34.1-43.59a7,7,0,0,1,7-7H423.37c5.82-84.05,5.33-168.87,4.93-237.37q0-5-.06-9.89H233.68c-16.18,0-38.13-6.44-55.9-16.42-22-12.34-34.1-27.82-34.1-43.58a7,7,0,0,1,7-7H877.56a7,7,0,0,1,7,7c0,15.76-12.11,31.24-34.09,43.58C832.69,87.56,810.75,94,794.56,94H495.24q0,4.69.05,9.5c.4,68.27.9,152.76-4.79,237.76H697.4a7,7,0,0,1,7,7c0,15.77-12.11,31.25-34.1,43.59-17.77,10-39.72,16.41-55.9,16.41H484.58c-8.45,75.61-21.81,136.13-40.8,184.87C423.21,645.9,391,681.25,345.14,701.2,300.18,720.77,246.83,723.41,200.56,723.41Z"/><path d="M199.56,722.41a282.05,282.05,0,0,1-80.4-11.77C88.6,701.28,65,687.44,49,669.5c-18-20.2-25.51-44.74-22.27-73a7,7,0,0,1,5-5.93,6.69,6.69,0,0,1,1.92-.27A7,7,0,0,1,39.18,593c33.27,42,85.73,62.41,160.38,62.41,85.87,0,149.1-6.28,180.79-87.6,16.09-41.3,28.14-95.28,35.84-160.55h-51c-16.18,0-38.13-6.44-55.9-16.41-22-12.34-34.1-27.82-34.1-43.59a7,7,0,0,1,7-7H422.37c5.82-84.05,5.33-168.87,4.93-237.37q0-5-.06-9.89H232.68c-16.18,0-38.13-6.44-55.9-16.42-22-12.34-34.1-27.82-34.1-43.58a7,7,0,0,1,7-7H876.56a7,7,0,0,1,7,7c0,15.76-12.11,31.24-34.09,43.58C831.69,86.56,809.75,93,793.56,93H494.24q0,4.69.05,9.5c.4,68.27.9,152.76-4.79,237.76H696.4a7,7,0,0,1,7,7c0,15.77-12.11,31.25-34.1,43.59-17.77,10-39.72,16.41-55.9,16.41H483.58c-8.45,75.61-21.81,136.13-40.8,184.87C422.21,644.9,390,680.25,344.14,700.2,299.18,719.77,245.83,722.41,199.56,722.41Z"/><path d="M198.56,721.41a282.05,282.05,0,0,1-80.4-11.77C87.6,700.28,64,686.44,48,668.5c-18-20.2-25.51-44.74-22.27-73a7,7,0,0,1,5-5.93,6.69,6.69,0,0,1,1.92-.27A7,7,0,0,1,38.18,592c33.27,42,85.73,62.41,160.38,62.41,85.87,0,149.1-6.28,180.79-87.6,16.09-41.3,28.14-95.28,35.84-160.55h-51c-16.18,0-38.13-6.44-55.9-16.41-22-12.34-34.1-27.82-34.1-43.59a7,7,0,0,1,7-7H421.37c5.82-84,5.33-168.87,4.93-237.37q0-5-.06-9.89H231.68c-16.18,0-38.13-6.44-55.9-16.42-22-12.34-34.1-27.82-34.1-43.58a7,7,0,0,1,7-7H875.56a7,7,0,0,1,7,7c0,15.76-12.11,31.24-34.09,43.58C830.69,85.56,808.75,92,792.56,92H493.24q0,4.69.05,9.5c.4,68.27.9,152.76-4.79,237.76H695.4a7,7,0,0,1,7,7c0,15.77-12.11,31.25-34.1,43.59-17.77,10-39.72,16.41-55.9,16.41H482.58c-8.45,75.61-21.81,136.13-40.8,184.87C421.21,643.9,389,679.25,343.14,699.2,298.18,718.77,244.83,721.41,198.56,721.41Z"/><path d="M197.56,720.41a282.05,282.05,0,0,1-80.4-11.77C86.6,699.28,63,685.44,47,667.5c-18-20.2-25.51-44.74-22.27-73a7,7,0,0,1,5-5.93,6.69,6.69,0,0,1,1.92-.27A7,7,0,0,1,37.18,591c33.27,42,85.73,62.41,160.38,62.41,85.87,0,149.1-6.28,180.79-87.6,16.09-41.3,28.14-95.28,35.84-160.55h-51c-16.18,0-38.13-6.44-55.9-16.41-22-12.34-34.1-27.82-34.1-43.59a7,7,0,0,1,7-7H420.37c5.82-84,5.33-168.87,4.93-237.37q0-5-.06-9.89H230.68c-16.18,0-38.13-6.44-55.9-16.42-22-12.34-34.1-27.82-34.1-43.58a7,7,0,0,1,7-7H874.56a7,7,0,0,1,7,7c0,15.76-12.11,31.24-34.09,43.58C829.69,84.56,807.75,91,791.56,91H492.24q0,4.69.05,9.5c.4,68.27.9,152.76-4.79,237.76H694.4a7,7,0,0,1,7,7c0,15.77-12.11,31.25-34.1,43.59-17.77,10-39.72,16.41-55.9,16.41H481.58c-8.45,75.61-21.81,136.13-40.8,184.87C420.21,642.9,388,678.25,342.14,698.2,297.18,717.77,243.83,720.41,197.56,720.41Z"/><path d="M196.56,719.41a282.05,282.05,0,0,1-80.4-11.77C85.6,698.28,62,684.44,46,666.5c-18-20.2-25.51-44.74-22.27-73a7,7,0,0,1,5-5.93,6.69,6.69,0,0,1,1.92-.27A7,7,0,0,1,36.18,590c33.27,42,85.73,62.41,160.38,62.41,85.87,0,149.1-6.28,180.79-87.6,16.09-41.3,28.14-95.28,35.84-160.55h-51c-16.18,0-38.13-6.44-55.9-16.41-22-12.34-34.1-27.82-34.1-43.59a7,7,0,0,1,7-7H419.37c5.82-84,5.33-168.87,4.93-237.37q0-5-.06-9.89H229.68c-16.18,0-38.13-6.44-55.9-16.42-22-12.34-34.1-27.82-34.1-43.58a7,7,0,0,1,7-7H873.56a7,7,0,0,1,7,7c0,15.76-12.11,31.24-34.09,43.58C828.69,83.56,806.75,90,790.56,90H491.24q0,4.69.05,9.5c.4,68.27.9,152.76-4.79,237.76H693.4a7,7,0,0,1,7,7c0,15.77-12.11,31.25-34.1,43.59-17.77,10-39.72,16.41-55.9,16.41H480.58c-8.45,75.61-21.81,136.13-40.8,184.87C419.21,641.9,387,677.25,341.14,697.2,296.18,716.77,242.83,719.41,196.56,719.41Z"/><path d="M195.56,718.41a282.05,282.05,0,0,1-80.4-11.77C84.6,697.28,61,683.44,45,665.5c-18-20.2-25.51-44.74-22.27-73a7,7,0,0,1,5-5.93,6.69,6.69,0,0,1,1.92-.27A7,7,0,0,1,35.18,589c33.27,42,85.73,62.41,160.38,62.41,85.87,0,149.1-6.28,180.79-87.6,16.09-41.3,28.14-95.28,35.84-160.55h-51c-16.18,0-38.13-6.44-55.9-16.41-22-12.34-34.1-27.82-34.1-43.59a7,7,0,0,1,7-7H418.37c5.82-84,5.33-168.87,4.93-237.37q0-5-.06-9.89H228.68c-16.18,0-38.13-6.44-55.9-16.42-22-12.34-34.1-27.82-34.1-43.58a7,7,0,0,1,7-7H872.56a7,7,0,0,1,7,7c0,15.76-12.11,31.24-34.09,43.58C827.69,82.56,805.75,89,789.56,89H490.24q0,4.69.05,9.5c.4,68.27.9,152.76-4.79,237.76H692.4a7,7,0,0,1,7,7c0,15.77-12.11,31.25-34.1,43.59-17.77,10-39.72,16.41-55.9,16.41H479.58c-8.45,75.61-21.81,136.13-40.8,184.87C418.21,640.9,386,676.25,340.14,696.2,295.18,715.77,241.83,718.41,195.56,718.41Z"/><path d="M194.56,717.41a282.05,282.05,0,0,1-80.4-11.77C83.6,696.28,60,682.44,44,664.5c-18-20.2-25.51-44.74-22.27-73a7,7,0,0,1,5-5.93,6.69,6.69,0,0,1,1.92-.27A7,7,0,0,1,34.18,588c33.27,42,85.73,62.41,160.38,62.41,85.87,0,149.1-6.28,180.79-87.6,16.09-41.3,28.14-95.28,35.84-160.55h-51c-16.18,0-38.13-6.44-55.9-16.41-22-12.34-34.1-27.82-34.1-43.59a7,7,0,0,1,7-7H417.37c5.82-84,5.33-168.87,4.93-237.37q0-5-.06-9.89H227.68c-16.18,0-38.13-6.44-55.9-16.42-22-12.34-34.1-27.82-34.1-43.58a7,7,0,0,1,7-7H871.56a7,7,0,0,1,7,7c0,15.76-12.11,31.24-34.09,43.58C826.69,81.56,804.75,88,788.56,88H489.24q0,4.69.05,9.5c.4,68.27.9,152.76-4.79,237.76H691.4a7,7,0,0,1,7,7c0,15.77-12.11,31.25-34.1,43.59-17.77,10-39.72,16.41-55.9,16.41H478.58c-8.45,75.61-21.81,136.13-40.8,184.87C417.21,639.9,385,675.25,339.14,695.2,294.18,714.77,240.83,717.41,194.56,717.41Z"/><path d="M193.56,716.41a282.05,282.05,0,0,1-80.4-11.77C82.6,695.28,59,681.44,43,663.5c-18-20.2-25.51-44.74-22.27-73a7,7,0,0,1,5-5.93,6.69,6.69,0,0,1,1.92-.27A7,7,0,0,1,33.18,587c33.27,42,85.73,62.41,160.38,62.41,85.87,0,149.1-6.28,180.79-87.6,16.09-41.3,28.14-95.28,35.84-160.55h-51c-16.18,0-38.13-6.44-55.9-16.41-22-12.34-34.1-27.82-34.1-43.59a7,7,0,0,1,7-7H416.37c5.82-84,5.33-168.87,4.93-237.37q0-5-.06-9.89H226.68c-16.18,0-38.13-6.44-55.9-16.42-22-12.34-34.1-27.82-34.1-43.58a7,7,0,0,1,7-7H870.56a7,7,0,0,1,7,7c0,15.76-12.11,31.24-34.09,43.58C825.69,80.56,803.75,87,787.56,87H488.24q0,4.69.05,9.5c.4,68.27.9,152.76-4.79,237.76H690.4a7,7,0,0,1,7,7c0,15.77-12.11,31.25-34.1,43.59-17.77,10-39.72,16.41-55.9,16.41H477.58c-8.45,75.61-21.81,136.13-40.8,184.87C416.21,638.9,384,674.25,338.14,694.2,293.18,713.77,239.83,716.41,193.56,716.41Z"/><path d="M192.56,715.41a282.05,282.05,0,0,1-80.4-11.77C81.6,694.28,58,680.44,42,662.5c-18-20.2-25.51-44.74-22.27-73a7,7,0,0,1,5-5.93,6.69,6.69,0,0,1,1.92-.27A7,7,0,0,1,32.18,586c33.27,42,85.73,62.41,160.38,62.41,85.87,0,149.1-6.28,180.79-87.6,16.09-41.3,28.14-95.28,35.84-160.55h-51c-16.18,0-38.13-6.44-55.9-16.41-22-12.34-34.1-27.82-34.1-43.59a7,7,0,0,1,7-7H415.37c5.82-84,5.33-168.87,4.93-237.37q0-5-.06-9.89H225.68c-16.18,0-38.13-6.44-55.9-16.42-22-12.34-34.1-27.82-34.1-43.58a7,7,0,0,1,7-7H869.56a7,7,0,0,1,7,7c0,15.76-12.11,31.24-34.09,43.58C824.69,79.56,802.75,86,786.56,86H487.24q0,4.69.05,9.5c.4,68.27.9,152.76-4.79,237.76H689.4a7,7,0,0,1,7,7c0,15.77-12.11,31.25-34.1,43.59-17.77,10-39.72,16.41-55.9,16.41H476.58c-8.45,75.61-21.81,136.13-40.8,184.87C415.21,637.9,383,673.25,337.14,693.2,292.18,712.77,238.83,715.41,192.56,715.41Z"/><path d="M191.56,714.41a282.05,282.05,0,0,1-80.4-11.77C80.6,693.28,57,679.44,41,661.5c-18-20.2-25.51-44.74-22.27-73a7,7,0,0,1,5-5.93,6.69,6.69,0,0,1,1.92-.27A7,7,0,0,1,31.18,585c33.27,42,85.73,62.41,160.38,62.41,85.87,0,149.1-6.28,180.79-87.6,16.09-41.3,28.14-95.28,35.84-160.55h-51c-16.18,0-38.13-6.44-55.9-16.41-22-12.34-34.1-27.82-34.1-43.59a7,7,0,0,1,7-7H414.37c5.82-84,5.33-168.87,4.93-237.37q0-5-.06-9.89H224.68c-16.18,0-38.13-6.44-55.9-16.42-22-12.34-34.1-27.82-34.1-43.58a7,7,0,0,1,7-7H868.56a7,7,0,0,1,7,7c0,15.76-12.11,31.24-34.09,43.58C823.69,78.56,801.75,85,785.56,85H486.24q0,4.69.05,9.5c.4,68.27.9,152.76-4.79,237.76H688.4a7,7,0,0,1,7,7c0,15.77-12.11,31.25-34.1,43.59-17.77,10-39.72,16.41-55.9,16.41H475.58c-8.45,75.61-21.81,136.13-40.8,184.87C414.21,636.9,382,672.25,336.14,692.2,291.18,711.77,237.83,714.41,191.56,714.41Z"/><path d="M190.56,713.41a282.05,282.05,0,0,1-80.4-11.77C79.6,692.28,56,678.44,40,660.5c-18-20.2-25.51-44.74-22.27-73a7,7,0,0,1,5-5.93,6.69,6.69,0,0,1,1.92-.27A7,7,0,0,1,30.18,584c33.27,42,85.73,62.41,160.38,62.41,85.87,0,149.1-6.28,180.79-87.6,16.09-41.3,28.14-95.28,35.84-160.55h-51c-16.18,0-38.13-6.44-55.9-16.41-22-12.34-34.1-27.82-34.1-43.59a7,7,0,0,1,7-7H413.37c5.82-84,5.33-168.87,4.93-237.37q0-5-.06-9.89H223.68c-16.18,0-38.13-6.44-55.9-16.42-22-12.34-34.1-27.82-34.1-43.58a7,7,0,0,1,7-7H867.56a7,7,0,0,1,7,7c0,15.76-12.11,31.24-34.09,43.58C822.69,77.56,800.75,84,784.56,84H485.24q0,4.69.05,9.5c.4,68.27.9,152.76-4.79,237.76H687.4a7,7,0,0,1,7,7c0,15.77-12.11,31.25-34.1,43.59-17.77,10-39.72,16.41-55.9,16.41H474.58c-8.45,75.61-21.81,136.13-40.8,184.87C413.21,635.9,381,671.25,335.14,691.2,290.18,710.77,236.83,713.41,190.56,713.41Z"/><path d="M189.56,712.41a282.05,282.05,0,0,1-80.4-11.77C78.6,691.28,55,677.44,39,659.5c-18-20.2-25.51-44.74-22.27-73a7,7,0,0,1,5-5.93,6.69,6.69,0,0,1,1.92-.27A7,7,0,0,1,29.18,583c33.27,42,85.73,62.41,160.38,62.41,85.87,0,149.1-6.28,180.79-87.6,16.09-41.3,28.14-95.28,35.84-160.55h-51c-16.18,0-38.13-6.44-55.9-16.41-22-12.34-34.1-27.82-34.1-43.59a7,7,0,0,1,7-7H412.37c5.82-84,5.33-168.87,4.93-237.37q0-5-.06-9.89H222.68c-16.18,0-38.13-6.44-55.9-16.42-22-12.34-34.1-27.82-34.1-43.58a7,7,0,0,1,7-7H866.56a7,7,0,0,1,7,7c0,15.76-12.11,31.24-34.09,43.58C821.69,76.56,799.75,83,783.56,83H484.24q0,4.69.05,9.5c.4,68.27.9,152.76-4.79,237.76H686.4a7,7,0,0,1,7,7c0,15.77-12.11,31.25-34.1,43.59-17.77,10-39.72,16.41-55.9,16.41H473.58c-8.45,75.61-21.81,136.13-40.8,184.87C412.21,634.9,380,670.25,334.14,690.2,289.18,709.77,235.83,712.41,189.56,712.41Z"/><path d="M188.56,711.41a282.05,282.05,0,0,1-80.4-11.77C77.6,690.28,54,676.44,38,658.5c-18-20.2-25.51-44.74-22.27-73a7,7,0,0,1,5-5.93,6.69,6.69,0,0,1,1.92-.27A7,7,0,0,1,28.18,582c33.27,42,85.73,62.41,160.38,62.41,85.87,0,149.1-6.28,180.79-87.6,16.09-41.3,28.14-95.28,35.84-160.55h-51c-16.18,0-38.13-6.44-55.9-16.41-22-12.34-34.1-27.82-34.1-43.59a7,7,0,0,1,7-7H411.37c5.82-84,5.33-168.87,4.93-237.37q0-5-.06-9.89H221.68c-16.18,0-38.13-6.44-55.9-16.42-22-12.34-34.1-27.82-34.1-43.58a7,7,0,0,1,7-7H865.56a7,7,0,0,1,7,7c0,15.76-12.11,31.24-34.09,43.58C820.69,75.56,798.75,82,782.56,82H483.24q0,4.69.05,9.5c.4,68.27.9,152.76-4.79,237.76H685.4a7,7,0,0,1,7,7c0,15.77-12.11,31.25-34.1,43.59-17.77,10-39.72,16.41-55.9,16.41H472.58c-8.45,75.61-21.81,136.13-40.8,184.87C411.21,633.9,379,669.25,333.14,689.2,288.18,708.77,234.83,711.41,188.56,711.41Z"/><path d="M187.56,710.41a282.05,282.05,0,0,1-80.4-11.77C76.6,689.28,53,675.44,37,657.5c-18-20.2-25.51-44.74-22.27-73a7,7,0,0,1,5-5.93,6.69,6.69,0,0,1,1.92-.27A7,7,0,0,1,27.18,581c33.27,42,85.73,62.41,160.38,62.41,85.87,0,149.1-6.28,180.79-87.6,16.09-41.3,28.14-95.28,35.84-160.55h-51c-16.18,0-38.13-6.44-55.9-16.41-22-12.34-34.1-27.82-34.1-43.59a7,7,0,0,1,7-7H410.37c5.82-84,5.33-168.87,4.93-237.37q0-5-.06-9.89H220.68c-16.18,0-38.13-6.44-55.9-16.42-22-12.34-34.1-27.82-34.1-43.58a7,7,0,0,1,7-7H864.56a7,7,0,0,1,7,7c0,15.76-12.11,31.24-34.09,43.58C819.69,74.56,797.75,81,781.56,81H482.24q0,4.69.05,9.5c.4,68.27.9,152.76-4.79,237.76H684.4a7,7,0,0,1,7,7c0,15.77-12.11,31.25-34.1,43.59-17.77,10-39.72,16.41-55.9,16.41H471.58c-8.45,75.61-21.81,136.13-40.8,184.87C410.21,632.9,378,668.25,332.14,688.2,287.18,707.77,233.83,710.41,187.56,710.41Z"/><path d="M186.56,709.41a282.05,282.05,0,0,1-80.4-11.77C75.6,688.28,52,674.44,36,656.5c-18-20.2-25.51-44.74-22.27-73a7,7,0,0,1,5-5.93,6.69,6.69,0,0,1,1.92-.27A7,7,0,0,1,26.18,580c33.27,42,85.73,62.41,160.38,62.41,85.87,0,149.1-6.28,180.79-87.6,16.09-41.3,28.14-95.28,35.84-160.55h-51c-16.18,0-38.13-6.44-55.9-16.41-22-12.34-34.1-27.82-34.1-43.59a7,7,0,0,1,7-7H409.37c5.82-84,5.33-168.87,4.93-237.37q0-5-.06-9.89H219.68c-16.18,0-38.13-6.44-55.9-16.42-22-12.34-34.1-27.82-34.1-43.58a7,7,0,0,1,7-7H863.56a7,7,0,0,1,7,7c0,15.76-12.11,31.24-34.09,43.58C818.69,73.56,796.75,80,780.56,80H481.24q0,4.69.05,9.5c.4,68.27.9,152.76-4.79,237.76H683.4a7,7,0,0,1,7,7c0,15.77-12.11,31.25-34.1,43.59-17.77,10-39.72,16.41-55.9,16.41H470.58c-8.45,75.61-21.81,136.13-40.8,184.87C409.21,631.9,377,667.25,331.14,687.2,286.18,706.77,232.83,709.41,186.56,709.41Z"/><path d="M185.56,708.41a282.05,282.05,0,0,1-80.4-11.77C74.6,687.28,51,673.44,35,655.5c-18-20.2-25.51-44.74-22.27-73a7,7,0,0,1,5-5.93,6.69,6.69,0,0,1,1.92-.27A7,7,0,0,1,25.18,579c33.27,42,85.73,62.41,160.38,62.41,85.87,0,149.1-6.28,180.79-87.6,16.09-41.3,28.14-95.28,35.84-160.55h-51c-16.18,0-38.13-6.44-55.9-16.41-22-12.34-34.1-27.82-34.1-43.59a7,7,0,0,1,7-7H408.37c5.82-84,5.33-168.87,4.93-237.37q0-5-.06-9.89H218.68c-16.18,0-38.13-6.44-55.9-16.42-22-12.34-34.1-27.82-34.1-43.58a7,7,0,0,1,7-7H862.56a7,7,0,0,1,7,7c0,15.76-12.11,31.24-34.09,43.58C817.69,72.56,795.75,79,779.56,79H480.24q0,4.69.05,9.5c.4,68.27.9,152.76-4.79,237.76H682.4a7,7,0,0,1,7,7c0,15.77-12.11,31.25-34.1,43.59-17.77,10-39.72,16.41-55.9,16.41H469.58c-8.45,75.61-21.81,136.13-40.8,184.87C408.21,630.9,376,666.25,330.14,686.2,285.18,705.77,231.83,708.41,185.56,708.41Z"/><path d="M184.56,707.41a282.05,282.05,0,0,1-80.4-11.77C73.6,686.28,50,672.44,34,654.5c-18-20.2-25.51-44.74-22.27-73a7,7,0,0,1,5-5.93,6.69,6.69,0,0,1,1.92-.27A7,7,0,0,1,24.18,578c33.27,42,85.73,62.41,160.38,62.41,85.87,0,149.1-6.28,180.79-87.6,16.09-41.3,28.14-95.28,35.84-160.55h-51c-16.18,0-38.13-6.44-55.9-16.41-22-12.34-34.1-27.82-34.1-43.59a7,7,0,0,1,7-7H407.37c5.82-84,5.33-168.87,4.93-237.37q0-5-.06-9.89H217.68c-16.18,0-38.13-6.44-55.9-16.42-22-12.34-34.1-27.82-34.1-43.58a7,7,0,0,1,7-7H861.56a7,7,0,0,1,7,7c0,15.76-12.11,31.24-34.09,43.58C816.69,71.56,794.75,78,778.56,78H479.24q0,4.69.05,9.5c.4,68.27.9,152.76-4.79,237.76H681.4a7,7,0,0,1,7,7c0,15.77-12.11,31.25-34.1,43.59-17.77,10-39.72,16.41-55.9,16.41H468.58c-8.45,75.61-21.81,136.13-40.8,184.87C407.21,629.9,375,665.25,329.14,685.2,284.18,704.77,230.83,707.41,184.56,707.41Z"/><path d="M183.56,706.41a282.05,282.05,0,0,1-80.4-11.77C72.6,685.28,49,671.44,33,653.5c-18-20.2-25.51-44.74-22.27-73a7,7,0,0,1,5-5.93,6.69,6.69,0,0,1,1.92-.27A7,7,0,0,1,23.18,577c33.27,42,85.73,62.41,160.38,62.41,85.87,0,149.1-6.28,180.79-87.6,16.09-41.3,28.14-95.28,35.84-160.55h-51c-16.18,0-38.13-6.44-55.9-16.41-22-12.34-34.1-27.82-34.1-43.59a7,7,0,0,1,7-7H406.37c5.82-84,5.33-168.87,4.93-237.37q0-5-.06-9.89H216.68c-16.18,0-38.13-6.44-55.9-16.42-22-12.34-34.1-27.82-34.1-43.58a7,7,0,0,1,7-7H860.56a7,7,0,0,1,7,7c0,15.76-12.11,31.24-34.09,43.58C815.69,70.56,793.75,77,777.56,77H478.24q0,4.69.05,9.5c.4,68.27.9,152.76-4.79,237.76H680.4a7,7,0,0,1,7,7c0,15.77-12.11,31.25-34.1,43.59-17.77,10-39.72,16.41-55.9,16.41H467.58c-8.45,75.61-21.81,136.13-40.8,184.87C406.21,628.9,374,664.25,328.14,684.2,283.18,703.77,229.83,706.41,183.56,706.41Z"/><path d="M182.56,705.41a282.05,282.05,0,0,1-80.4-11.77C71.6,684.28,48,670.44,32,652.5c-18-20.2-25.51-44.74-22.27-73a7,7,0,0,1,5-5.93,6.69,6.69,0,0,1,1.92-.27A7,7,0,0,1,22.18,576c33.27,42,85.73,62.41,160.38,62.41,85.87,0,149.1-6.28,180.79-87.6,16.09-41.3,28.14-95.28,35.84-160.55h-51c-16.18,0-38.13-6.44-55.9-16.41-22-12.34-34.1-27.82-34.1-43.59a7,7,0,0,1,7-7H405.37c5.82-84,5.33-168.87,4.93-237.37q0-5-.06-9.89H215.68c-16.18,0-38.13-6.44-55.9-16.42-22-12.34-34.1-27.82-34.1-43.58a7,7,0,0,1,7-7H859.56a7,7,0,0,1,7,7c0,15.76-12.11,31.24-34.09,43.58C814.69,69.56,792.75,76,776.56,76H477.24q0,4.69.05,9.5c.4,68.27.9,152.76-4.79,237.76H679.4a7,7,0,0,1,7,7c0,15.77-12.11,31.25-34.1,43.59-17.77,10-39.72,16.41-55.9,16.41H466.58c-8.45,75.61-21.81,136.13-40.8,184.87C405.21,627.9,373,663.25,327.14,683.2,282.18,702.77,228.83,705.41,182.56,705.41Z"/><path d="M181.56,704.41a282.05,282.05,0,0,1-80.4-11.77C70.6,683.28,47,669.44,31,651.5c-18-20.2-25.51-44.74-22.27-73a7,7,0,0,1,5-5.93,6.69,6.69,0,0,1,1.92-.27A7,7,0,0,1,21.18,575c33.27,42,85.73,62.41,160.38,62.41,85.87,0,149.1-6.28,180.79-87.6,16.09-41.3,28.14-95.28,35.84-160.55h-51c-16.18,0-38.13-6.44-55.9-16.41-22-12.34-34.1-27.82-34.1-43.59a7,7,0,0,1,7-7H404.37c5.82-84,5.33-168.87,4.93-237.37q0-5-.06-9.89H214.68c-16.18,0-38.13-6.44-55.9-16.42-22-12.34-34.1-27.82-34.1-43.58a7,7,0,0,1,7-7H858.56a7,7,0,0,1,7,7c0,15.76-12.11,31.24-34.09,43.58C813.69,68.56,791.75,75,775.56,75H476.24q0,4.69.05,9.5c.4,68.27.9,152.76-4.79,237.76H678.4a7,7,0,0,1,7,7c0,15.77-12.11,31.25-34.1,43.59-17.77,10-39.72,16.41-55.9,16.41H465.58c-8.45,75.61-21.81,136.13-40.8,184.87C404.21,626.9,372,662.25,326.14,682.2,281.18,701.77,227.83,704.41,181.56,704.41Z"/><path class="cls-1" d="M131.68,15h0c0,29.27,53.73,53,83,53H416.2q0,8.23.1,16.85c.4,69.81.92,158-5.41,244.41H264.16c0,29.28,53.73,53,83,53H406c-7,62.58-18.42,122-37.17,170.09-33.23,85.28-101.51,92.06-187.31,92.06-84.74,0-134.77-25.82-165.87-65.06C5.53,668,111.18,697.41,181.56,697.41c105.39,0,193.8-15.74,236.69-125.82,21.16-54.3,33.69-120.5,41.05-189.33H595.4c29.27,0,83-23.72,83-53H464c6.21-87.23,5.7-174.9,5.3-244.72q-.06-8.45-.1-16.54H775.56c29.27,0,83-23.73,83-53H131.68Z"/></g></g></svg>