<svg xmlns="http://www.w3.org/2000/svg" viewBox="0 0 1920 150"><defs><style>.cls-1{fill:blue;}.cls-2{fill:lime;}.cls-3{fill:aqua;}.cls-4{fill:#ff0;}.cls-5{fill:red;}.cls-6{fill:#f0f;}.cls-7{fill:#fff;}</style></defs><g id="Layer_2" data-name="Layer 2"><g id="Layer_1-2" data-name="Layer 1"><rect width="1920" height="150"/><rect class="cls-1" x="20" y="60.62" width="822.2" height="23.01"/><rect class="cls-2" x="1074.74" y="26.1" width="825.26" height="23.01"/><rect class="cls-3" x="991.44" y="60.62" width="908.56" height="23.01"/><rect class="cls-4" x="20" y="95.13" width="908.49" height="23.01"/><rect class="cls-5" x="20" y="26.1" width="735.91" height="23.01"/><rect class="cls-6" x="1164.09" y="95.13" width="735.91" height="23.01"/><path class="cls-7" d="M778.79,49.11V46.24h-2.88V34.73h5.75V46.24h11.51V34.73h5.75V49.11Z"/><path class="cls-7" d="M824.81,34.73v2.88h2.88v11.5h-5.76V37.61h-11.5v11.5h-5.76V34.73Z"/><path class="cls-7" d="M836.31,37.61V34.73h17.26v2.88h2.88v8.63h-2.88v2.87H836.31V46.24h-2.87V37.61Zm2.88,0v8.63H850.7V37.61Z"/><path class="cls-7" d="M868,37.61H862.2V34.73H868V29h2.88V26.1h14.38V29h-11.5v5.75h8.63v2.88h-8.63v11.5H868Z"/><path class="cls-7" d="M896.72,37.61H891V34.73h5.75V29h2.88V26.1H914V29H902.47v5.75h8.63v2.88h-8.63v11.5h-5.75Z"/><path class="cls-7" d="M928.36,46.24V37.61h-5.75V34.73h11.5V46.24h5.75v2.87H922.61V46.24Zm5.75-20.14v5.75h-5.75V26.1Z"/><path class="cls-7" d="M951.37,37.61V34.73h17.26v2.88h2.88v2.87h-5.76V37.61h-11.5v8.63h11.5V43.36h5.76v2.88h-2.88v2.87H951.37V46.24h-2.88V37.61Z"/><path class="cls-7" d="M985.89,46.24V37.61h-5.76V34.73h11.51V46.24h5.75v2.87H980.13V46.24Zm5.75-20.14v5.75h-5.75V26.1Z"/><path class="cls-7" d="M1006,46.24V43.36h2.88V40.48h14.38V37.61H1008.9V34.73h17.26v2.88H1029v11.5H1008.9V46.24Zm5.75-2.88v2.88h11.51V43.36Z"/><path class="cls-7" d="M1043.42,46.24V29h-2.88V26.1h8.63V46.24h5.75v2.87h-17.26V46.24Z"/><path class="cls-7" d="M873.71,60.62v8.63h8.63v2.87h-8.63v8.63h11.5v2.88H870.83V80.75H868V72.12H862.2V69.25H868V60.62Z"/><path class="cls-7" d="M914,86.5H911.1v2.88H893.84V86.5h14.38V83.63H893.84V80.75H891V69.25h5.75v11.5h11.5V69.25H914Z"/><path class="cls-7" d="M939.86,69.25v2.87h2.88v8.63h-2.88v2.88H925.48v5.75h-5.75V69.25Zm-14.38,11.5H937V72.12H925.48Z"/><path class="cls-7" d="M968.63,80.75v2.88H951.37V80.75h-2.88V72.12h2.88V69.25h17.26v2.87h2.88V75h-2.88v2.88H954.25v2.87ZM965.75,75V72.12h-11.5V75Z"/><path class="cls-7" d="M954.25,106.64h-5.76v-2.88h5.76V98h2.87V95.13h14.39V98H960v5.75h8.63v2.88H960v11.51h-5.75Z"/><path class="cls-7" d="M980.13,106.64v-2.88h17.26v2.88h2.88v8.63h-2.88v2.88H980.13v-2.88h-2.87v-8.63Zm2.88,0v8.63h11.51v-8.63Z"/><path class="cls-7" d="M1008.9,118.15v-2.88H1006V103.76h5.76v11.51h11.5V103.76H1029v14.39Z"/><path class="cls-7" d="M1054.92,103.76v2.88h2.88v11.51H1052V106.64h-11.5v11.51h-5.75V103.76Z"/><path class="cls-7" d="M1066.43,118.15v-2.88h-2.88v-8.63h2.88v-2.88h14.38V95.13h5.75v23Zm2.87-2.88h11.51v-8.63H1069.3Z"/><path class="cls-7" d="M1100.94,103.76v2.88h2.88v2.88h-2.88v8.63h-5.75V103.76Zm11.51,0v2.88h-8.63v-2.88Z"/><path class="cls-7" d="M1144.09,121h-2.88v2.88H1124V121h14.38v-2.87H1124v-2.88h-2.88V103.76h5.75v11.51h11.51V103.76h5.75Z"/></g></g></svg>