<svg xmlns="http://www.w3.org/2000/svg" viewBox="0 0 1920 150"><defs><style>.cls-1{fill:blue;}.cls-2{fill:lime;}.cls-3{fill:aqua;}.cls-4{fill:#ff0;}.cls-5{fill:red;}.cls-6{fill:#f0f;}.cls-7{fill:#fff;}</style></defs><g id="Layer_2" data-name="Layer 2"><g id="Layer_1-2" data-name="Layer 1"><rect width="1920" height="150"/><rect class="cls-1" x="10" y="60.62" width="128.52" height="23.01"/><rect class="cls-2" x="371.06" y="26.1" width="131.57" height="23.01"/><rect class="cls-3" x="287.76" y="60.62" width="214.87" height="23.01"/><rect class="cls-4" x="10" y="95.13" width="214.81" height="23.01"/><rect class="cls-5" x="10" y="26.1" width="42.23" height="23.01"/><rect class="cls-6" x="460.41" y="95.13" width="42.23" height="23.01"/><path class="cls-7" d="M75.1,49.11V46.24H72.23V34.73H78V46.24h11.5V34.73h5.76V49.11Z"/><path class="cls-7" d="M121.12,34.73v2.88H124v11.5h-5.75V37.61H106.74v11.5H101V34.73Z"/><path class="cls-7" d="M132.63,37.61V34.73h17.26v2.88h2.87v8.63h-2.87v2.87H132.63V46.24h-2.88V37.61Zm2.88,0v8.63H147V37.61Z"/><path class="cls-7" d="M164.27,37.61h-5.75V34.73h5.75V29h2.88V26.1h14.38V29H170v5.75h8.63v2.88H170v11.5h-5.75Z"/><path class="cls-7" d="M193,37.61h-5.75V34.73H193V29h2.88V26.1h14.38V29h-11.5v5.75h8.63v2.88h-8.63v11.5H193Z"/><path class="cls-7" d="M224.67,46.24V37.61h-5.75V34.73h11.51V46.24h5.75v2.87H218.92V46.24Zm5.76-20.14v5.75h-5.76V26.1Z"/><path class="cls-7" d="M247.69,37.61V34.73h17.25v2.88h2.88v2.87h-5.75V37.61H250.56v8.63h11.51V43.36h5.75v2.88h-2.88v2.87H247.69V46.24h-2.88V37.61Z"/><path class="cls-7" d="M282.2,46.24V37.61h-5.75V34.73H288V46.24h5.75v2.87H276.45V46.24ZM288,26.1v5.75H282.2V26.1Z"/><path class="cls-7" d="M302.34,46.24V43.36h2.87V40.48H319.6V37.61H305.21V34.73h17.26v2.88h2.88v11.5H305.21V46.24Zm5.75-2.88v2.88H319.6V43.36Z"/><path class="cls-7" d="M339.73,46.24V29h-2.88V26.1h8.63V46.24h5.76v2.87H334V46.24Z"/><path class="cls-7" d="M170,60.62v8.63h8.63v2.87H170v8.63h11.51v2.88H167.15V80.75h-2.88V72.12h-5.75V69.25h5.75V60.62Z"/><path class="cls-7" d="M210.29,86.5h-2.87v2.88H190.16V86.5h14.38V83.63H190.16V80.75h-2.88V69.25H193v11.5h11.51V69.25h5.75Z"/><path class="cls-7" d="M236.18,69.25v2.87h2.88v8.63h-2.88v2.88H221.8v5.75h-5.75V69.25ZM221.8,80.75h11.5V72.12H221.8Z"/><path class="cls-7" d="M264.94,80.75v2.88H247.69V80.75h-2.88V72.12h2.88V69.25h17.25v2.87h2.88V75h-2.88v2.88H250.56v2.87ZM262.07,75V72.12H250.56V75Z"/><path class="cls-7" d="M250.56,106.64h-5.75v-2.88h5.75V98h2.88V95.13h14.38V98H256.31v5.75h8.63v2.88h-8.63v11.51h-5.75Z"/><path class="cls-7" d="M276.45,106.64v-2.88h17.26v2.88h2.87v8.63h-2.87v2.88H276.45v-2.88h-2.88v-8.63Zm2.88,0v8.63h11.5v-8.63Z"/><path class="cls-7" d="M305.21,118.15v-2.88h-2.87V103.76h5.75v11.51H319.6V103.76h5.75v14.39Z"/><path class="cls-7" d="M351.24,103.76v2.88h2.87v11.51h-5.75V106.64H336.85v11.51H331.1V103.76Z"/><path class="cls-7" d="M362.74,118.15v-2.88h-2.87v-8.63h2.87v-2.88h14.38V95.13h5.76v23Zm2.88-2.88h11.5v-8.63h-11.5Z"/><path class="cls-7" d="M397.26,103.76v2.88h2.88v2.88h-2.88v8.63h-5.75V103.76Zm11.51,0v2.88h-8.63v-2.88Z"/><path class="cls-7" d="M440.41,121h-2.88v2.88H420.27V121h14.38v-2.87H420.27v-2.88h-2.88V103.76h5.76v11.51h11.5V103.76h5.76Z"/></g></g></svg>