<svg xmlns="http://www.w3.org/2000/svg" viewBox="0 0 502 501.89"><defs><style>.cls-1{fill:#fff;}.cls-2{fill:aqua;}.cls-3{fill:red;}.cls-4{fill:#f0f;}.cls-5{fill:#ff0;}.cls-6{fill:lime;}</style></defs><g id="Layer_2" data-name="Layer 2"><g id="Layer_1-2" data-name="Layer 1"><rect class="cls-1" width="502" height="477"/><rect class="cls-2" y="477" width="100.4" height="24.89"/><rect class="cls-3" x="100.4" y="477" width="100.4" height="24.89"/><rect class="cls-4" x="200.8" y="477" width="100.4" height="24.89"/><rect class="cls-5" x="301.2" y="477" width="100.4" height="24.89"/><rect class="cls-6" x="401.6" y="477" width="100.4" height="24.89"/><path d="M73.14,298.29h47.43V322H49.43V298.29H25.71V203.43H73.14Zm94.86,0V203.43H120.57v94.86h23.72V322h47.42V298.29Zm260.86-23.72v23.72H405.14V250.86h23.72V227.14H405.14V156H381.43v23.71H357.71v47.43H334v23.72h23.71v47.43h23.72V322h71.14V298.29h23.72V274.57ZM310.29,179.71V156H239.14v23.71H215.43v47.43H191.71v23.72h23.72V322h47.43V250.86h23.71V227.14H262.86V179.71h23.71v23.72H334V179.71Z"/></g></g></svg>