<?xml version="1.0" encoding="UTF-8" ?>
<svg version="1.1" width="48" height="48" xmlns="http://www.w3.org/2000/svg" shape-rendering="crispEdges">
<rect x="23" y="6" width="1" height="1" fill="#FFFFFF" />
<rect x="24" y="6" width="1" height="1" fill="#FFFFFF" />
<rect x="22" y="7" width="1" height="1" fill="#FFFFFF" />
<rect x="23" y="7" width="1" height="1" fill="#FFFFFF" />
<rect x="24" y="7" width="1" height="1" fill="#FFFFFF" />
<rect x="25" y="7" width="1" height="1" fill="#FFFFFF" />
<rect x="22" y="8" width="1" height="1" fill="#FFFFFF" />
<rect x="23" y="8" width="1" height="1" fill="#FFFFFF" />
<rect x="24" y="8" width="1" height="1" fill="#FFFFFF" />
<rect x="25" y="8" width="1" height="1" fill="#FFFFFF" />
<rect x="21" y="9" width="1" height="1" fill="#FFFFFF" />
<rect x="22" y="9" width="1" height="1" fill="#FFFFFF" />
<rect x="23" y="9" width="1" height="1" fill="#FFFFFF" />
<rect x="24" y="9" width="1" height="1" fill="#FFFFFF" />
<rect x="25" y="9" width="1" height="1" fill="#FFFFFF" />
<rect x="26" y="9" width="1" height="1" fill="#FFFFFF" />
<rect x="21" y="10" width="1" height="1" fill="#FFFFFF" />
<rect x="22" y="10" width="1" height="1" fill="#FFFFFF" />
<rect x="23" y="10" width="1" height="1" fill="#FFFFFF" />
<rect x="24" y="10" width="1" height="1" fill="#FFFFFF" />
<rect x="25" y="10" width="1" height="1" fill="#FFFFFF" />
<rect x="26" y="10" width="1" height="1" fill="#FFFFFF" />
<rect x="20" y="11" width="1" height="1" fill="#FFFFFF" />
<rect x="21" y="11" width="1" height="1" fill="#FFFFFF" />
<rect x="22" y="11" width="1" height="1" fill="#FFFFFF" />
<rect x="23" y="11" width="1" height="1" fill="#FFFFFF" />
<rect x="24" y="11" width="1" height="1" fill="#FFFFFF" />
<rect x="25" y="11" width="1" height="1" fill="#FFFFFF" />
<rect x="26" y="11" width="1" height="1" fill="#FFFFFF" />
<rect x="27" y="11" width="1" height="1" fill="#FFFFFF" />
<rect x="20" y="12" width="1" height="1" fill="#FFFFFF" />
<rect x="21" y="12" width="1" height="1" fill="#FFFFFF" />
<rect x="22" y="12" width="1" height="1" fill="#FFFFFF" />
<rect x="23" y="12" width="1" height="1" fill="#FFFFFF" />
<rect x="24" y="12" width="1" height="1" fill="#FFFFFF" />
<rect x="25" y="12" width="1" height="1" fill="#FFFFFF" />
<rect x="26" y="12" width="1" height="1" fill="#FFFFFF" />
<rect x="27" y="12" width="1" height="1" fill="#FFFFFF" />
<rect x="19" y="13" width="1" height="1" fill="#FFFFFF" />
<rect x="20" y="13" width="1" height="1" fill="#FFFFFF" />
<rect x="21" y="13" width="1" height="1" fill="#FFFFFF" />
<rect x="22" y="13" width="1" height="1" fill="#FFFFFF" />
<rect x="23" y="13" width="1" height="1" fill="#FFFFFF" />
<rect x="24" y="13" width="1" height="1" fill="#FFFFFF" />
<rect x="25" y="13" width="1" height="1" fill="#FFFFFF" />
<rect x="26" y="13" width="1" height="1" fill="#FFFFFF" />
<rect x="27" y="13" width="1" height="1" fill="#FFFFFF" />
<rect x="28" y="13" width="1" height="1" fill="#FFFFFF" />
<rect x="19" y="14" width="1" height="1" fill="#FFFFFF" />
<rect x="20" y="14" width="1" height="1" fill="#FFFFFF" />
<rect x="21" y="14" width="1" height="1" fill="#FFFFFF" />
<rect x="22" y="14" width="1" height="1" fill="#FFFFFF" />
<rect x="25" y="14" width="1" height="1" fill="#FFFFFF" />
<rect x="26" y="14" width="1" height="1" fill="#FFFFFF" />
<rect x="27" y="14" width="1" height="1" fill="#FFFFFF" />
<rect x="28" y="14" width="1" height="1" fill="#FFFFFF" />
<rect x="18" y="15" width="1" height="1" fill="#FFFFFF" />
<rect x="19" y="15" width="1" height="1" fill="#FFFFFF" />
<rect x="20" y="15" width="1" height="1" fill="#FFFFFF" />
<rect x="21" y="15" width="1" height="1" fill="#FFFFFF" />
<rect x="22" y="15" width="1" height="1" fill="#FFFFFF" />
<rect x="25" y="15" width="1" height="1" fill="#FFFFFF" />
<rect x="26" y="15" width="1" height="1" fill="#FFFFFF" />
<rect x="27" y="15" width="1" height="1" fill="#FFFFFF" />
<rect x="28" y="15" width="1" height="1" fill="#FFFFFF" />
<rect x="29" y="15" width="1" height="1" fill="#FFFFFF" />
<rect x="18" y="16" width="1" height="1" fill="#FFFFFF" />
<rect x="19" y="16" width="1" height="1" fill="#FFFFFF" />
<rect x="20" y="16" width="1" height="1" fill="#FFFFFF" />
<rect x="21" y="16" width="1" height="1" fill="#FFFFFF" />
<rect x="26" y="16" width="1" height="1" fill="#FFFFFF" />
<rect x="27" y="16" width="1" height="1" fill="#FFFFFF" />
<rect x="28" y="16" width="1" height="1" fill="#FFFFFF" />
<rect x="29" y="16" width="1" height="1" fill="#FFFFFF" />
<rect x="17" y="17" width="1" height="1" fill="#FFFFFF" />
<rect x="18" y="17" width="1" height="1" fill="#FFFFFF" />
<rect x="19" y="17" width="1" height="1" fill="#FFFFFF" />
<rect x="20" y="17" width="1" height="1" fill="#FFFFFF" />
<rect x="21" y="17" width="1" height="1" fill="#FFFFFF" />
<rect x="26" y="17" width="1" height="1" fill="#FFFFFF" />
<rect x="27" y="17" width="1" height="1" fill="#FFFFFF" />
<rect x="28" y="17" width="1" height="1" fill="#FFFFFF" />
<rect x="29" y="17" width="1" height="1" fill="#FFFFFF" />
<rect x="30" y="17" width="1" height="1" fill="#FFFFFF" />
<rect x="17" y="18" width="1" height="1" fill="#FFFFFF" />
<rect x="18" y="18" width="1" height="1" fill="#FFFFFF" />
<rect x="19" y="18" width="1" height="1" fill="#FFFFFF" />
<rect x="20" y="18" width="1" height="1" fill="#FFFFFF" />
<rect x="27" y="18" width="1" height="1" fill="#FFFFFF" />
<rect x="28" y="18" width="1" height="1" fill="#FFFFFF" />
<rect x="29" y="18" width="1" height="1" fill="#FFFFFF" />
<rect x="30" y="18" width="1" height="1" fill="#FFFFFF" />
<rect x="16" y="19" width="1" height="1" fill="#FFFFFF" />
<rect x="17" y="19" width="1" height="1" fill="#FFFFFF" />
<rect x="18" y="19" width="1" height="1" fill="#FFFFFF" />
<rect x="19" y="19" width="1" height="1" fill="#FFFFFF" />
<rect x="20" y="19" width="1" height="1" fill="#FFFFFF" />
<rect x="27" y="19" width="1" height="1" fill="#FFFFFF" />
<rect x="28" y="19" width="1" height="1" fill="#FFFFFF" />
<rect x="29" y="19" width="1" height="1" fill="#FFFFFF" />
<rect x="30" y="19" width="1" height="1" fill="#FFFFFF" />
<rect x="31" y="19" width="1" height="1" fill="#FFFFFF" />
<rect x="16" y="20" width="1" height="1" fill="#FFFFFF" />
<rect x="17" y="20" width="1" height="1" fill="#FFFFFF" />
<rect x="18" y="20" width="1" height="1" fill="#FFFFFF" />
<rect x="19" y="20" width="1" height="1" fill="#FFFFFF" />
<rect x="28" y="20" width="1" height="1" fill="#FFFFFF" />
<rect x="29" y="20" width="1" height="1" fill="#FFFFFF" />
<rect x="30" y="20" width="1" height="1" fill="#FFFFFF" />
<rect x="31" y="20" width="1" height="1" fill="#FFFFFF" />
<rect x="15" y="21" width="1" height="1" fill="#FFFFFF" />
<rect x="16" y="21" width="1" height="1" fill="#FFFFFF" />
<rect x="17" y="21" width="1" height="1" fill="#FFFFFF" />
<rect x="18" y="21" width="1" height="1" fill="#FFFFFF" />
<rect x="19" y="21" width="1" height="1" fill="#FFFFFF" />
<rect x="28" y="21" width="1" height="1" fill="#FFFFFF" />
<rect x="29" y="21" width="1" height="1" fill="#FFFFFF" />
<rect x="30" y="21" width="1" height="1" fill="#FFFFFF" />
<rect x="31" y="21" width="1" height="1" fill="#FFFFFF" />
<rect x="32" y="21" width="1" height="1" fill="#FFFFFF" />
<rect x="15" y="22" width="1" height="1" fill="#FFFFFF" />
<rect x="16" y="22" width="1" height="1" fill="#FFFFFF" />
<rect x="17" y="22" width="1" height="1" fill="#FFFFFF" />
<rect x="18" y="22" width="1" height="1" fill="#FFFFFF" />
<rect x="21" y="22" width="1" height="1" fill="#FFFFFF" />
<rect x="22" y="22" width="1" height="1" fill="#FFFFFF" />
<rect x="23" y="22" width="1" height="1" fill="#FFFFFF" />
<rect x="24" y="22" width="1" height="1" fill="#FFFFFF" />
<rect x="25" y="22" width="1" height="1" fill="#FFFFFF" />
<rect x="26" y="22" width="1" height="1" fill="#FFFFFF" />
<rect x="29" y="22" width="1" height="1" fill="#FFFFFF" />
<rect x="30" y="22" width="1" height="1" fill="#FFFFFF" />
<rect x="31" y="22" width="1" height="1" fill="#FFFFFF" />
<rect x="32" y="22" width="1" height="1" fill="#FFFFFF" />
<rect x="14" y="23" width="1" height="1" fill="#FFFFFF" />
<rect x="15" y="23" width="1" height="1" fill="#FFFFFF" />
<rect x="16" y="23" width="1" height="1" fill="#FFFFFF" />
<rect x="17" y="23" width="1" height="1" fill="#FFFFFF" />
<rect x="18" y="23" width="1" height="1" fill="#FFFFFF" />
<rect x="21" y="23" width="1" height="1" fill="#FFFFFF" />
<rect x="22" y="23" width="1" height="1" fill="#FFFFFF" />
<rect x="23" y="23" width="1" height="1" fill="#FFFFFF" />
<rect x="24" y="23" width="1" height="1" fill="#FFFFFF" />
<rect x="25" y="23" width="1" height="1" fill="#FFFFFF" />
<rect x="26" y="23" width="1" height="1" fill="#FFFFFF" />
<rect x="29" y="23" width="1" height="1" fill="#FFFFFF" />
<rect x="30" y="23" width="1" height="1" fill="#FFFFFF" />
<rect x="31" y="23" width="1" height="1" fill="#FFFFFF" />
<rect x="32" y="23" width="1" height="1" fill="#FFFFFF" />
<rect x="33" y="23" width="1" height="1" fill="#FFFFFF" />
<rect x="14" y="24" width="1" height="1" fill="#FFFFFF" />
<rect x="15" y="24" width="1" height="1" fill="#FFFFFF" />
<rect x="16" y="24" width="1" height="1" fill="#FFFFFF" />
<rect x="17" y="24" width="1" height="1" fill="#FFFFFF" />
<rect x="21" y="24" width="1" height="1" fill="#FFFFFF" />
<rect x="22" y="24" width="1" height="1" fill="#FFFFFF" />
<rect x="23" y="24" width="1" height="1" fill="#FFFFFF" />
<rect x="24" y="24" width="1" height="1" fill="#FFFFFF" />
<rect x="25" y="24" width="1" height="1" fill="#FFFFFF" />
<rect x="26" y="24" width="1" height="1" fill="#FFFFFF" />
<rect x="30" y="24" width="1" height="1" fill="#FFFFFF" />
<rect x="31" y="24" width="1" height="1" fill="#FFFFFF" />
<rect x="32" y="24" width="1" height="1" fill="#FFFFFF" />
<rect x="33" y="24" width="1" height="1" fill="#FFFFFF" />
<rect x="13" y="25" width="1" height="1" fill="#FFFFFF" />
<rect x="14" y="25" width="1" height="1" fill="#FFFFFF" />
<rect x="15" y="25" width="1" height="1" fill="#FFFFFF" />
<rect x="16" y="25" width="1" height="1" fill="#FFFFFF" />
<rect x="17" y="25" width="1" height="1" fill="#FFFFFF" />
<rect x="21" y="25" width="1" height="1" fill="#FFFFFF" />
<rect x="22" y="25" width="1" height="1" fill="#FFFFFF" />
<rect x="23" y="25" width="1" height="1" fill="#FFFFFF" />
<rect x="24" y="25" width="1" height="1" fill="#FFFFFF" />
<rect x="25" y="25" width="1" height="1" fill="#FFFFFF" />
<rect x="26" y="25" width="1" height="1" fill="#FFFFFF" />
<rect x="30" y="25" width="1" height="1" fill="#FFFFFF" />
<rect x="31" y="25" width="1" height="1" fill="#FFFFFF" />
<rect x="32" y="25" width="1" height="1" fill="#FFFFFF" />
<rect x="33" y="25" width="1" height="1" fill="#FFFFFF" />
<rect x="34" y="25" width="1" height="1" fill="#FFFFFF" />
<rect x="13" y="26" width="1" height="1" fill="#FFFFFF" />
<rect x="14" y="26" width="1" height="1" fill="#FFFFFF" />
<rect x="15" y="26" width="1" height="1" fill="#FFFFFF" />
<rect x="16" y="26" width="1" height="1" fill="#FFFFFF" />
<rect x="21" y="26" width="1" height="1" fill="#FFFFFF" />
<rect x="22" y="26" width="1" height="1" fill="#FFFFFF" />
<rect x="23" y="26" width="1" height="1" fill="#FFFFFF" />
<rect x="24" y="26" width="1" height="1" fill="#FFFFFF" />
<rect x="25" y="26" width="1" height="1" fill="#FFFFFF" />
<rect x="26" y="26" width="1" height="1" fill="#FFFFFF" />
<rect x="31" y="26" width="1" height="1" fill="#FFFFFF" />
<rect x="32" y="26" width="1" height="1" fill="#FFFFFF" />
<rect x="33" y="26" width="1" height="1" fill="#FFFFFF" />
<rect x="34" y="26" width="1" height="1" fill="#FFFFFF" />
<rect x="12" y="27" width="1" height="1" fill="#FFFFFF" />
<rect x="13" y="27" width="1" height="1" fill="#FFFFFF" />
<rect x="14" y="27" width="1" height="1" fill="#FFFFFF" />
<rect x="15" y="27" width="1" height="1" fill="#FFFFFF" />
<rect x="21" y="27" width="1" height="1" fill="#FFFFFF" />
<rect x="22" y="27" width="1" height="1" fill="#FFFFFF" />
<rect x="23" y="27" width="1" height="1" fill="#FFFFFF" />
<rect x="24" y="27" width="1" height="1" fill="#FFFFFF" />
<rect x="25" y="27" width="1" height="1" fill="#FFFFFF" />
<rect x="26" y="27" width="1" height="1" fill="#FFFFFF" />
<rect x="32" y="27" width="1" height="1" fill="#FFFFFF" />
<rect x="33" y="27" width="1" height="1" fill="#FFFFFF" />
<rect x="34" y="27" width="1" height="1" fill="#FFFFFF" />
<rect x="35" y="27" width="1" height="1" fill="#FFFFFF" />
<rect x="12" y="28" width="1" height="1" fill="#FFFFFF" />
<rect x="13" y="28" width="1" height="1" fill="#FFFFFF" />
<rect x="14" y="28" width="1" height="1" fill="#FFFFFF" />
<rect x="15" y="28" width="1" height="1" fill="#FFFFFF" />
<rect x="22" y="28" width="1" height="1" fill="#FFFFFF" />
<rect x="23" y="28" width="1" height="1" fill="#FFFFFF" />
<rect x="24" y="28" width="1" height="1" fill="#FFFFFF" />
<rect x="25" y="28" width="1" height="1" fill="#FFFFFF" />
<rect x="32" y="28" width="1" height="1" fill="#FFFFFF" />
<rect x="33" y="28" width="1" height="1" fill="#FFFFFF" />
<rect x="34" y="28" width="1" height="1" fill="#FFFFFF" />
<rect x="35" y="28" width="1" height="1" fill="#FFFFFF" />
<rect x="11" y="29" width="1" height="1" fill="#FFFFFF" />
<rect x="12" y="29" width="1" height="1" fill="#FFFFFF" />
<rect x="13" y="29" width="1" height="1" fill="#FFFFFF" />
<rect x="14" y="29" width="1" height="1" fill="#FFFFFF" />
<rect x="22" y="29" width="1" height="1" fill="#FFFFFF" />
<rect x="23" y="29" width="1" height="1" fill="#FFFFFF" />
<rect x="24" y="29" width="1" height="1" fill="#FFFFFF" />
<rect x="25" y="29" width="1" height="1" fill="#FFFFFF" />
<rect x="33" y="29" width="1" height="1" fill="#FFFFFF" />
<rect x="34" y="29" width="1" height="1" fill="#FFFFFF" />
<rect x="35" y="29" width="1" height="1" fill="#FFFFFF" />
<rect x="36" y="29" width="1" height="1" fill="#FFFFFF" />
<rect x="11" y="30" width="1" height="1" fill="#FFFFFF" />
<rect x="12" y="30" width="1" height="1" fill="#FFFFFF" />
<rect x="13" y="30" width="1" height="1" fill="#FFFFFF" />
<rect x="14" y="30" width="1" height="1" fill="#FFFFFF" />
<rect x="23" y="30" width="1" height="1" fill="#FFFFFF" />
<rect x="24" y="30" width="1" height="1" fill="#FFFFFF" />
<rect x="33" y="30" width="1" height="1" fill="#FFFFFF" />
<rect x="34" y="30" width="1" height="1" fill="#FFFFFF" />
<rect x="35" y="30" width="1" height="1" fill="#FFFFFF" />
<rect x="36" y="30" width="1" height="1" fill="#FFFFFF" />
<rect x="10" y="31" width="1" height="1" fill="#FFFFFF" />
<rect x="11" y="31" width="1" height="1" fill="#FFFFFF" />
<rect x="12" y="31" width="1" height="1" fill="#FFFFFF" />
<rect x="13" y="31" width="1" height="1" fill="#FFFFFF" />
<rect x="34" y="31" width="1" height="1" fill="#FFFFFF" />
<rect x="35" y="31" width="1" height="1" fill="#FFFFFF" />
<rect x="36" y="31" width="1" height="1" fill="#FFFFFF" />
<rect x="37" y="31" width="1" height="1" fill="#FFFFFF" />
<rect x="10" y="32" width="1" height="1" fill="#FFFFFF" />
<rect x="11" y="32" width="1" height="1" fill="#FFFFFF" />
<rect x="12" y="32" width="1" height="1" fill="#FFFFFF" />
<rect x="13" y="32" width="1" height="1" fill="#FFFFFF" />
<rect x="22" y="32" width="1" height="1" fill="#FFFFFF" />
<rect x="23" y="32" width="1" height="1" fill="#FFFFFF" />
<rect x="24" y="32" width="1" height="1" fill="#FFFFFF" />
<rect x="25" y="32" width="1" height="1" fill="#FFFFFF" />
<rect x="34" y="32" width="1" height="1" fill="#FFFFFF" />
<rect x="35" y="32" width="1" height="1" fill="#FFFFFF" />
<rect x="36" y="32" width="1" height="1" fill="#FFFFFF" />
<rect x="37" y="32" width="1" height="1" fill="#FFFFFF" />
<rect x="9" y="33" width="1" height="1" fill="#FFFFFF" />
<rect x="10" y="33" width="1" height="1" fill="#FFFFFF" />
<rect x="11" y="33" width="1" height="1" fill="#FFFFFF" />
<rect x="12" y="33" width="1" height="1" fill="#FFFFFF" />
<rect x="22" y="33" width="1" height="1" fill="#FFFFFF" />
<rect x="23" y="33" width="1" height="1" fill="#FFFFFF" />
<rect x="24" y="33" width="1" height="1" fill="#FFFFFF" />
<rect x="25" y="33" width="1" height="1" fill="#FFFFFF" />
<rect x="35" y="33" width="1" height="1" fill="#FFFFFF" />
<rect x="36" y="33" width="1" height="1" fill="#FFFFFF" />
<rect x="37" y="33" width="1" height="1" fill="#FFFFFF" />
<rect x="38" y="33" width="1" height="1" fill="#FFFFFF" />
<rect x="9" y="34" width="1" height="1" fill="#FFFFFF" />
<rect x="10" y="34" width="1" height="1" fill="#FFFFFF" />
<rect x="11" y="34" width="1" height="1" fill="#FFFFFF" />
<rect x="12" y="34" width="1" height="1" fill="#FFFFFF" />
<rect x="22" y="34" width="1" height="1" fill="#FFFFFF" />
<rect x="23" y="34" width="1" height="1" fill="#FFFFFF" />
<rect x="24" y="34" width="1" height="1" fill="#FFFFFF" />
<rect x="25" y="34" width="1" height="1" fill="#FFFFFF" />
<rect x="35" y="34" width="1" height="1" fill="#FFFFFF" />
<rect x="36" y="34" width="1" height="1" fill="#FFFFFF" />
<rect x="37" y="34" width="1" height="1" fill="#FFFFFF" />
<rect x="38" y="34" width="1" height="1" fill="#FFFFFF" />
<rect x="8" y="35" width="1" height="1" fill="#FFFFFF" />
<rect x="9" y="35" width="1" height="1" fill="#FFFFFF" />
<rect x="10" y="35" width="1" height="1" fill="#FFFFFF" />
<rect x="11" y="35" width="1" height="1" fill="#FFFFFF" />
<rect x="22" y="35" width="1" height="1" fill="#FFFFFF" />
<rect x="23" y="35" width="1" height="1" fill="#FFFFFF" />
<rect x="24" y="35" width="1" height="1" fill="#FFFFFF" />
<rect x="25" y="35" width="1" height="1" fill="#FFFFFF" />
<rect x="36" y="35" width="1" height="1" fill="#FFFFFF" />
<rect x="37" y="35" width="1" height="1" fill="#FFFFFF" />
<rect x="38" y="35" width="1" height="1" fill="#FFFFFF" />
<rect x="39" y="35" width="1" height="1" fill="#FFFFFF" />
<rect x="8" y="36" width="1" height="1" fill="#FFFFFF" />
<rect x="9" y="36" width="1" height="1" fill="#FFFFFF" />
<rect x="10" y="36" width="1" height="1" fill="#FFFFFF" />
<rect x="11" y="36" width="1" height="1" fill="#FFFFFF" />
<rect x="36" y="36" width="1" height="1" fill="#FFFFFF" />
<rect x="37" y="36" width="1" height="1" fill="#FFFFFF" />
<rect x="38" y="36" width="1" height="1" fill="#FFFFFF" />
<rect x="39" y="36" width="1" height="1" fill="#FFFFFF" />
<rect x="7" y="37" width="1" height="1" fill="#FFFFFF" />
<rect x="8" y="37" width="1" height="1" fill="#FFFFFF" />
<rect x="9" y="37" width="1" height="1" fill="#FFFFFF" />
<rect x="10" y="37" width="1" height="1" fill="#FFFFFF" />
<rect x="37" y="37" width="1" height="1" fill="#FFFFFF" />
<rect x="38" y="37" width="1" height="1" fill="#FFFFFF" />
<rect x="39" y="37" width="1" height="1" fill="#FFFFFF" />
<rect x="40" y="37" width="1" height="1" fill="#FFFFFF" />
<rect x="7" y="38" width="1" height="1" fill="#FFFFFF" />
<rect x="8" y="38" width="1" height="1" fill="#FFFFFF" />
<rect x="9" y="38" width="1" height="1" fill="#FFFFFF" />
<rect x="10" y="38" width="1" height="1" fill="#FFFFFF" />
<rect x="11" y="38" width="1" height="1" fill="#FFFFFF" />
<rect x="12" y="38" width="1" height="1" fill="#FFFFFF" />
<rect x="13" y="38" width="1" height="1" fill="#FFFFFF" />
<rect x="14" y="38" width="1" height="1" fill="#FFFFFF" />
<rect x="15" y="38" width="1" height="1" fill="#FFFFFF" />
<rect x="16" y="38" width="1" height="1" fill="#FFFFFF" />
<rect x="17" y="38" width="1" height="1" fill="#FFFFFF" />
<rect x="18" y="38" width="1" height="1" fill="#FFFFFF" />
<rect x="19" y="38" width="1" height="1" fill="#FFFFFF" />
<rect x="20" y="38" width="1" height="1" fill="#FFFFFF" />
<rect x="21" y="38" width="1" height="1" fill="#FFFFFF" />
<rect x="22" y="38" width="1" height="1" fill="#FFFFFF" />
<rect x="23" y="38" width="1" height="1" fill="#FFFFFF" />
<rect x="24" y="38" width="1" height="1" fill="#FFFFFF" />
<rect x="25" y="38" width="1" height="1" fill="#FFFFFF" />
<rect x="26" y="38" width="1" height="1" fill="#FFFFFF" />
<rect x="27" y="38" width="1" height="1" fill="#FFFFFF" />
<rect x="28" y="38" width="1" height="1" fill="#FFFFFF" />
<rect x="29" y="38" width="1" height="1" fill="#FFFFFF" />
<rect x="30" y="38" width="1" height="1" fill="#FFFFFF" />
<rect x="31" y="38" width="1" height="1" fill="#FFFFFF" />
<rect x="32" y="38" width="1" height="1" fill="#FFFFFF" />
<rect x="33" y="38" width="1" height="1" fill="#FFFFFF" />
<rect x="34" y="38" width="1" height="1" fill="#FFFFFF" />
<rect x="35" y="38" width="1" height="1" fill="#FFFFFF" />
<rect x="36" y="38" width="1" height="1" fill="#FFFFFF" />
<rect x="37" y="38" width="1" height="1" fill="#FFFFFF" />
<rect x="38" y="38" width="1" height="1" fill="#FFFFFF" />
<rect x="39" y="38" width="1" height="1" fill="#FFFFFF" />
<rect x="40" y="38" width="1" height="1" fill="#FFFFFF" />
<rect x="6" y="39" width="1" height="1" fill="#FFFFFF" />
<rect x="7" y="39" width="1" height="1" fill="#FFFFFF" />
<rect x="8" y="39" width="1" height="1" fill="#FFFFFF" />
<rect x="9" y="39" width="1" height="1" fill="#FFFFFF" />
<rect x="10" y="39" width="1" height="1" fill="#FFFFFF" />
<rect x="11" y="39" width="1" height="1" fill="#FFFFFF" />
<rect x="12" y="39" width="1" height="1" fill="#FFFFFF" />
<rect x="13" y="39" width="1" height="1" fill="#FFFFFF" />
<rect x="14" y="39" width="1" height="1" fill="#FFFFFF" />
<rect x="15" y="39" width="1" height="1" fill="#FFFFFF" />
<rect x="16" y="39" width="1" height="1" fill="#FFFFFF" />
<rect x="17" y="39" width="1" height="1" fill="#FFFFFF" />
<rect x="18" y="39" width="1" height="1" fill="#FFFFFF" />
<rect x="19" y="39" width="1" height="1" fill="#FFFFFF" />
<rect x="20" y="39" width="1" height="1" fill="#FFFFFF" />
<rect x="21" y="39" width="1" height="1" fill="#FFFFFF" />
<rect x="22" y="39" width="1" height="1" fill="#FFFFFF" />
<rect x="23" y="39" width="1" height="1" fill="#FFFFFF" />
<rect x="24" y="39" width="1" height="1" fill="#FFFFFF" />
<rect x="25" y="39" width="1" height="1" fill="#FFFFFF" />
<rect x="26" y="39" width="1" height="1" fill="#FFFFFF" />
<rect x="27" y="39" width="1" height="1" fill="#FFFFFF" />
<rect x="28" y="39" width="1" height="1" fill="#FFFFFF" />
<rect x="29" y="39" width="1" height="1" fill="#FFFFFF" />
<rect x="30" y="39" width="1" height="1" fill="#FFFFFF" />
<rect x="31" y="39" width="1" height="1" fill="#FFFFFF" />
<rect x="32" y="39" width="1" height="1" fill="#FFFFFF" />
<rect x="33" y="39" width="1" height="1" fill="#FFFFFF" />
<rect x="34" y="39" width="1" height="1" fill="#FFFFFF" />
<rect x="35" y="39" width="1" height="1" fill="#FFFFFF" />
<rect x="36" y="39" width="1" height="1" fill="#FFFFFF" />
<rect x="37" y="39" width="1" height="1" fill="#FFFFFF" />
<rect x="38" y="39" width="1" height="1" fill="#FFFFFF" />
<rect x="39" y="39" width="1" height="1" fill="#FFFFFF" />
<rect x="40" y="39" width="1" height="1" fill="#FFFFFF" />
<rect x="41" y="39" width="1" height="1" fill="#FFFFFF" />
<rect x="6" y="40" width="1" height="1" fill="#FFFFFF" />
<rect x="7" y="40" width="1" height="1" fill="#FFFFFF" />
<rect x="8" y="40" width="1" height="1" fill="#FFFFFF" />
<rect x="9" y="40" width="1" height="1" fill="#FFFFFF" />
<rect x="10" y="40" width="1" height="1" fill="#FFFFFF" />
<rect x="11" y="40" width="1" height="1" fill="#FFFFFF" />
<rect x="12" y="40" width="1" height="1" fill="#FFFFFF" />
<rect x="13" y="40" width="1" height="1" fill="#FFFFFF" />
<rect x="14" y="40" width="1" height="1" fill="#FFFFFF" />
<rect x="15" y="40" width="1" height="1" fill="#FFFFFF" />
<rect x="16" y="40" width="1" height="1" fill="#FFFFFF" />
<rect x="17" y="40" width="1" height="1" fill="#FFFFFF" />
<rect x="18" y="40" width="1" height="1" fill="#FFFFFF" />
<rect x="19" y="40" width="1" height="1" fill="#FFFFFF" />
<rect x="20" y="40" width="1" height="1" fill="#FFFFFF" />
<rect x="21" y="40" width="1" height="1" fill="#FFFFFF" />
<rect x="22" y="40" width="1" height="1" fill="#FFFFFF" />
<rect x="23" y="40" width="1" height="1" fill="#FFFFFF" />
<rect x="24" y="40" width="1" height="1" fill="#FFFFFF" />
<rect x="25" y="40" width="1" height="1" fill="#FFFFFF" />
<rect x="26" y="40" width="1" height="1" fill="#FFFFFF" />
<rect x="27" y="40" width="1" height="1" fill="#FFFFFF" />
<rect x="28" y="40" width="1" height="1" fill="#FFFFFF" />
<rect x="29" y="40" width="1" height="1" fill="#FFFFFF" />
<rect x="30" y="40" width="1" height="1" fill="#FFFFFF" />
<rect x="31" y="40" width="1" height="1" fill="#FFFFFF" />
<rect x="32" y="40" width="1" height="1" fill="#FFFFFF" />
<rect x="33" y="40" width="1" height="1" fill="#FFFFFF" />
<rect x="34" y="40" width="1" height="1" fill="#FFFFFF" />
<rect x="35" y="40" width="1" height="1" fill="#FFFFFF" />
<rect x="36" y="40" width="1" height="1" fill="#FFFFFF" />
<rect x="37" y="40" width="1" height="1" fill="#FFFFFF" />
<rect x="38" y="40" width="1" height="1" fill="#FFFFFF" />
<rect x="39" y="40" width="1" height="1" fill="#FFFFFF" />
<rect x="40" y="40" width="1" height="1" fill="#FFFFFF" />
<rect x="41" y="40" width="1" height="1" fill="#FFFFFF" />
<rect x="7" y="41" width="1" height="1" fill="#FFFFFF" />
<rect x="8" y="41" width="1" height="1" fill="#FFFFFF" />
<rect x="9" y="41" width="1" height="1" fill="#FFFFFF" />
<rect x="10" y="41" width="1" height="1" fill="#FFFFFF" />
<rect x="11" y="41" width="1" height="1" fill="#FFFFFF" />
<rect x="12" y="41" width="1" height="1" fill="#FFFFFF" />
<rect x="13" y="41" width="1" height="1" fill="#FFFFFF" />
<rect x="14" y="41" width="1" height="1" fill="#FFFFFF" />
<rect x="15" y="41" width="1" height="1" fill="#FFFFFF" />
<rect x="16" y="41" width="1" height="1" fill="#FFFFFF" />
<rect x="17" y="41" width="1" height="1" fill="#FFFFFF" />
<rect x="18" y="41" width="1" height="1" fill="#FFFFFF" />
<rect x="19" y="41" width="1" height="1" fill="#FFFFFF" />
<rect x="20" y="41" width="1" height="1" fill="#FFFFFF" />
<rect x="21" y="41" width="1" height="1" fill="#FFFFFF" />
<rect x="22" y="41" width="1" height="1" fill="#FFFFFF" />
<rect x="23" y="41" width="1" height="1" fill="#FFFFFF" />
<rect x="24" y="41" width="1" height="1" fill="#FFFFFF" />
<rect x="25" y="41" width="1" height="1" fill="#FFFFFF" />
<rect x="26" y="41" width="1" height="1" fill="#FFFFFF" />
<rect x="27" y="41" width="1" height="1" fill="#FFFFFF" />
<rect x="28" y="41" width="1" height="1" fill="#FFFFFF" />
<rect x="29" y="41" width="1" height="1" fill="#FFFFFF" />
<rect x="30" y="41" width="1" height="1" fill="#FFFFFF" />
<rect x="31" y="41" width="1" height="1" fill="#FFFFFF" />
<rect x="32" y="41" width="1" height="1" fill="#FFFFFF" />
<rect x="33" y="41" width="1" height="1" fill="#FFFFFF" />
<rect x="34" y="41" width="1" height="1" fill="#FFFFFF" />
<rect x="35" y="41" width="1" height="1" fill="#FFFFFF" />
<rect x="36" y="41" width="1" height="1" fill="#FFFFFF" />
<rect x="37" y="41" width="1" height="1" fill="#FFFFFF" />
<rect x="38" y="41" width="1" height="1" fill="#FFFFFF" />
<rect x="39" y="41" width="1" height="1" fill="#FFFFFF" />
<rect x="40" y="41" width="1" height="1" fill="#FFFFFF" />
</svg>